<svg width="258" height="65" viewBox="0 0 258 65" fill="none" xmlns="http://www.w3.org/2000/svg">
<g clip-path="url(#clip0_40_188)">
<path d="M118.591 0C119.209 0.140833 119.844 0.0938889 120.469 0.155278C123.002 0.393611 125.461 0.906389 127.768 1.99694C132.241 4.11306 134.824 7.6375 135.493 12.5017C136.433 19.3556 133.284 27.17 127.899 31.4564C125.37 33.4678 122.468 34.7244 119.368 35.5622C116.891 36.2339 114.366 36.6744 111.819 36.9706C111.757 36.9778 111.691 36.9922 111.586 37.0103C112.88 38.0719 113.036 39.5633 113.199 41.0258C113.588 44.5322 115.346 47.1972 118.278 49.075C120.764 50.6675 123.245 50.1222 125.385 48.1903C125.599 47.9953 125.498 47.9375 125.291 47.8617C124.52 47.5764 123.83 47.1503 123.209 46.6122C122.13 45.6842 121.617 44.5395 121.745 43.1058C121.897 41.3797 122.449 39.8342 123.71 38.6028C124.844 37.4942 126.402 37.2306 127.619 37.8986C127.914 38.0575 128.183 38.2561 128.328 38.5594C128.444 38.8086 128.615 38.917 128.873 39C130.366 39.4731 131.111 40.5781 131.376 42.0442C131.434 42.3619 131.543 42.4739 131.852 42.4486C132.165 42.4233 132.531 42.5317 132.775 42.3439C133.022 42.1525 132.877 41.7806 132.924 41.4881C133.298 39.1445 133.952 36.8731 134.722 34.6306C136.059 30.7378 137.643 26.9533 139.856 23.4578C140.637 22.2264 141.491 21.0456 142.57 20.0525C143.347 19.3339 144.187 18.655 145.295 18.5936C146.973 18.4997 148.536 18.9042 149.869 19.9731C150.628 20.5797 150.723 21.4139 150.541 22.295C150.221 23.8406 149.509 25.2272 148.714 26.5706C145.978 31.1747 142.748 35.4106 139.038 39.2817C138.432 39.9172 137.792 40.5203 137.16 41.1342C137.062 41.2281 136.989 41.3292 136.942 41.4556C136.604 42.38 136.321 43.3153 136.27 44.3083C136.263 44.4383 136.259 44.5683 136.27 44.702C136.288 45.0053 136.386 45.2833 136.691 45.4025C136.975 45.5181 137.196 45.3375 137.396 45.1606C138.381 44.2939 139.024 43.1853 139.616 42.0406C139.689 41.9033 139.634 41.7878 139.598 41.665C138.995 39.6753 140.888 38.2525 142.359 38.6461C143.231 38.8772 144.005 39.1553 144.227 40.1447C144.339 40.6539 144.285 41.1667 144.103 41.6506C143.983 41.9683 144.092 42.0695 144.383 42.1092C144.75 42.1633 145.117 42.1995 145.48 42.1092C145.952 41.9972 146.287 41.8203 146.472 41.2678C147.021 39.6392 148.151 38.4836 149.742 37.8011C150.163 37.6206 150.607 37.5881 151.053 37.7145C152.082 38.007 152.957 38.5342 153.615 39.3828C154.287 40.2495 154.312 40.9211 153.698 41.8311C152.925 42.9831 151.947 43.9508 150.904 44.8572C150.806 44.9403 150.712 45.027 150.581 45.1389C151.079 45.3483 151.544 45.24 151.991 45.1389C153.804 44.7164 155.384 43.8172 156.874 42.7411C157.226 42.4883 157.557 42.2067 157.906 41.9503C158.124 41.7878 158.156 41.6903 157.862 41.5711C157.368 41.3725 156.939 41.0728 156.609 40.6467C156.06 39.9389 156.016 39.2239 156.471 38.462C156.62 38.2128 156.779 37.9744 156.983 37.7686C157.633 37.1006 158.505 36.9597 159.192 37.4147C159.897 37.8842 160.18 38.8808 159.824 39.6825C159.751 39.8486 159.657 40.0111 159.544 40.152C159.388 40.3433 159.468 40.4156 159.657 40.4769C159.948 40.5672 160.238 40.5239 160.514 40.4445C161.11 40.2675 161.681 40.0364 162.117 39.5633C162.265 39.4008 162.465 39.3864 162.661 39.4008C163.366 39.455 163.984 39.7222 164.525 40.17C165.045 40.5997 165.219 41.1233 164.99 41.7806C164.692 42.6472 164.296 43.4742 163.904 44.3011C163.77 44.5828 163.65 44.8753 163.519 45.1606C163.381 45.4675 163.406 45.7672 163.533 46.0706C163.85 46.8289 164.209 46.977 164.932 46.5906C166.876 45.5506 168.366 44.0592 169.379 42.1092C169.692 41.5061 170.022 40.9139 170.219 40.2531C170.324 39.9028 170.182 39.8919 169.902 39.9244C168.656 40.0689 167.461 39.8883 166.349 39.2997C165.742 38.9783 165.506 38.4222 165.699 37.8228C165.993 36.9092 167.076 36.6347 167.752 37.3245C168.489 38.0756 169.43 38.2417 170.415 38.3247C170.698 38.35 170.684 38.1189 170.724 37.9564C171.123 36.317 171.574 34.6919 172.093 33.0886C173.245 29.5281 174.509 26.0072 176.37 22.7356C177.013 21.6053 177.696 20.5039 178.698 19.6372C179.596 18.8644 180.54 18.7272 181.456 19.2292C182.233 19.6553 182.412 20.215 181.997 20.995C181.856 21.2622 181.692 21.515 181.521 21.7642C181.005 22.5225 180.468 23.2664 179.963 24.0319C177.656 27.5383 176.079 31.3769 174.756 35.3347C174.538 35.992 174.328 36.6528 174.124 37.3136C174.084 37.4436 173.953 37.5989 174.077 37.7108C174.171 37.7975 174.324 37.6964 174.448 37.6711C175.501 37.4472 176.537 37.1294 177.63 37.1656C178.208 37.1836 178.658 37.5736 178.749 38.137C178.833 38.6642 178.517 39.1986 178.008 39.3864C177.725 39.4911 177.441 39.455 177.154 39.3792C176.039 39.0831 174.909 39.2094 173.779 39.2781C173.605 39.2889 173.572 39.3972 173.532 39.5308C172.802 41.9358 172.173 44.3625 171.981 46.8795C171.973 46.9842 171.952 47.0853 171.941 47.19C171.861 47.7786 171.835 48.36 172.162 48.9017C172.304 49.1364 172.377 49.4072 172.42 49.6817C172.489 50.1006 172.344 50.3533 171.919 50.4256C170.571 50.6531 169.884 50.2811 169.394 49.0714C169.118 48.3853 169.121 47.6667 169.183 46.9445C169.19 46.8722 169.198 46.8 169.212 46.6556C169.023 46.8289 168.882 46.9589 168.74 47.0889C166.858 48.8078 164.703 49.0172 162.52 47.6883C161.884 47.302 161.346 46.8036 160.845 46.2656C160.096 45.4639 160.02 44.5178 160.264 43.5139C160.394 42.9831 160.554 42.4558 160.71 41.8817C160.307 41.9322 159.937 41.9864 159.559 41.9828C159.334 41.9828 159.315 42.1922 159.239 42.3367C158.298 44.135 157.055 45.677 155.486 46.9842C153.993 48.2264 152.456 48.4539 150.723 47.5186C149.313 46.7603 148.067 45.8286 147.086 44.5611C146.853 44.2578 146.646 43.9364 146.516 43.5789C146.443 43.3839 146.378 43.3333 146.189 43.467C145.407 44.0195 144.55 44.2903 143.584 44.0736C143.369 44.0267 143.278 44.1422 143.184 44.2975C142.701 45.0956 142.138 45.8358 141.538 46.5472C140.633 47.6197 139.525 47.9483 138.181 47.5294C136.408 46.9769 134.944 45.9803 133.774 44.5539C133.625 44.3733 133.52 44.3156 133.291 44.4131C132.659 44.6803 131.99 44.8283 131.311 44.9186C131.107 44.9475 130.984 45.0161 130.886 45.2003C130.29 46.3125 129.469 47.1972 128.321 47.7786C127.979 47.952 127.717 48.277 127.412 48.5261C125.977 49.6925 124.419 50.6133 122.562 50.9311C121.036 51.1911 119.55 50.9636 118.09 50.5086C116.037 49.8658 114.224 48.815 112.654 47.3489C111.027 45.8322 110.213 43.9472 110.067 41.7517C110.038 41.3111 109.973 40.867 109.879 40.4336C109.49 38.722 108.189 37.6819 106.405 37.6278C105.773 37.6097 105.144 37.6567 104.512 37.7C104.287 37.7145 104.2 37.8445 104.109 38.0106C102.699 40.6539 101.282 43.2972 99.8727 45.9406C99.2732 47.0636 98.721 48.2047 98.4812 49.4686C98.463 49.5589 98.4485 49.6492 98.4412 49.7395C98.3722 50.3931 98.1542 50.552 97.5002 50.3967C97.0752 50.2956 96.6791 50.1222 96.3086 49.8911C95.4838 49.3783 94.7572 48.7681 94.2849 47.9014C94.1141 47.5908 94.0923 47.3056 94.2267 46.9697C94.8916 45.2906 95.6437 43.6511 96.4103 42.0153C99.9999 34.3742 103.742 26.8125 107.873 19.4422C108.879 17.6475 109.915 15.8708 111.114 14.1953C111.833 13.1878 112.691 12.3211 113.857 11.8372C115.314 11.2306 116.8 11.2269 118.282 11.765C118.344 11.7867 118.402 11.8192 118.46 11.8481C118.805 12.0322 118.82 12.1189 118.555 12.3897C117.185 13.78 116.026 15.3328 114.95 16.9506C112.941 19.9658 111.255 23.1581 109.671 26.4081C108.309 29.1958 107.099 32.0486 105.817 34.8725C105.791 34.9303 105.769 34.9917 105.722 35.1181C106.423 35.0603 107.081 35.0314 107.735 34.952C111.568 34.4933 115.263 33.5003 118.827 32.0306C122.598 30.4742 125.341 27.7694 127.478 24.3894C129.084 21.8508 130.206 19.1172 130.653 16.1381C131.035 13.5742 130.867 11.0717 129.625 8.73167C128.437 6.5 126.533 5.06639 124.248 4.095C121.497 2.925 118.635 2.57833 115.67 2.97194C111.982 3.46306 108.552 4.67278 105.362 6.565C104.694 6.96222 104.091 7.4425 103.539 7.995C102.834 8.70278 101.958 8.78945 101.213 8.27667C100.548 7.81445 100.414 7.18611 100.868 6.51083C101.275 5.90056 101.838 5.43833 102.449 5.05195C106.445 2.53139 110.761 0.866667 115.463 0.241944C116.109 0.155278 116.763 0.0902778 117.41 0.0144444C117.806 0.0144444 118.199 0.0144444 118.595 0.0144444L118.591 0ZM137.93 37.7181C137.956 37.7361 137.985 37.7542 138.01 37.7722C138.141 37.6278 138.276 37.4833 138.403 37.3389C141.226 34.0961 143.693 30.5933 145.956 26.9497C146.766 25.6461 147.507 24.31 148.012 22.8547C148.132 22.5081 148.234 22.1542 148.216 21.7822C148.205 21.5511 148.147 21.3236 147.922 21.2225C147.715 21.1286 147.544 21.2731 147.391 21.3994C147.271 21.5006 147.155 21.6089 147.05 21.7244C146.432 22.4069 145.916 23.1653 145.426 23.9417C142.821 28.0656 140.597 32.3953 138.406 36.7431C138.243 37.0644 138.09 37.3931 137.93 37.7181ZM126.417 41.0403C125.57 41.582 124.924 42.2789 124.651 43.2611C124.266 44.655 125.149 45.9297 126.595 46.0742C126.853 46.0994 127.133 46.1139 127.325 45.8864C127.55 45.6156 127.761 45.3303 127.983 45.0522C128.106 44.897 128.117 44.7958 127.899 44.702C127.532 44.5467 127.212 44.3192 126.947 44.0195C126.166 43.142 126.021 42.1489 126.417 41.0403ZM149.161 43.5861C149.182 43.7739 149.164 44.0231 149.349 44.1061C149.506 44.1783 149.637 43.9653 149.76 43.8569C150.723 43.0156 151.555 42.0586 152.292 41.015C152.383 40.8886 152.449 40.7442 152.518 40.6033C152.569 40.5058 152.59 40.4011 152.51 40.3072C152.423 40.2061 152.303 40.2025 152.183 40.2495C152.06 40.2964 151.933 40.3325 151.816 40.3939C150.745 40.9645 149.913 41.777 149.368 42.8675C149.255 43.0914 149.186 43.3297 149.161 43.5861Z" fill="white"/>
<path d="M257.949 42.9579C257.738 41.8095 256.906 41.322 255.86 41.062C255.515 40.9754 255.17 40.8923 254.843 40.7587C254.483 40.6106 254.45 40.3651 254.712 40.0834C254.919 39.8595 255.188 39.7151 255.446 39.5598C255.816 39.3395 256.212 39.1518 256.532 38.852C256.914 38.4945 256.896 38.1515 256.478 37.8373C256.111 37.5665 255.704 37.4004 255.239 37.3931C254.178 37.3751 253.299 37.7904 252.536 38.4945C251.707 39.2637 250.995 40.1448 250.243 40.9826C248.826 42.5534 247.344 44.052 245.654 45.3412C245.371 45.5579 245.077 45.7565 244.724 45.8468C244.408 45.9262 244.263 45.7854 244.346 45.4712C244.394 45.2979 244.47 45.1245 244.561 44.9693C245.066 44.0665 245.604 43.1818 246.083 42.2681C246.592 41.304 246.396 40.7118 245.455 40.1376C245.182 39.9715 244.891 39.8451 244.579 39.7909C244.172 39.7187 243.816 39.7187 243.449 40.0401C242.922 40.4987 242.254 40.7406 241.553 40.8454C241.4 40.867 241.233 40.8634 241.084 40.8309C240.877 40.7876 240.782 40.6793 240.971 40.4843C241.164 40.2856 241.32 40.0618 241.436 39.809C241.76 39.0904 241.611 38.2237 241.084 37.7868C240.564 37.357 239.732 37.3823 239.067 37.8662C238.617 38.1948 238.254 38.6101 237.967 39.0831C237.494 39.8631 237.607 40.6793 238.243 41.3401C238.544 41.6543 238.929 41.842 239.311 42.0551C239.264 42.1056 239.245 42.1418 239.213 42.1634C239.002 42.3187 238.791 42.4776 238.577 42.6256C236.808 43.8498 234.955 44.9043 232.844 45.4423C232.339 45.5723 231.827 45.6518 231.3 45.5254C231.34 45.3484 231.481 45.3087 231.579 45.2293C232.818 44.2723 234.014 43.2648 234.984 42.0262C235.678 41.1379 235.674 40.3398 234.984 39.4515C234.435 38.7473 233.709 38.2923 232.847 38.0468C232.528 37.9565 232.186 37.9276 231.874 38.0359C229.737 38.7943 228.186 40.1629 227.463 42.344C227.361 42.6437 227.245 42.8062 226.933 42.8568C226.202 42.9687 225.494 42.9073 224.8 42.6545C224.495 42.5426 224.4 42.4198 224.582 42.0876C224.931 41.4556 225.203 40.7876 225.149 40.0365C225.112 39.5129 224.811 39.1084 224.342 38.9856C223.797 38.8448 223.267 38.8881 222.787 39.2023C221.991 39.7187 221.41 40.412 221.112 41.3184C220.905 41.9431 220.836 42.5859 221.178 43.1818C221.308 43.4129 221.243 43.5284 221.09 43.6801C220.56 44.2109 220.022 44.7273 219.448 45.2112C219.227 45.399 219.001 45.5795 218.733 45.6987C218.565 45.7709 218.391 45.8612 218.217 45.7168C218.046 45.5759 218.068 45.3773 218.122 45.2076C218.217 44.9115 218.333 44.6154 218.478 44.3373C218.9 43.5248 219.343 42.7231 219.768 41.9106C219.921 41.6218 220.099 41.2931 219.975 40.9754C219.561 39.8993 218.871 39.047 217.759 38.6101C217.454 38.4909 217.134 38.5198 216.876 38.769C216.237 39.3937 215.626 40.0437 215.226 40.8562C215.143 41.0223 215.048 41.174 214.918 41.3076C214.282 41.972 213.661 42.6473 213.01 43.2937C212.403 43.8931 211.786 44.4818 211.063 44.9476C210.939 45.027 210.783 45.1859 210.645 45.0523C210.529 44.9404 210.663 44.7779 210.736 44.6659C210.979 44.2795 211.245 43.904 211.495 43.5212C212.146 42.5209 212.919 41.6073 213.475 40.5456C213.711 40.0979 213.679 39.7043 213.381 39.3034C212.876 38.6245 212.251 38.0973 211.455 37.794C210.776 37.534 210.507 37.6062 210.046 38.1659C209.108 39.307 208.32 40.5529 207.738 41.8998C207.441 42.5931 206.979 42.7918 206.322 42.8062C206.216 42.8062 206.111 42.799 206.005 42.8062C205.657 42.8459 205.537 42.7304 205.533 42.3548C205.515 41.0765 204.955 39.7512 203.36 39.2962C203.226 39.2565 203.132 39.2168 203.081 39.0651C202.848 38.379 202.292 38.072 201.627 37.9456C200.617 37.7543 199.687 38.0179 198.866 38.5993C197.064 39.874 196.105 41.6651 195.684 43.7884C195.444 44.9909 195.767 46.0093 196.603 46.8904C197.22 47.5368 197.954 48.0062 198.801 48.3023C199.644 48.5984 200.461 48.5948 201.297 48.2518C202.343 47.822 203.299 47.2406 203.935 46.327C204.501 45.5145 205.192 45.1318 206.144 45.0415C206.431 45.0162 206.46 45.0704 206.427 45.3015C206.358 45.7854 206.55 46.1645 206.899 46.4895C207.462 47.0131 208.102 47.414 208.818 47.7065C209.402 47.9448 209.926 47.8618 210.405 47.479C210.805 47.1612 211.201 46.8326 211.586 46.4968C212.48 45.7204 213.246 44.8176 214.082 43.9834C214.151 43.9112 214.22 43.7956 214.336 43.8281C214.453 43.8606 214.405 43.9834 214.405 44.0665C214.413 45.8143 215.375 46.9626 216.785 47.8329C217.138 48.0495 217.512 48.1001 217.922 48.0243C218.667 47.887 219.307 47.5368 219.902 47.0962C220.811 46.4209 221.65 45.6662 222.438 44.8573C222.602 44.6912 222.722 44.6551 222.943 44.7526C223.619 45.0487 224.324 45.1318 225.065 45.027C225.832 44.9151 226.54 44.6551 227.212 44.2831C227.347 44.2109 227.456 44.0881 227.568 44.3373C228.201 45.7168 229.236 46.7351 230.504 47.5368C232.506 48.8006 233.756 48.7681 235.7 47.4284C237.574 46.1356 239.1 44.5106 240.361 42.6293C240.437 42.5137 240.477 42.3223 240.644 42.3331C241.037 42.3512 241.422 42.2429 241.818 42.2393C241.818 42.4379 241.712 42.5787 241.651 42.734C241.433 43.2648 241.167 43.7776 241.008 44.3337C240.666 45.5434 240.931 46.3306 241.938 47.0854C242.37 47.414 242.868 47.6198 243.362 47.8365C244.67 48.407 245.803 48.1795 246.839 47.2154C247.802 46.3162 248.663 45.3304 249.469 44.294C250.232 43.3118 250.904 42.2573 251.711 41.304C251.885 41.0981 251.969 41.0693 252.114 41.3365C252.376 41.824 252.772 42.1851 253.299 42.3837C253.931 42.6256 254.196 43.1131 254.236 43.7523C254.291 44.6443 254.029 45.4531 253.582 46.2151C253.106 47.0312 252.376 47.3851 251.449 47.3851C250.824 47.3851 250.349 47.0348 250.236 46.4245C250.163 46.0345 249.96 45.9154 249.607 45.9623C249.244 46.0129 249.059 46.244 249.091 46.6195C249.124 47.0131 249.299 47.3526 249.556 47.6379C250.585 48.7609 251.893 49.1545 253.353 48.8656C255.886 48.3637 257.422 46.8145 257.935 44.2831C257.942 44.247 257.949 44.2109 257.956 44.1748C258.033 43.727 257.967 43.1529 257.942 42.9506L257.949 42.9579ZM201.722 45.3448C201.257 45.8323 200.763 46.2801 200.134 46.5473C199.509 46.8145 199.084 46.5618 198.997 45.8793C198.935 45.3737 199.059 44.8934 199.226 44.424C199.473 43.7379 199.796 43.0951 200.272 42.4668C200.399 42.8531 200.49 43.1926 200.625 43.5104C200.861 44.0845 201.206 44.5937 201.686 44.9981C201.82 45.1137 201.864 45.1931 201.722 45.3412V45.3448ZM230.402 44.3734C230.337 44.424 230.25 44.5179 230.163 44.442C230.072 44.3626 230.064 44.2326 230.057 44.0918C230.083 43.8354 230.17 43.5754 230.315 43.337C231.042 42.1526 232.059 41.2931 233.309 40.6901C233.345 40.672 233.382 40.6612 233.421 40.6504C233.585 40.5926 233.778 40.5059 233.901 40.6431C234.039 40.7984 233.89 40.9681 233.788 41.0981C232.811 42.3404 231.667 43.4201 230.402 44.3698V44.3734Z" fill="white"/>
<path d="M198.892 0.220502C203.582 0.202447 208.095 1.033 212.334 3.10217C214.656 4.23606 216.796 5.63717 218.518 7.57995C220.814 10.1691 222.046 13.2133 222.068 16.6655C222.104 22.3927 220.037 27.3327 216.04 31.4241C213.13 34.4033 209.482 36.1005 205.413 36.9058C201.202 37.7399 197.042 37.4547 192.937 36.2341C192.337 36.0572 192.479 35.9958 192.17 36.588C190.797 39.2097 189.761 41.9541 189.089 44.8322C188.846 45.8758 188.559 46.9158 188.657 48.0027C188.675 48.223 188.682 48.4505 188.741 48.6636C188.839 49.0174 188.693 49.1041 188.366 49.0969C187.534 49.0716 186.804 48.7574 186.121 48.3205C184.722 47.4286 184.337 46.3416 184.679 44.5108C185.209 41.6761 186.215 39.0075 187.389 36.3858C189.202 32.3377 191.019 28.2933 193.024 24.3355C193.674 23.0499 194.336 21.7716 195.149 20.5763C196.192 19.0488 197.987 18.388 199.785 18.8538C200.236 18.9694 200.258 19.0236 200.047 19.428C198.547 22.3097 197.268 25.2888 195.931 28.2463C194.993 30.3191 194.07 32.4027 193.14 34.4791C192.937 34.9341 192.937 34.9197 193.438 35.0352C196.668 35.7899 199.814 35.3855 202.917 34.3816C208.447 32.5905 212.509 29.0516 215.237 23.9961C216.364 21.9088 217.232 19.7024 217.534 17.3191C217.962 13.968 217.014 11.0574 214.671 8.61634C212.727 6.58689 210.296 5.33745 207.669 4.42745C204.574 3.35856 201.399 2.75189 198.107 2.93606C191.298 3.31522 185.572 6.01634 180.878 10.9166C180.769 11.0286 180.657 11.1405 180.526 11.2308C180.017 11.5774 179.563 11.4944 179.193 10.9961C178.502 10.0644 178.535 8.59467 179.349 7.76773C180.697 6.39911 182.15 5.14967 183.901 4.29745C185.681 3.43078 187.458 2.54967 189.307 1.82022C191.854 0.819947 194.503 0.325225 197.231 0.231336C197.784 0.21328 198.336 0.231336 198.888 0.231336L198.892 0.220502Z" fill="white"/>
<path d="M86.5026 41.6505C86.3537 41.1232 85.8777 40.9752 85.4744 41.3471C85.2237 41.5782 85.0094 41.8455 84.7987 42.1127C83.7777 43.3838 82.6878 44.5899 81.4307 45.6335C81.22 45.8105 80.9911 45.9657 80.7585 46.1138C80.6132 46.2077 80.4316 46.2727 80.2753 46.1644C80.1046 46.0488 80.0937 45.8538 80.1409 45.666C80.1954 45.4494 80.2499 45.2363 80.3117 45.0232C80.6968 43.7196 81.1582 42.4413 81.4852 41.1196C81.6596 40.4227 81.438 39.8882 80.8712 39.473C80.4788 39.1841 80.0537 38.953 79.5923 38.7832C78.4333 38.3535 78.139 38.433 77.3542 39.3755C76.2352 40.7152 75.2615 42.1632 74.1861 43.5391C73.9899 43.7919 73.8155 44.0699 73.4704 44.3046C73.6012 43.6474 73.7174 43.066 73.8301 42.481C74.1643 40.7405 73.3105 39.6644 71.9408 38.9963C71.3885 38.7291 71.0797 38.8446 70.7273 39.3466C70.324 39.9171 70.0588 40.578 70.0443 41.246C70.0188 42.4702 69.3612 43.2105 68.4384 43.8713C67.4865 44.5502 66.6 45.3158 65.521 45.7996C65.3611 45.8719 65.1685 45.9874 65.0087 45.8141C64.867 45.6624 64.9287 45.471 64.9941 45.2941C65.1758 44.8138 65.441 44.3769 65.6808 43.9291C66.1204 43.113 66.5782 42.3005 67.0106 41.4771C67.1632 41.1882 67.3412 40.8524 67.1813 40.5419C66.6436 39.5163 65.9497 38.6207 64.8415 38.1405C64.471 37.9816 64.0967 38.0249 63.7443 38.2344C63.2974 38.498 62.9269 38.8446 62.5672 39.213C61.1648 40.6538 59.9113 42.221 58.6215 43.7557C58.5271 43.8677 58.4544 44.0194 58.2691 44.0663C58.2073 43.9219 58.2291 43.7955 58.2582 43.6727C58.389 43.1382 58.5271 42.6074 58.6506 42.073C58.7051 41.831 58.8395 41.6541 59.0175 41.4844C60.7796 39.8341 62.4909 38.1296 64.1331 36.3566C66.6763 33.6121 69.1251 30.7882 71.2033 27.6719C72.0098 26.4621 72.7583 25.2127 73.1724 23.8044C73.3359 23.2519 73.3868 22.6957 73.118 22.1577C72.4858 20.9119 71.5448 19.9694 70.2695 19.3844C68.8671 18.7416 67.5265 18.7994 66.2658 19.7744C65.4483 20.4099 64.7725 21.1719 64.1585 21.9952C62.2365 24.5771 60.8051 27.4263 59.5407 30.3657C57.9821 33.9841 56.6523 37.6855 55.6568 41.4988C55.388 42.5207 55.3081 42.5966 54.2399 42.5894C54.189 42.5894 54.1345 42.5821 54.0837 42.5857C53.8475 42.6038 53.7422 42.5135 53.6986 42.2607C53.5532 41.4482 53.1972 40.7224 52.6449 40.0977C52.5832 40.0291 52.5214 39.9569 52.4851 39.8774C51.7257 38.2632 50.3669 37.6096 48.6593 37.476C47.2242 37.3641 45.7964 37.4327 44.3649 37.5374C43.9398 37.5699 43.5147 37.5952 43.0388 37.6277C43.4639 36.9777 43.878 36.3927 44.245 35.7788C46.8536 31.4238 48.7901 26.7655 50.4033 21.9771C51.3878 19.0521 52.0491 16.0549 52.0055 12.9421C51.9764 10.8982 51.6131 8.9338 50.6212 7.12463C49.2806 4.6763 47.2097 3.02963 44.6519 1.98963C40.8952 0.44769 36.9532 0.0649121 32.9567 0.595745C27.7067 1.2963 23.2343 3.67241 19.6665 7.52547C14.3112 13.3069 12.8106 20.0632 15.1214 27.578C16.3348 31.5249 18.8454 34.4716 22.6203 36.2952C25.3415 37.6132 28.1536 38.6352 31.1728 39.0685C31.0638 39.1263 30.9548 39.1696 30.8458 39.1877C27.8884 39.6716 24.9419 40.2132 22.0135 40.8452C17.1378 41.896 12.4074 43.3585 7.97124 45.666C6.59789 46.381 5.20638 47.0708 4.02196 48.0963C2.22717 49.6491 0.842923 51.4727 0.232547 53.7982C0.178049 54.0077 0.134451 54.2171 0.0944859 54.4302C0.0654204 54.6216 -0.17437 56.3657 0.257979 58.4024C1.3116 62.2049 4.12733 64.5521 8.0112 64.953C8.0766 64.9602 8.51985 64.9927 8.94493 64.9963C9.33732 64.9963 9.71154 64.971 9.7515 64.9674C12.916 64.7002 15.8698 63.7505 18.6528 62.2446C21.1888 60.8724 23.405 59.0524 25.6612 57.301C28.3462 55.2138 30.6496 52.7258 32.9385 50.2305C34.7733 48.2299 36.6553 46.2655 38.1776 44.0049C39.1077 42.6219 40.1032 41.2894 41.1241 39.9749C41.313 39.7294 41.5165 39.5921 41.8362 39.5669C42.3085 39.5307 42.7736 39.4296 43.2422 39.3791C44.1142 39.2888 44.9644 39.0324 45.8654 39.0974C45.8545 39.1444 45.8545 39.1877 45.8363 39.213C45.117 40.206 44.7427 41.3255 44.6156 42.528C44.4993 43.651 44.5357 44.7632 45.255 45.7202C46.1415 46.901 47.3005 47.7063 48.732 48.0999C49.3242 48.2624 49.9164 48.2913 50.5122 48.0602C51.8275 47.5583 52.7176 46.6266 53.3207 45.388C53.4006 45.2255 53.4442 45.0521 53.6731 45.0124C54.0473 44.951 54.4216 44.8716 54.7921 44.7849C54.9956 44.7344 55.0138 44.8319 55.0065 44.9871C54.9956 45.2869 54.9774 45.5902 54.9847 45.8899C54.992 46.428 55.2281 46.8505 55.7041 47.1177C56.6705 47.6594 58.3236 47.3849 59.0611 46.558C59.6134 45.9441 60.1547 45.3194 60.707 44.7019C61.0703 44.2938 61.4409 43.893 61.8369 43.456C61.8696 43.7052 61.8841 43.911 61.9241 44.1096C62.3528 46.1788 64.6744 48.1396 67.2976 47.4644C68.2313 47.2224 68.9979 46.7132 69.6991 46.0885C69.888 45.9224 69.9861 45.8791 70.1242 46.1427C70.3022 46.4857 70.582 46.753 70.9235 46.9371C72.4204 47.7424 72.7038 47.4896 73.5721 46.5796C74.6294 45.4746 75.4941 44.2252 76.3551 42.9721C76.4278 42.8638 76.475 42.7266 76.6676 42.6435C76.4423 43.4777 76.2389 44.2577 76.0463 45.0413C75.7992 46.0632 76.1517 46.7963 76.9655 47.3849C77.9719 48.1108 79.1127 48.4646 80.3298 48.6271C81.2563 48.7499 82.0447 48.508 82.6732 47.8002C84.0865 46.2041 85.3109 44.4744 86.3936 42.6435C86.5716 42.3402 86.5971 41.9971 86.5026 41.6541V41.6505ZM60.4599 37.6855C62.8542 33.2799 65.1576 28.8274 67.8317 24.5807C68.4893 23.5371 69.1614 22.508 69.9716 21.5727C70.1315 21.3849 70.3095 21.2044 70.5021 21.0527C70.8218 20.8035 71.0725 20.9191 71.127 21.3235C71.1706 21.6413 71.1015 21.9482 70.9998 22.248C70.6728 23.1905 70.2114 24.0716 69.7318 24.9419C68.0278 28.0366 65.9315 30.8713 63.8279 33.7024C62.8251 35.0494 61.7751 36.3566 60.6815 37.6313C60.598 37.7288 60.5108 37.8227 60.42 37.9238C60.3618 37.8155 60.4236 37.7505 60.4599 37.6891V37.6855ZM32.339 45.0702C28.4879 50.0571 23.9827 54.3327 18.5293 57.5646C16.1895 58.9513 13.7771 60.2044 11.1612 61.0096C10.0676 61.3455 8.9413 61.4574 7.80775 61.2444C5.76589 60.858 4.50881 59.4496 4.26175 57.3769C3.9057 54.4049 5.07559 52.0758 7.28093 50.1727C9.19926 48.5152 11.4337 47.3813 13.7553 46.4063C17.4357 44.8644 21.2723 43.8207 25.1199 42.8024C28.3861 41.9357 31.6814 41.228 35.0058 40.6249C35.1184 40.6032 35.2383 40.5996 35.449 40.578C34.3954 42.1416 33.4363 43.6546 32.339 45.0738V45.0702ZM40.7172 31.3371C39.6308 33.168 38.4174 34.9049 37.0767 36.5552C36.8769 36.8007 36.6516 36.9055 36.3428 36.9271C35.5944 36.9813 34.8459 37.0282 34.3773 37.0246C31.8558 37.0319 29.6686 36.7213 27.5832 35.8619C24.8874 34.7496 22.9145 32.8971 21.7011 30.243C20.6474 27.9391 19.7827 25.581 19.4122 23.0605C18.7291 18.3949 19.7827 14.1482 22.5367 10.3313C24.742 7.2763 27.5687 4.98325 31.2018 3.82408C34.5989 2.73713 38.0213 2.70463 41.353 4.08408C44.3467 5.3263 45.9344 7.68436 46.3922 10.8332C46.781 13.5127 46.3559 16.1307 45.6728 18.7091C44.5102 23.1074 43.0569 27.3938 40.7172 31.3371ZM50.6757 45.3338C50.4178 46.428 49.4114 46.8613 48.5067 46.1932C47.4422 45.4096 46.9299 44.3335 47.1806 43.0082C47.4204 41.7444 48.1325 40.8452 49.415 40.4696C49.4514 40.4588 49.4913 40.466 49.6112 40.4588C49.1825 41.1702 48.9899 41.8888 49.0662 42.6724C49.1571 43.6005 49.5967 44.3119 50.4178 44.7524C50.7048 44.9041 50.7375 45.0594 50.6721 45.341L50.6757 45.3338Z" fill="white"/>
</g>
<defs>
<clipPath id="clip0_40_188">
<rect width="258" height="65" fill="white"/>
</clipPath>
</defs>
</svg>
