<svg width="783" height="198" viewBox="0 0 783 198" fill="none" xmlns="http://www.w3.org/2000/svg">
<g opacity="0.4" clip-path="url(#clip0_40_724)">
<path d="M359.91 0C361.784 0.429 363.714 0.286 365.61 0.473C373.296 1.199 380.76 2.761 387.762 6.083C401.335 12.529 409.175 23.265 411.204 38.082C414.06 58.96 404.5 82.764 388.159 95.821C380.485 101.948 371.675 105.776 362.269 108.328C354.749 110.374 347.086 111.716 339.357 112.618C339.169 112.64 338.971 112.684 338.651 112.739C342.576 115.973 343.05 120.516 343.547 124.971C344.726 135.652 350.063 143.77 358.961 149.49C366.503 154.341 374.034 152.68 380.529 146.795C381.179 146.201 380.871 146.025 380.242 145.794C377.905 144.925 375.81 143.627 373.924 141.988C370.649 139.161 369.095 135.674 369.48 131.307C369.944 126.049 371.62 121.341 375.446 117.59C378.886 114.213 383.616 113.41 387.31 115.445C388.203 115.929 389.019 116.534 389.46 117.458C389.813 118.217 390.331 118.547 391.114 118.8C395.646 120.241 397.906 123.607 398.711 128.073C398.888 129.041 399.218 129.382 400.156 129.305C401.104 129.228 402.218 129.558 402.956 128.986C403.706 128.403 403.265 127.27 403.408 126.379C404.544 119.24 406.529 112.321 408.866 105.49C412.924 93.632 417.732 82.104 424.447 71.456C426.817 67.705 429.408 64.108 432.683 61.083C435.043 58.894 437.59 56.826 440.953 56.639C446.047 56.353 450.788 57.585 454.835 60.841C457.14 62.689 457.426 65.23 456.875 67.914C455.905 72.622 453.744 76.846 451.329 80.938C443.026 94.963 433.224 107.866 421.966 119.658C420.124 121.594 418.184 123.431 416.265 125.301C415.967 125.587 415.747 125.895 415.604 126.28C414.578 129.096 413.718 131.945 413.564 134.97C413.542 135.366 413.531 135.762 413.564 136.169C413.619 137.093 413.916 137.94 414.843 138.303C415.703 138.655 416.375 138.105 416.982 137.566C419.97 134.926 421.922 131.549 423.719 128.062C423.939 127.644 423.774 127.292 423.664 126.918C421.833 120.857 427.578 116.523 432.044 117.722C434.69 118.426 437.039 119.273 437.711 122.287C438.053 123.838 437.888 125.4 437.336 126.874C436.973 127.842 437.303 128.15 438.185 128.271C439.299 128.436 440.413 128.546 441.515 128.271C442.949 127.93 443.963 127.391 444.526 125.708C446.19 120.747 449.62 117.227 454.449 115.148C455.728 114.598 457.073 114.499 458.43 114.884C461.55 115.775 464.207 117.381 466.203 119.966C468.243 122.606 468.32 124.652 466.457 127.424C464.108 130.933 461.142 133.881 457.978 136.642C457.68 136.895 457.393 137.159 456.996 137.5C458.507 138.138 459.918 137.808 461.274 137.5C466.777 136.213 471.573 133.474 476.094 130.196C477.163 129.426 478.167 128.568 479.225 127.787C479.887 127.292 479.986 126.995 479.093 126.632C477.593 126.027 476.292 125.114 475.289 123.816C473.624 121.66 473.492 119.482 474.87 117.161C475.322 116.402 475.807 115.676 476.425 115.049C478.398 113.014 481.045 112.585 483.129 113.971C485.268 115.401 486.128 118.437 485.047 120.879C484.827 121.385 484.54 121.88 484.198 122.309C483.724 122.892 483.967 123.112 484.54 123.299C485.422 123.574 486.304 123.442 487.142 123.2C488.951 122.661 490.682 121.957 492.005 120.516C492.457 120.021 493.063 119.977 493.659 120.021C495.798 120.186 497.672 121 499.315 122.364C500.892 123.673 501.421 125.268 500.727 127.27C499.822 129.91 498.621 132.429 497.43 134.948C497.022 135.806 496.658 136.697 496.261 137.566C495.842 138.501 495.919 139.414 496.305 140.338C497.264 142.648 498.356 143.099 500.55 141.922C506.449 138.754 510.97 134.211 514.046 128.271C514.995 126.434 515.998 124.63 516.593 122.617C516.913 121.55 516.483 121.517 515.634 121.616C511.852 122.056 508.224 121.506 504.85 119.713C503.009 118.734 502.292 117.04 502.877 115.214C503.77 112.431 507.056 111.595 509.107 113.696C511.345 115.984 514.201 116.49 517.189 116.743C518.049 116.82 518.005 116.116 518.126 115.621C519.339 110.627 520.706 105.677 522.283 100.793C525.778 89.947 529.616 79.222 535.261 69.256C537.213 65.813 539.286 62.458 542.329 59.818C545.052 57.464 547.919 57.046 550.698 58.575C553.057 59.873 553.598 61.578 552.341 63.954C551.911 64.768 551.415 65.538 550.896 66.297C549.331 68.607 547.699 70.873 546.166 73.205C539.164 83.886 534.379 95.579 530.365 107.635C529.704 109.637 529.064 111.65 528.447 113.663C528.325 114.059 527.929 114.532 528.303 114.873C528.59 115.137 529.053 114.829 529.428 114.752C532.626 114.07 535.768 113.102 539.087 113.212C540.84 113.267 542.208 114.455 542.483 116.171C542.737 117.777 541.778 119.405 540.234 119.977C539.374 120.296 538.514 120.186 537.643 119.955C534.258 119.053 530.828 119.438 527.399 119.647C526.87 119.68 526.771 120.01 526.649 120.417C524.433 127.743 522.526 135.135 521.941 142.802C521.919 143.121 521.853 143.429 521.82 143.748C521.577 145.541 521.5 147.312 522.493 148.962C522.923 149.677 523.143 150.502 523.275 151.338C523.485 152.614 523.044 153.384 521.754 153.604C517.663 154.297 515.579 153.164 514.09 149.479C513.252 147.389 513.264 145.2 513.451 143C513.473 142.78 513.495 142.56 513.539 142.12C512.966 142.648 512.536 143.044 512.106 143.44C506.394 148.676 499.856 149.314 493.229 145.266C491.299 144.089 489.667 142.571 488.146 140.932C485.874 138.49 485.643 135.608 486.381 132.55C486.778 130.933 487.263 129.327 487.738 127.578C486.514 127.732 485.389 127.897 484.242 127.886C483.559 127.886 483.504 128.524 483.272 128.964C480.416 134.442 476.645 139.139 471.882 143.121C467.35 146.905 462.686 147.598 457.426 144.749C453.148 142.439 449.366 139.601 446.389 135.74C445.683 134.816 445.055 133.837 444.658 132.748C444.437 132.154 444.239 132 443.665 132.407C441.295 134.09 438.693 134.915 435.76 134.255C435.109 134.112 434.833 134.464 434.547 134.937C433.08 137.368 431.371 139.623 429.552 141.79C426.806 145.057 423.443 146.058 419.363 144.782C413.983 143.099 409.539 140.063 405.989 135.718C405.536 135.168 405.217 134.992 404.522 135.289C402.603 136.103 400.575 136.554 398.513 136.829C397.895 136.917 397.52 137.126 397.223 137.687C395.414 141.075 392.922 143.77 389.438 145.541C388.402 146.069 387.608 147.059 386.682 147.818C382.326 151.371 377.596 154.176 371.961 155.144C367.33 155.936 362.821 155.243 358.388 153.857C352.158 151.899 346.656 148.698 341.893 144.232C336.953 139.612 334.483 133.87 334.042 127.182C333.954 125.84 333.755 124.487 333.469 123.167C332.289 117.953 328.341 114.785 322.927 114.62C321.009 114.565 319.101 114.708 317.183 114.84C316.499 114.884 316.234 115.28 315.959 115.786C311.681 123.838 307.38 131.89 303.102 139.942C301.283 143.363 299.607 146.839 298.879 150.689C298.824 150.964 298.78 151.239 298.758 151.514C298.548 153.505 297.887 153.989 295.902 153.516C294.612 153.208 293.41 152.68 292.285 151.976C289.782 150.414 287.577 148.555 286.144 145.915C285.625 144.969 285.559 144.1 285.967 143.077C287.985 137.962 290.267 132.968 292.594 127.985C303.488 104.709 314.845 81.675 327.382 59.224C330.436 53.757 333.579 48.345 337.217 43.241C339.401 40.172 342.003 37.532 345.542 36.058C349.964 34.21 354.474 34.199 358.972 35.838C359.16 35.904 359.336 36.003 359.513 36.091C360.56 36.652 360.604 36.916 359.799 37.741C355.642 41.976 352.125 46.706 348.861 51.634C342.764 60.819 337.647 70.543 332.84 80.443C328.705 88.935 325.033 97.625 321.141 106.227C321.064 106.403 320.998 106.59 320.854 106.975C322.983 106.799 324.978 106.711 326.963 106.469C338.596 105.072 349.81 102.047 360.626 97.57C372.072 92.829 380.396 84.59 386.88 74.294C391.754 66.561 395.161 58.234 396.517 49.159C397.675 41.349 397.168 33.726 393.397 26.598C389.791 19.8 384.013 15.433 377.078 12.474C368.731 8.91 360.042 7.854 351.044 9.053C339.853 10.549 329.444 14.234 319.763 19.998C317.734 21.208 315.904 22.671 314.228 24.354C312.089 26.51 309.431 26.774 307.171 25.212C305.153 23.804 304.745 21.89 306.123 19.833C307.358 17.974 309.067 16.566 310.92 15.389C323.049 7.711 336.148 2.64 350.416 0.737C352.379 0.473 354.363 0.275 356.326 0.044C357.528 0.044 358.719 0.044 359.921 0.044L359.91 0ZM418.603 114.895C418.68 114.95 418.768 115.005 418.845 115.06C419.242 114.62 419.65 114.18 420.036 113.74C428.604 103.862 436.09 93.192 442.96 82.093C445.419 78.122 447.668 74.052 449.201 69.619C449.565 68.563 449.873 67.485 449.818 66.352C449.785 65.648 449.609 64.955 448.925 64.647C448.297 64.361 447.778 64.801 447.315 65.186C446.951 65.494 446.598 65.824 446.279 66.176C444.404 68.255 442.838 70.565 441.35 72.93C433.444 85.492 426.696 98.681 420.047 111.925C419.551 112.904 419.088 113.905 418.603 114.895ZM383.66 125.015C381.091 126.665 379.128 128.788 378.301 131.78C377.133 136.026 379.812 139.909 384.201 140.349C384.983 140.426 385.832 140.47 386.417 139.777C387.101 138.952 387.74 138.083 388.413 137.236C388.788 136.763 388.821 136.455 388.159 136.169C387.045 135.696 386.075 135.003 385.27 134.09C382.899 131.417 382.458 128.392 383.66 125.015ZM452.685 132.77C452.751 133.342 452.696 134.101 453.258 134.354C453.732 134.574 454.129 133.925 454.504 133.595C457.426 131.032 459.951 128.117 462.19 124.938C462.465 124.553 462.664 124.113 462.873 123.684C463.028 123.387 463.094 123.068 462.851 122.782C462.587 122.474 462.223 122.463 461.859 122.606C461.484 122.749 461.098 122.859 460.745 123.046C457.492 124.784 454.967 127.259 453.313 130.581C452.972 131.263 452.762 131.989 452.685 132.77Z" fill="white"/>
<path d="M782.846 130.856C782.206 127.358 779.681 125.873 776.506 125.081C775.458 124.817 774.411 124.564 773.418 124.157C772.327 123.706 772.227 122.958 773.021 122.1C773.65 121.418 774.466 120.978 775.249 120.505C776.373 119.834 777.575 119.262 778.545 118.349C779.703 117.26 779.648 116.215 778.38 115.258C777.266 114.433 776.031 113.927 774.62 113.905C771.4 113.85 768.732 115.115 766.417 117.26C763.903 119.603 761.741 122.287 759.459 124.839C755.159 129.624 750.66 134.189 745.533 138.116C744.673 138.776 743.78 139.381 742.71 139.656C741.751 139.898 741.31 139.469 741.563 138.512C741.707 137.984 741.938 137.456 742.214 136.983C743.746 134.233 745.378 131.538 746.834 128.755C748.377 125.818 747.782 124.014 744.926 122.265C744.099 121.759 743.217 121.374 742.269 121.209C741.034 120.989 739.953 120.989 738.84 121.968C737.241 123.365 735.212 124.102 733.084 124.421C732.621 124.487 732.114 124.476 731.662 124.377C731.033 124.245 730.746 123.915 731.32 123.321C731.904 122.716 732.378 122.034 732.731 121.264C733.713 119.075 733.26 116.435 731.662 115.104C730.085 113.795 727.56 113.872 725.542 115.346C724.175 116.347 723.072 117.612 722.201 119.053C720.768 121.429 721.109 123.915 723.039 125.928C723.954 126.885 725.123 127.457 726.281 128.106C726.137 128.26 726.082 128.37 725.983 128.436C725.343 128.909 724.704 129.393 724.053 129.844C718.684 133.573 713.06 136.785 706.654 138.424C705.121 138.82 703.567 139.062 701.968 138.677C702.089 138.138 702.519 138.017 702.817 137.775C706.577 134.86 710.204 131.791 713.148 128.018C715.254 125.312 715.243 122.881 713.148 120.175C711.483 118.03 709.278 116.644 706.665 115.896C705.695 115.621 704.658 115.533 703.71 115.863C697.226 118.173 692.518 122.342 690.324 128.986C690.015 129.899 689.662 130.394 688.714 130.548C686.498 130.889 684.348 130.702 682.242 129.932C681.315 129.591 681.029 129.217 681.58 128.205C682.639 126.28 683.466 124.245 683.3 121.957C683.19 120.362 682.275 119.13 680.852 118.756C679.198 118.327 677.589 118.459 676.133 119.416C673.718 120.989 671.954 123.101 671.05 125.862C670.422 127.765 670.212 129.723 671.248 131.538C671.645 132.242 671.447 132.594 670.984 133.056C669.374 134.673 667.742 136.246 666 137.72C665.327 138.292 664.644 138.842 663.828 139.205C663.321 139.425 662.791 139.7 662.262 139.26C661.744 138.831 661.81 138.226 661.975 137.709C662.262 136.807 662.615 135.905 663.056 135.058C664.335 132.583 665.68 130.141 666.97 127.666C667.433 126.786 667.974 125.785 667.599 124.817C666.342 121.539 664.247 118.943 660.873 117.612C659.946 117.249 658.976 117.337 658.193 118.096C656.253 119.999 654.4 121.979 653.187 124.454C652.934 124.96 652.647 125.422 652.25 125.829C650.321 127.853 648.435 129.91 646.461 131.879C644.62 133.705 642.745 135.498 640.551 136.917C640.176 137.159 639.702 137.643 639.283 137.236C638.93 136.895 639.338 136.4 639.559 136.059C640.298 134.882 641.103 133.738 641.863 132.572C643.837 129.525 646.186 126.742 647.873 123.508C648.589 122.144 648.49 120.945 647.586 119.724C646.053 117.656 644.157 116.05 641.742 115.126C639.68 114.334 638.864 114.554 637.464 116.259C634.619 119.735 632.226 123.53 630.462 127.633C629.558 129.745 628.158 130.35 626.162 130.394C625.842 130.394 625.522 130.372 625.203 130.394C624.144 130.515 623.78 130.163 623.769 129.019C623.714 125.125 622.016 121.088 617.175 119.702C616.767 119.581 616.481 119.46 616.326 118.998C615.621 116.908 613.934 115.973 611.916 115.588C608.851 115.005 606.028 115.808 603.536 117.579C598.067 121.462 595.156 126.918 593.877 133.386C593.149 137.049 594.13 140.151 596.667 142.835C598.541 144.804 600.768 146.234 603.337 147.136C605.896 148.038 608.376 148.027 610.913 146.982C614.088 145.673 616.988 143.902 618.918 141.119C620.638 138.644 622.733 137.478 625.622 137.203C626.493 137.126 626.581 137.291 626.482 137.995C626.272 139.469 626.857 140.624 627.915 141.614C629.624 143.209 631.565 144.43 633.737 145.321C635.512 146.047 637.1 145.794 638.555 144.628C639.768 143.66 640.97 142.659 642.139 141.636C644.851 139.271 647.178 136.521 649.714 133.98C649.924 133.76 650.133 133.408 650.486 133.507C650.839 133.606 650.695 133.98 650.695 134.233C650.717 139.557 653.639 143.055 657.918 145.706C658.987 146.366 660.123 146.52 661.369 146.289C663.629 145.871 665.57 144.804 667.378 143.462C670.135 141.405 672.682 139.106 675.075 136.642C675.571 136.136 675.935 136.026 676.607 136.323C678.658 137.225 680.797 137.478 683.047 137.159C685.373 136.818 687.523 136.026 689.563 134.893C689.971 134.673 690.302 134.299 690.644 135.058C692.562 139.26 695.705 142.362 699.553 144.804C705.628 148.654 709.422 148.555 715.321 144.474C721.01 140.536 725.641 135.586 729.467 129.855C729.699 129.503 729.82 128.92 730.327 128.953C731.518 129.008 732.687 128.678 733.889 128.667C733.889 129.272 733.569 129.701 733.382 130.174C732.72 131.791 731.915 133.353 731.43 135.047C730.394 138.732 731.198 141.13 734.253 143.429C735.565 144.43 737.076 145.057 738.575 145.717C742.545 147.455 745.985 146.762 749.127 143.825C752.049 141.086 754.662 138.083 757.11 134.926C759.426 131.934 761.466 128.722 763.914 125.818C764.443 125.191 764.696 125.103 765.137 125.917C765.931 127.402 767.133 128.502 768.732 129.107C770.651 129.844 771.456 131.329 771.577 133.276C771.742 135.993 770.948 138.457 769.592 140.778C768.148 143.264 765.931 144.342 763.12 144.342C761.223 144.342 759.779 143.275 759.437 141.416C759.216 140.228 758.599 139.865 757.529 140.008C756.427 140.162 755.864 140.866 755.964 142.01C756.063 143.209 756.592 144.243 757.375 145.112C760.495 148.533 764.465 149.732 768.897 148.852C776.583 147.323 781.247 142.604 782.802 134.893C782.824 134.783 782.846 134.673 782.868 134.563C783.099 133.199 782.901 131.45 782.824 130.834L782.846 130.856ZM612.203 138.127C610.791 139.612 609.292 140.976 607.384 141.79C605.488 142.604 604.197 141.834 603.933 139.755C603.745 138.215 604.12 136.752 604.628 135.322C605.377 133.232 606.359 131.274 607.803 129.36C608.189 130.537 608.465 131.571 608.873 132.539C609.589 134.288 610.637 135.839 612.092 137.071C612.5 137.423 612.633 137.665 612.203 138.116V138.127ZM699.244 135.168C699.046 135.322 698.781 135.608 698.517 135.377C698.241 135.135 698.219 134.739 698.197 134.31C698.274 133.529 698.539 132.737 698.98 132.011C701.185 128.403 704.272 125.785 708.065 123.948C708.176 123.893 708.286 123.86 708.407 123.827C708.903 123.651 709.488 123.387 709.863 123.805C710.282 124.278 709.829 124.795 709.521 125.191C706.555 128.975 703.081 132.264 699.244 135.157V135.168Z" fill="white"/>
<path d="M603.613 0.671042C617.848 0.616042 631.543 3.14604 644.41 9.44904C651.456 12.903 657.951 17.171 663.177 23.089C670.146 30.976 673.884 40.249 673.95 50.765C674.06 68.211 667.786 83.259 655.657 95.722C646.825 104.797 635.755 109.967 623.405 112.42C610.626 114.961 598.001 114.092 585.541 110.374C583.722 109.835 584.152 109.648 583.214 111.452C579.046 119.438 575.904 127.798 573.864 136.565C573.125 139.744 572.254 142.912 572.552 146.223C572.607 146.894 572.629 147.587 572.806 148.236C573.103 149.314 572.662 149.578 571.67 149.556C569.145 149.479 566.929 148.522 564.856 147.191C560.611 144.474 559.442 141.163 560.478 135.586C562.088 126.951 565.142 118.822 568.704 110.836C574.206 98.505 579.719 86.185 585.806 74.129C587.779 70.213 589.786 66.319 592.256 62.678C595.421 58.025 600.868 56.012 606.326 57.431C607.693 57.783 607.759 57.948 607.119 59.18C602.566 67.958 598.684 77.033 594.627 86.042C591.782 92.356 588.981 98.703 586.158 105.028C585.541 106.414 585.541 106.37 587.063 106.722C596.865 109.021 606.414 107.789 615.83 104.731C632.612 99.275 644.94 88.495 653.22 73.095C656.639 66.737 659.274 60.016 660.189 52.756C661.49 42.548 658.612 33.682 651.5 26.246C645.601 20.064 638.225 16.258 630.253 13.486C620.858 10.23 611.221 8.38204 601.231 8.94304C580.568 10.098 563.191 18.326 548.945 33.253C548.614 33.594 548.272 33.935 547.875 34.21C546.331 35.266 544.953 35.013 543.828 33.495C541.733 30.657 541.833 26.18 544.303 23.661C548.393 19.492 552.804 15.686 558.119 13.09C563.521 10.45 568.913 7.76604 574.526 5.54404C582.255 2.49704 590.293 0.990042 598.574 0.704042C600.25 0.649042 601.926 0.704042 603.602 0.704042L603.613 0.671042Z" fill="white"/>
<path d="M262.525 126.874C262.073 125.268 260.629 124.817 259.405 125.95C258.644 126.654 257.994 127.468 257.354 128.282C254.256 132.154 250.948 135.828 247.133 139.007C246.493 139.546 245.798 140.019 245.093 140.47C244.652 140.756 244.1 140.954 243.626 140.624C243.108 140.272 243.075 139.678 243.218 139.106C243.384 138.446 243.549 137.797 243.737 137.148C244.905 133.177 246.306 129.283 247.298 125.257C247.827 123.134 247.155 121.506 245.435 120.241C244.244 119.361 242.954 118.657 241.553 118.14C238.036 116.831 237.143 117.073 234.761 119.944C231.365 124.025 228.41 128.436 225.146 132.627C224.551 133.397 224.022 134.244 222.974 134.959C223.371 132.957 223.724 131.186 224.066 129.404C225.08 124.102 222.489 120.824 218.332 118.789C216.656 117.975 215.719 118.327 214.649 119.856C213.425 121.594 212.62 123.607 212.576 125.642C212.499 129.371 210.503 131.626 207.703 133.639C204.814 135.707 202.123 138.039 198.848 139.513C198.363 139.733 197.779 140.085 197.294 139.557C196.864 139.095 197.051 138.512 197.25 137.973C197.801 136.51 198.606 135.179 199.334 133.815C200.668 131.329 202.057 128.854 203.369 126.346C203.832 125.466 204.373 124.443 203.887 123.497C202.256 120.373 200.15 117.645 196.787 116.182C195.662 115.698 194.526 115.83 193.457 116.468C192.1 117.271 190.976 118.327 189.884 119.449C185.628 123.838 181.824 128.612 177.91 133.287C177.623 133.628 177.402 134.09 176.84 134.233C176.653 133.793 176.719 133.408 176.807 133.034C177.204 131.406 177.623 129.789 177.998 128.161C178.163 127.424 178.571 126.885 179.111 126.368C184.459 121.341 189.653 116.149 194.636 110.748C202.355 102.388 209.787 93.786 216.094 84.293C218.541 80.608 220.813 76.802 222.07 72.512C222.566 70.829 222.72 69.135 221.904 67.496C219.986 63.701 217.13 60.83 213.26 59.048C209.004 57.09 204.935 57.266 201.109 60.236C198.628 62.172 196.577 64.493 194.714 67.001C188.881 74.866 184.536 83.545 180.699 92.499C175.969 103.521 171.933 114.796 168.912 126.412C168.096 129.525 167.854 129.756 164.612 129.734C164.457 129.734 164.292 129.712 164.138 129.723C163.421 129.778 163.101 129.503 162.969 128.733C162.528 126.258 161.447 124.047 159.771 122.144C159.584 121.935 159.396 121.715 159.286 121.473C156.982 116.556 152.858 114.565 147.675 114.158C143.32 113.817 138.987 114.026 134.642 114.345C133.352 114.444 132.062 114.521 130.618 114.62C131.908 112.64 133.165 110.858 134.278 108.988C142.195 95.722 148.072 81.532 152.968 66.946C155.956 58.036 157.963 48.906 157.831 39.424C157.742 33.198 156.64 27.214 153.63 21.703C149.561 14.245 143.276 9.22898 135.513 6.06098C124.112 1.36398 112.149 0.197984 100.02 1.81498C84.0867 3.94898 70.5133 11.187 59.6855 22.924C43.4327 40.535 38.8788 61.116 45.8915 84.007C49.5743 96.03 57.1935 105.006 68.6498 110.561C76.9085 114.576 85.4429 117.689 94.6058 119.009C94.275 119.185 93.9442 119.317 93.6134 119.372C84.638 120.846 75.6956 122.496 66.8084 124.421C52.0111 127.622 37.6549 132.077 24.1918 139.106C20.0238 141.284 15.8008 143.385 12.2062 146.509C6.75918 151.239 2.55816 156.794 0.705742 163.878C0.540347 164.516 0.408032 165.154 0.286742 165.803C0.198532 166.386 -0.529204 171.699 0.782926 177.903C3.98056 189.486 12.5259 196.636 24.3131 197.857C24.5115 197.879 25.8567 197.978 27.1468 197.989C28.3377 197.989 29.4734 197.912 29.5947 197.901C39.1986 197.087 48.163 194.194 56.6091 189.607C64.3055 185.427 71.0315 179.883 77.8789 174.548C86.0273 168.19 93.018 160.611 99.9646 153.01C105.533 146.916 111.244 140.932 115.864 134.046C118.687 129.833 121.708 125.774 124.807 121.77C125.38 121.022 125.998 120.604 126.968 120.527C128.401 120.417 129.813 120.109 131.235 119.955C133.881 119.68 136.462 118.899 139.196 119.097C139.163 119.24 139.163 119.372 139.108 119.449C136.925 122.474 135.789 125.884 135.403 129.547C135.05 132.968 135.161 136.356 137.344 139.271C140.034 142.868 143.552 145.321 147.896 146.52C149.693 147.015 151.49 147.103 153.299 146.399C157.29 144.87 159.992 142.032 161.822 138.259C162.065 137.764 162.197 137.236 162.892 137.115C164.027 136.928 165.163 136.686 166.288 136.422C166.905 136.268 166.96 136.565 166.938 137.038C166.905 137.951 166.85 138.875 166.872 139.788C166.894 141.427 167.611 142.714 169.055 143.528C171.988 145.178 177.005 144.342 179.244 141.823C180.92 139.953 182.563 138.05 184.239 136.169C185.341 134.926 186.466 133.705 187.668 132.374C187.767 133.133 187.811 133.76 187.932 134.365C189.234 140.668 196.279 146.641 204.24 144.584C207.074 143.847 209.401 142.296 211.529 140.393C212.102 139.887 212.4 139.755 212.819 140.558C213.359 141.603 214.208 142.417 215.245 142.978C219.787 145.431 220.647 144.661 223.283 141.889C226.491 138.523 229.116 134.717 231.729 130.9C231.949 130.57 232.093 130.152 232.677 129.899C231.994 132.44 231.376 134.816 230.792 137.203C230.042 140.316 231.111 142.549 233.581 144.342C236.636 146.553 240.098 147.631 243.792 148.126C246.603 148.5 248.996 147.763 250.904 145.607C255.193 140.745 258.909 135.476 262.195 129.899C262.735 128.975 262.812 127.93 262.525 126.885V126.874ZM183.489 114.796C190.755 101.376 197.746 87.813 205.861 74.877C207.857 71.698 209.897 68.563 212.356 65.714C212.841 65.142 213.381 64.592 213.966 64.13C214.936 63.371 215.697 63.723 215.862 64.955C215.994 65.923 215.785 66.858 215.476 67.771C214.484 70.642 213.083 73.326 211.628 75.977C206.457 85.404 200.094 94.039 193.71 102.663C190.667 106.766 187.48 110.748 184.161 114.631C183.908 114.928 183.643 115.214 183.368 115.522C183.191 115.192 183.379 114.994 183.489 114.807V114.796ZM98.1452 137.291C86.4573 152.482 72.7847 165.506 56.2342 175.351C49.1333 179.575 41.8118 183.392 33.8729 185.845C30.554 186.868 27.1358 187.209 23.6956 186.56C17.4988 185.383 13.6837 181.093 12.9339 174.779C11.8533 165.726 15.4038 158.631 22.0968 152.834C27.9187 147.785 34.6998 144.331 41.7457 141.361C52.9153 136.664 64.5591 133.485 76.2359 130.383C86.1486 127.743 96.1495 125.587 106.239 123.75C106.58 123.684 106.944 123.673 107.584 123.607C104.386 128.37 101.475 132.979 98.1452 137.302V137.291ZM123.572 95.458C120.275 101.035 116.592 106.326 112.524 111.353C111.917 112.101 111.233 112.42 110.296 112.486C108.025 112.651 105.753 112.794 104.331 112.783C96.6787 112.805 90.0409 111.859 83.7118 109.241C75.5303 105.853 69.543 100.21 65.8602 92.125C62.6626 85.107 60.0383 77.924 58.9136 70.246C56.8407 56.034 60.0383 43.098 68.3962 31.471C75.0892 22.165 83.6677 15.18 94.694 11.649C105.004 8.33798 115.39 8.23898 125.501 12.441C134.587 16.225 139.406 23.408 140.795 33C141.975 41.162 140.685 49.137 138.612 56.991C135.083 70.389 130.673 83.446 123.572 95.458ZM153.795 138.094C153.012 141.427 149.958 142.747 147.212 140.712C143.982 138.325 142.427 135.047 143.188 131.01C143.915 127.16 146.077 124.421 149.969 123.277C150.079 123.244 150.2 123.266 150.564 123.244C149.263 125.411 148.679 127.6 148.91 129.987C149.186 132.814 150.52 134.981 153.012 136.323C153.883 136.785 153.982 137.258 153.784 138.116L153.795 138.094Z" fill="white"/>
</g>
<defs>
<clipPath id="clip0_40_724">
<rect width="783" height="198" fill="white"/>
</clipPath>
</defs>
</svg>
