<svg width="459" height="82" viewBox="0 0 459 82" fill="none" xmlns="http://www.w3.org/2000/svg">
<path d="M458.084 25.3068C458.032 25.252 457.944 25.214 457.973 25.108C457.948 25.0538 457.923 24.9997 457.897 24.9545C457.916 24.9105 457.927 24.8663 457.928 24.8218C457.744 24.3716 457.46 24.0166 456.975 23.8699L456.913 23.8682L456.878 23.8316C456.526 23.7152 456.161 23.7319 455.803 23.7934C455.084 24.0588 454.845 24.6756 454.667 25.3296C454.538 25.4775 454.622 25.6845 454.52 25.842C454.43 26.5074 454.085 27.0856 453.864 27.7029C453.672 28.2408 453.356 28.7041 452.936 29.1023C451.913 30.0895 450.687 30.7061 449.316 31.0516C448.77 31.1881 448.216 31.2888 447.661 31.4072C447.59 31.4053 447.518 31.439 447.446 31.4548C446.237 31.4219 445.032 31.585 443.815 31.5252C442.074 31.4333 440.813 30.7044 440.155 29.0482C440.097 28.9042 440.038 28.7601 439.971 28.6247C439.523 27.7667 438.82 27.4448 437.855 27.5966C437.265 27.6963 436.725 27.9309 436.168 28.1384C434.667 28.6852 433.2 29.3219 431.65 29.7072C430.495 29.9874 429.36 29.8585 428.65 28.8419C428.067 28.0158 427.338 27.6755 426.426 27.5349C425.921 27.4499 425.397 27.4 424.912 27.2533C424.039 26.9891 423.478 27.3389 423.023 28.0388C422.521 28.8087 421.881 29.4502 421.061 29.8552C419.699 30.5305 418.22 30.9265 416.768 31.35C416.194 31.5125 415.838 31.2 415.657 30.6609C415.501 30.1936 415.434 29.6932 415.447 29.2128C415.477 27.7889 414.715 27.0381 413.444 26.6562C413.189 26.5425 412.931 26.5532 412.671 26.6263C412.276 26.758 411.941 26.9804 411.631 27.2658C410.664 28.1299 409.82 29.0685 409.175 30.2085C408.315 31.7343 406.987 32.4906 405.195 32.2994C404.707 32.2505 404.222 32.1215 403.741 32.153C402.181 32.253 401.178 31.5223 400.44 30.2022C399.778 29.0178 398.689 28.8279 397.556 29.5984C397.257 29.804 396.984 30.0369 396.719 30.2879C395.898 31.0402 395.009 31.6927 394.059 32.2634C392.892 32.9707 392.322 32.6703 392.208 31.3138C392.121 30.2696 391.677 29.9103 390.642 30.0068C389.724 30.0887 388.896 30.4223 388.076 30.8095C386.391 31.6095 384.632 32.176 382.768 32.339C381.888 32.3151 381.008 32.2911 380.12 32.258C379.435 31.9366 379.202 31.3338 379.105 30.6366C379.024 30.0289 378.852 29.4722 378.21 29.2143C377.79 28.9714 377.37 29.0134 376.939 29.1798C375.143 29.4514 373.333 29.6159 371.516 29.6911C369.756 29.6432 368.005 29.5955 366.245 29.5476C365.97 29.5045 365.696 29.4436 365.412 29.4181C364.268 29.3068 363.166 28.9474 362.009 28.9426C361.615 28.7093 361.159 28.8126 360.735 28.7031C359.525 28.3942 359.235 27.9322 359.64 26.759C359.843 26.1769 360.098 25.614 360.327 25.0504C360.456 24.9114 360.355 24.7039 360.483 24.5649C360.458 24.5108 360.468 24.4665 360.513 24.4321C360.624 24.2838 360.54 24.0856 360.651 23.9373C360.662 23.8486 360.683 23.7601 360.694 23.6624C360.815 23.461 360.698 23.2084 360.836 23.0163C360.802 22.9709 360.803 22.9353 360.857 22.9011C360.992 21.872 361.056 20.8409 360.941 19.8138C360.898 19.777 360.89 19.7412 360.936 19.6979C360.791 19.4447 360.968 19.1467 360.824 18.8846C360.818 18.8043 360.802 18.7237 360.795 18.6434C360.797 18.59 360.771 18.5715 360.735 18.5527C360.736 18.5261 360.737 18.4994 360.738 18.4727C360.73 18.4279 360.713 18.383 360.697 18.3469C360.743 18.268 360.745 18.188 360.685 18.1062C360.642 18.0694 360.634 18.0336 360.671 17.99C360.653 17.9807 360.627 17.9621 360.609 17.9528C360.611 17.8816 360.596 17.8099 360.562 17.7467C360.617 17.668 360.62 17.5791 360.551 17.4971C360.198 16.7395 360.105 15.8911 359.68 15.1673C359.683 15.0694 359.685 14.9804 359.688 14.8914C359.551 14.3624 359.468 13.8081 358.998 13.4303C358.496 12.5974 357.985 11.7555 357.483 10.9226C357.383 10.6706 357.319 10.3929 357.002 10.2952C356.818 10.1655 356.653 10.0275 356.588 9.81202C356.343 9.34234 355.997 8.96788 355.533 8.69704C355.437 8.64099 355.332 8.57581 355.235 8.51976C355.229 8.43055 355.177 8.37571 355.088 8.37329C355.071 8.33722 355.072 8.29273 355.073 8.25715C355.011 7.92601 354.729 7.84709 354.464 7.75086C354.184 7.58297 353.895 7.43263 353.697 7.16904C353.587 6.97016 353.403 6.8761 353.2 6.80826C352.601 6.60497 352.142 6.15618 351.571 5.89133C351.167 5.70225 350.706 5.6185 350.359 5.29741C350.149 5.16705 349.939 5.02778 349.673 5.02052C349.522 5.01641 349.37 5.03009 349.258 4.89349C349.152 4.54335 348.797 4.85422 348.633 4.67168C348.587 4.69716 348.543 4.68705 348.509 4.6416C348.361 4.53072 348.163 4.61437 348.015 4.49459C347.969 4.52897 347.925 4.51886 347.891 4.47341C347.734 4.35339 347.528 4.419 347.361 4.33433C347.281 4.32326 347.202 4.30328 347.122 4.29221C346.964 4.18999 346.767 4.25584 346.6 4.16227C346.521 4.1512 346.432 4.13098 346.353 4.11991C346.151 3.98978 345.899 4.10757 345.698 3.97744C345.61 3.96613 345.521 3.95481 345.432 3.9346C345.222 3.81313 344.962 3.91288 344.742 3.80006C344.661 3.83348 344.582 3.8224 344.503 3.76684C344.201 3.75861 343.908 3.74173 343.606 3.72461C343.291 3.52906 342.933 3.59946 342.596 3.54578C342.652 3.47605 342.681 3.37891 342.658 3.26252L338.942 3.16139C338.929 3.29461 338.971 3.38479 339.032 3.44877C338.792 3.44223 338.552 3.4357 338.312 3.43807C338.223 3.43565 338.133 3.45102 338.044 3.4575C338 3.46519 337.981 3.4914 337.971 3.52674C337.776 3.52142 337.572 3.48917 337.383 3.56416C337.248 3.61392 337.123 3.62832 336.982 3.58886C336.766 3.68983 336.511 3.57604 336.294 3.6859C336.213 3.73711 336.124 3.75248 336.036 3.71447C335.873 3.79909 335.679 3.73149 335.517 3.81611C335.428 3.82258 335.33 3.83772 335.24 3.8442C335.086 3.94685 334.893 3.86145 334.739 3.95521C334.703 3.99873 334.649 4.00618 334.605 3.97827C334.46 4.09896 334.267 3.98687 334.122 4.09867C333.907 4.12845 333.742 4.31984 333.504 4.25102C333.367 4.38085 333.165 4.25963 333.029 4.38056C332.678 4.50458 332.336 4.65554 331.953 4.67183C331.816 4.80166 331.615 4.68043 331.47 4.79222C331.433 4.83574 331.397 4.84367 331.353 4.81577C331.199 4.91843 330.998 4.81499 330.852 4.93568C330.448 5.07605 330.053 5.21666 329.616 5.2226C329.48 5.35243 329.278 5.2401 329.133 5.343C329.096 5.38651 329.043 5.39396 328.99 5.36582C328.844 5.48651 328.651 5.38332 328.506 5.48621C328.119 5.67155 327.682 5.69528 327.271 5.78203C327.134 5.91186 326.924 5.78149 326.786 5.92021C325.961 6.18267 325.152 6.4812 324.302 6.65396C324.125 6.63132 323.956 6.64452 323.827 6.78349C323.439 6.99552 323.043 7.18062 322.588 7.20387C322.452 7.3159 322.181 7.12156 322.129 7.41396C321.814 7.54785 321.532 7.78058 321.167 7.79735C320.846 7.83313 320.584 7.97736 320.381 8.22117C319.044 8.96832 317.673 9.67892 316.438 10.6069C314.077 12.3769 311.536 13.8926 309.175 15.6625C308.944 15.6562 308.806 15.8217 308.651 15.951C306.402 17.8665 304.702 20.1797 303.578 22.9093C303.349 23.4907 303.084 24.0534 302.934 24.6637C302.914 24.7344 302.895 24.8051 302.884 24.876C302.852 25.0532 302.803 25.2211 302.745 25.3887C302.717 25.4591 302.697 25.5209 302.687 25.5918C302.569 25.9804 302.514 26.3796 302.397 26.7593C302.367 26.8653 302.346 26.9805 302.334 27.0959C302.327 27.3806 302.284 27.6466 302.179 27.9108C302.159 27.9904 302.138 28.0789 302.136 28.159C302.081 29.2259 302.06 30.3027 302.049 31.3709C302.046 31.4599 302.062 31.5404 302.086 31.6301C302.219 31.981 302.156 32.3532 302.208 32.7108C302.224 32.7914 302.258 32.8546 302.309 32.9273C302.37 32.9823 302.441 32.9843 302.513 32.9417C302.513 32.9417 302.522 32.942 302.531 32.9422C302.504 32.9593 302.468 32.9761 302.449 33.0023C302.225 33.3791 302.411 33.7492 302.455 34.1154C302.47 34.1871 302.486 34.2676 302.511 34.3396C302.659 34.771 302.673 35.2344 302.822 35.6658C302.864 35.7293 302.926 35.7666 303.005 35.7776C303.005 35.7776 303.023 35.7781 303.032 35.7784C302.794 36.0301 302.891 36.3889 302.785 36.6798C302.766 36.7416 302.746 36.8123 302.735 36.8833C302.704 37.0427 302.664 37.193 302.537 37.2964C302.274 37.494 301.994 37.6466 301.671 37.7447C301.527 37.7942 301.376 37.8079 301.216 37.7946C300.123 37.7382 299.799 37.2129 300.253 36.2459C300.433 35.8501 300.647 35.482 300.862 35.1049C300.994 34.8414 301.134 34.587 301.231 34.3047C301.28 34.1191 301.338 33.9426 301.388 33.757C301.438 33.5624 301.434 33.3575 301.386 33.1604C301.213 32.3276 300.895 31.6066 299.948 31.4206C299.238 31.3745 298.535 31.3821 297.824 31.3539C296.836 31.3626 295.849 31.3446 294.954 31.8812C294.782 31.9834 294.636 32.113 294.516 32.2789C294.274 32.673 294.058 33.0856 293.677 33.3779C293.376 33.6635 293.162 34.005 292.983 34.3741C292.675 34.8999 292.245 35.3156 291.688 35.5408C289.961 36.2329 288.169 36.7094 286.345 37.0515C285.88 37.1368 285.338 37.1043 285.064 36.7051C284.816 36.3422 285.226 35.9972 285.421 35.6819C285.905 34.8938 286.503 34.171 286.592 33.2029C286.6 32.8826 286.618 32.5625 286.609 32.2506C286.251 30.7005 284.944 29.6855 283.608 30.0588C281.592 30.6183 279.953 31.6777 279.237 33.7952C278.356 36.3979 276.531 37.7639 273.779 37.876C273.699 37.8916 273.627 37.9075 273.547 37.932C272.638 37.9696 271.722 37.9713 270.818 37.8577C270.747 37.8202 270.686 37.7829 270.625 37.7456C270.237 37.281 270.342 36.6962 270.232 36.1678C270.162 35.8009 270.255 35.3404 269.788 35.1407C269.788 35.1407 269.78 35.1405 269.771 35.1313C269.789 35.1318 269.807 35.1323 269.825 35.115C269.992 34.8524 269.91 34.5831 269.864 34.3147C269.766 33.671 269.624 33.026 269.784 32.3715C269.813 32.2921 269.832 32.2215 269.852 32.1419C269.914 31.8319 270.029 31.5323 270.064 31.2127C270.081 30.9283 270.107 30.6351 270.043 30.3485C269.828 29.7728 269.382 29.4757 268.807 29.3621C268.435 29.3253 268.061 29.324 267.696 29.3319C267.571 29.3374 267.455 29.352 267.339 29.3845C267.15 29.4417 266.963 29.4633 266.776 29.4849C265.585 29.7641 264.536 30.3856 263.404 30.8C263.233 30.8843 263.045 30.9059 262.867 30.9189C262.751 30.9247 262.644 30.9484 262.527 30.972C262.062 31.084 261.593 30.9822 261.13 31.0141C260.898 31.0345 260.683 31.0999 260.476 31.1833C260.314 31.259 260.135 31.2897 259.957 31.3027C259.85 31.3087 259.751 31.3238 259.644 31.3565C259.438 31.4132 259.233 31.4255 259.028 31.4377C258.921 31.4437 258.814 31.4586 258.715 31.4826C258.509 31.5482 258.295 31.5513 258.082 31.5544C257.939 31.5505 257.796 31.5733 257.653 31.6051C257.447 31.6707 257.224 31.6824 257.011 31.6855C256.904 31.6915 256.788 31.7062 256.68 31.7299C256.429 31.8032 256.171 31.7962 255.913 31.7981C255.762 31.794 255.61 31.8166 255.467 31.8483C255.216 31.9305 254.949 31.9232 254.691 31.9251C254.575 31.9309 254.468 31.9458 254.361 31.9696C254.109 32.0518 253.852 32.0358 253.585 32.0375C253.434 32.0334 253.282 32.0559 253.139 32.0877C252.888 32.1699 252.63 32.1628 252.38 32.1739C252.273 32.1799 252.166 32.1948 252.059 32.2185C251.853 32.2842 251.639 32.2961 251.434 32.3084C251.327 32.3144 251.22 32.3293 251.121 32.3533C250.924 32.4102 250.719 32.4314 250.514 32.4347C250.407 32.4407 250.309 32.4558 250.21 32.4799C250.049 32.5289 249.879 32.5599 249.718 32.5822C249.647 32.5892 249.584 32.6053 249.521 32.6303C249.351 32.6791 249.173 32.692 249.003 32.7052C248.888 32.711 248.78 32.7259 248.673 32.7586C247.968 32.8284 247.265 32.8271 246.566 32.6923C246.009 32.5614 245.518 32.2987 245.065 31.957C244.324 31.4115 243.564 30.8922 242.701 30.5571C242.516 30.5075 242.331 30.4579 242.146 30.3906C242.031 30.3607 241.916 30.3309 241.791 30.3275C241.392 30.2988 240.991 30.3057 240.583 30.2946C239.593 30.3567 238.754 30.7969 237.957 31.3361C237.295 31.7811 236.685 32.2987 235.964 32.6531C235.819 32.7471 235.666 32.8052 235.496 32.8273C235.434 32.8434 235.371 32.8506 235.308 32.8756C235.156 32.9249 235.004 32.9564 234.852 32.979C234.789 32.9862 234.727 33.0023 234.673 33.0186C234.529 33.0681 234.377 33.0907 234.226 33.1133C234.163 33.1205 234.109 33.1368 234.046 33.1529C233.903 33.2025 233.751 33.225 233.599 33.2476C233.537 33.2548 233.474 33.2709 233.42 33.2873C233.276 33.3368 233.125 33.3593 232.973 33.3819C232.91 33.3891 232.848 33.4052 232.794 33.4216C232.641 33.4708 232.489 33.4934 232.329 33.5158C232.266 33.523 232.203 33.5391 232.141 33.5552C231.979 33.6042 231.81 33.6085 231.65 33.613C231.365 33.6231 231.105 33.7139 230.836 33.7868C230.674 33.8447 230.504 33.8757 230.325 33.9064C230.254 33.9223 230.182 33.9293 230.119 33.9543C229.94 34.0028 229.762 34.0247 229.583 34.0643C227.911 34.3838 226.247 34.7214 224.575 35.0232C224.057 35.1159 223.56 35.0757 223.058 34.8839C222.529 34.6826 222.317 34.3295 222.305 33.7683C222.288 32.7528 222.738 31.9192 223.293 31.1418C224.32 29.6917 225.443 28.3155 226.591 26.9666C226.894 26.6187 227.171 26.2434 227.578 25.9963C227.669 25.9275 227.751 25.8674 227.842 25.7987C227.914 25.7472 228.004 25.7051 228.086 25.6539C228.228 25.6578 228.361 25.6614 228.504 25.6653C228.566 25.6759 228.628 25.6865 228.699 25.6706L231.482 25.7463C231.667 25.8048 231.862 25.8101 232.068 25.7623C232.122 25.7638 232.175 25.7652 232.237 25.7669C232.256 25.7318 232.275 25.6967 232.284 25.6614C232.478 25.7379 232.673 25.7521 232.871 25.6773C232.96 25.6708 233.05 25.6555 233.139 25.649C233.183 25.6413 233.202 25.6151 233.212 25.5797C233.265 25.5812 233.319 25.556 233.365 25.5216C233.452 25.5863 233.541 25.5887 233.64 25.538C233.899 25.4827 234.15 25.4272 234.409 25.3808C234.546 25.251 234.756 25.3725 234.893 25.2515C235.071 25.2386 235.225 25.1626 235.361 25.0684C235.466 25.1247 235.503 25.0545 235.523 24.9749C235.748 24.9008 235.98 24.8626 236.145 24.6713C236.752 24.6076 237.274 24.3725 237.722 23.9484C238.027 23.8588 238.314 23.7598 238.517 23.4893C239.251 23.3134 239.781 22.8025 240.397 22.4185C240.631 22.318 240.882 22.2447 241.03 22.0084C241.708 21.6351 242.369 21.2167 242.926 20.671C244.194 19.824 245.168 18.693 246.099 17.5163C247.001 16.3834 247.72 15.1475 248.307 13.8368C248.76 13.5375 248.728 13.0825 248.705 12.6278C248.712 12.352 248.72 12.0673 248.878 11.8223C249.114 11.6417 249.13 11.3839 249.137 11.1259C249.17 9.92477 249.292 8.71716 249.031 7.51694C248.984 7.28416 248.873 7.08527 248.727 6.90321C248.531 6.2746 248.343 5.64622 248.147 5.02651C247.604 3.38234 246.953 1.82424 245.323 0.925103C245.234 0.922684 245.136 0.902229 245.048 0.890912C245.039 0.89067 245.03 0.890428 245.021 0.890186C245.107 0.687726 244.777 0.723262 244.718 0.605903L243.633 0.576389C243.468 0.767774 243.168 0.679474 242.994 0.86172C242.43 0.988835 241.933 1.25134 241.471 1.586C240.291 2.43538 239.294 3.45889 238.4 4.59207C237.661 5.27536 237.061 6.07818 236.478 6.89039C234.49 9.6766 232.528 12.4724 230.575 15.2685C230.269 15.7054 229.859 16.0682 229.694 16.589C229.522 16.6734 229.517 16.8869 229.398 17.0084C229.192 17.3767 228.933 17.7258 228.789 18.1137C228.337 19.3657 227.624 20.4059 226.501 21.141C225.788 21.1751 225.346 21.724 224.769 22.0199C224.67 22.0706 224.579 22.1305 224.48 22.1812C224.372 22.2317 224.255 22.2819 224.296 22.4077C224.223 22.4592 224.159 22.5286 224.147 22.6263C224.074 22.7222 224 22.827 223.926 22.923C223.581 23.1807 223.765 23.5864 223.641 23.9036C223.7 24.0387 223.687 24.1808 223.613 24.3035C223.421 24.4763 223.451 24.6997 223.453 24.9224C223.331 25.1773 223.2 25.423 223.077 25.6779C222.76 25.8829 222.565 26.1893 222.457 26.5425C222.357 26.6555 222.256 26.7685 222.163 26.8906C221.461 27.5126 220.933 28.3085 220.152 28.8749C219.617 29.261 219.104 29.4874 218.451 29.2916C218.098 29.1929 217.744 29.121 217.434 29.4064C217.189 29.5689 216.876 29.2933 216.647 29.5363L214.986 30.1144C214.478 30.1362 214.046 30.3203 213.672 30.6663C211.973 31.6262 210.174 32.3875 208.4 33.1762C207.776 33.2126 207.261 33.5191 206.771 33.8619C206.428 34.0396 206.111 34.2625 205.726 34.341C204.527 34.6022 203.419 35.0974 202.387 35.7549C202.279 35.8143 202.18 35.865 202.071 35.9244C201.086 36.4852 200.176 36.2824 199.284 35.6883C198.397 34.3196 197.171 33.9301 195.611 34.3774C194.445 34.7107 193.264 34.9457 192.091 35.261C190.711 35.6241 189.487 35.484 188.55 34.2742C188.215 33.8466 187.749 33.6381 187.187 33.6851C186.287 33.7674 185.381 33.7072 184.496 33.8701C181.734 34.3736 178.98 34.8864 176.217 35.3899C175.799 35.3785 175.373 35.3669 174.955 35.3467C174.322 35.089 174.266 34.5266 174.193 33.9458C174.047 32.7487 173.604 32.3894 172.401 32.4546C171.029 32.5241 169.72 32.9159 168.386 33.209C167.751 33.352 167.117 33.4149 166.494 33.1308C166.133 32.9607 166.05 32.7626 166.123 32.3461C166.24 31.6548 166.608 31.2018 167.162 30.8073C168.305 29.9747 169.667 29.6111 170.945 29.0849C174.058 27.7896 176.915 26.0866 179.475 23.8857C180.19 23.4422 180.819 22.8806 181.456 22.3459C182.211 21.7165 183.045 21.1693 183.705 20.4304C183.824 20.3268 183.951 20.2234 184.07 20.1198L184.05 20.1905C184.818 20.069 185.215 19.5455 185.464 18.8756C185.674 18.3738 185.848 17.8621 186.154 17.4074C186.282 17.2685 186.181 17.0609 186.3 16.9217C186.275 16.8765 186.276 16.832 186.322 16.7887C186.396 16.6928 186.389 16.6036 186.329 16.5218C186.348 16.4778 186.376 16.4341 186.395 16.39C186.397 16.3278 186.398 16.2655 186.4 16.2032C186.427 16.195 186.454 16.1691 186.464 16.1248C186.431 16.0349 186.443 15.9462 186.498 15.8586C186.623 15.1942 186.641 14.5269 186.553 13.8478C186.511 13.7577 186.496 13.6682 186.543 13.5804C186.535 13.5446 186.499 13.5436 186.473 13.5251C186.473 13.5073 186.474 13.4895 186.474 13.4717C186.44 13.4441 186.423 13.4169 186.397 13.3895C186.397 13.3895 186.405 13.3897 186.414 13.39C186.518 13.188 186.514 12.9831 186.431 12.7761L186.403 12.5171C186.318 12.3545 186.394 12.1607 186.301 11.9979C186.088 11.6537 186.181 11.1844 185.851 10.8905C185.713 10.4148 185.309 10.199 184.933 9.95729C184.521 9.75908 184.108 9.56087 183.695 9.36265C183.559 9.11856 183.334 9.21928 183.139 9.21395C183.14 9.18726 183.122 9.16008 183.078 9.14998C182.509 9.16119 181.936 8.95862 181.385 9.24637C179.766 9.60296 178.502 10.5925 177.256 11.6093C176.687 11.9321 176.256 12.4101 175.868 12.9249C175.558 13.2014 175.248 13.4778 174.938 13.7632C174.805 13.7329 174.802 13.8397 174.782 13.9104C174.788 14.0352 174.671 14.0765 174.615 14.1729C174.461 14.2756 174.421 14.4615 174.284 14.5824C174.184 14.6598 174.084 14.7283 173.975 14.8055C173.755 15.0488 173.544 15.2924 173.324 15.5357C172.793 15.7705 172.539 16.2801 172.207 16.7073C171.988 16.915 171.777 17.1319 171.558 17.3396C171.208 17.4548 171.118 17.7996 170.925 18.0525C170.815 18.1653 170.705 18.278 170.586 18.3906C170.19 18.5846 169.993 18.9354 169.823 19.3136C169.591 19.3429 169.611 19.5927 169.483 19.7139C168.85 20.7473 168.016 21.6595 167.54 22.7952C167.152 23.31 166.931 23.9183 166.684 24.4992C166.313 25.3706 166.031 26.28 165.572 27.1223C165.01 28.1399 164.31 29.0379 163.162 29.3896C160.847 30.0923 158.485 30.6068 156.054 30.7098C154.809 30.6759 153.565 30.6242 152.32 30.5993C151.787 30.5847 151.257 30.4546 150.729 30.5648C148.773 30.5116 146.81 30.4137 144.854 30.3871C143.262 30.3616 141.66 30.3893 140.072 30.5508C138.936 30.4665 137.81 30.6584 136.672 30.6453C135.89 30.624 135.107 30.6027 134.325 30.5814C133.394 30.1554 133.211 29.6607 133.663 28.7559C134.115 27.8511 134.906 27.2048 135.532 26.4294C135.775 26.3203 135.915 26.0926 136.098 25.9195C137.65 24.4303 139.194 22.9408 140.738 21.4425C141.262 21.154 141.621 20.7097 141.885 20.1826C142.063 19.8313 142.224 19.4796 142.102 19.0667C142.102 19.0489 142.103 19.04 142.121 19.0227C142.157 19.0058 142.184 18.9888 142.22 18.9719L142.195 18.9178L142.241 18.8745C142.499 18.5254 142.296 18.1548 142.297 17.7987C142.154 17.4832 142.102 17.1167 141.833 16.8601C141.786 16.6095 141.583 16.5595 141.38 16.5005C141.217 16.2646 141.008 16.1075 140.725 16.0553C140.645 16.0442 140.548 16.0327 140.467 16.0394C139.965 15.8743 139.234 15.9168 138.764 16.18C138.629 16.2743 138.501 16.3687 138.316 16.3103C138.163 16.3951 137.961 16.3006 137.823 16.4393C137.617 16.4871 137.435 16.6425 137.205 16.5917C136.975 16.5498 136.761 16.5707 136.579 16.7349C136.325 16.9239 136.013 16.9332 135.726 17.0322C134.658 17.3771 133.573 17.6859 132.554 18.1746C132.305 18.1857 132.089 18.2955 131.88 18.4412C131.32 18.7465 130.769 19.0521 130.209 19.3574C129.941 19.4302 129.689 19.5213 129.514 19.7569C129.421 19.8702 129.229 19.7581 129.162 19.9254C129 19.9833 128.838 20.0502 128.728 20.1896C128.583 20.2658 128.472 20.4409 128.269 20.3819C127.714 20.8387 127.056 21.1503 126.458 21.5525C126.151 21.7311 125.801 21.8284 125.571 22.116C125.408 22.2273 125.236 22.3384 125.073 22.4408C124.873 22.5867 124.587 22.6234 124.465 22.8872C124.419 22.9127 124.375 22.9204 124.321 22.9278C123.938 22.9619 123.769 23.2779 123.549 23.5301C123.427 23.7316 123.263 23.8785 123.056 23.9886C122.856 24.1256 122.657 24.2626 122.623 24.5288C122.205 24.8647 122.004 25.3579 121.761 25.8142C121.777 25.8681 121.758 25.9032 121.704 25.9195C121.542 26.0131 121.536 26.2177 121.417 26.3391C121.273 26.4064 121.295 26.5673 121.239 26.6815C121.165 26.7774 121.127 26.8743 121.115 26.9987C121.048 27.1482 120.903 27.2689 120.907 27.4471C120.788 27.5774 120.898 27.7852 120.752 27.9148L120.588 28.3555C120.37 28.5277 120.514 28.7898 120.42 28.992C120.298 29.238 120.175 29.484 120.062 29.7302C119.726 29.9882 119.415 30.2825 119.131 30.6042C118.867 30.8018 118.571 30.9184 118.232 30.9359C117.962 31.0354 117.687 31.0101 117.422 30.9405C117.184 30.8806 116.979 30.8751 116.788 31.0301C116.689 31.072 116.582 31.0868 116.477 31.0395C116.434 30.9849 116.381 30.9656 116.318 30.9817C116.3 30.999 116.317 31.0173 116.299 31.0435C116.245 31.0421 116.183 31.0315 116.13 31.0211C115.517 30.9866 114.905 30.9521 114.304 31.1139C114.124 31.1802 113.946 31.1932 113.77 31.1172C112.957 31.2464 112.143 31.1085 111.334 31.0954C111.306 31.1124 111.28 31.1206 111.243 31.1374C111.182 31.1179 111.12 31.1162 111.047 31.1499C110.941 31.147 110.834 31.1441 110.736 31.1414C109.191 31.0371 107.646 30.9594 106.096 31.0329C105.998 31.0303 105.909 31.0457 105.811 31.043C105.766 31.0507 105.757 31.0771 105.747 31.1036C104.914 30.9652 104.108 31.1925 103.296 31.2684C103.224 31.3198 103.143 31.3266 103.064 31.2799C102.65 31.4823 102.171 31.1131 101.771 31.405C101.41 31.5999 101.002 31.2149 100.656 31.5082C100.584 31.5596 100.512 31.5755 100.434 31.5199C99.9415 31.6312 99.4324 31.3769 98.954 31.631L98.9178 31.6567L98.8829 31.6291C98.3517 31.8639 97.7771 31.4031 97.2437 31.718C97.1178 31.768 96.9926 31.7913 96.861 31.7254C96.4492 31.8211 96.0403 31.8099 95.6427 31.7101C95.3775 31.6494 95.1466 31.6342 94.9364 31.8422C94.3693 32.085 93.7611 31.552 93.2082 31.9287C93.109 31.9795 93.011 31.9857 92.9144 31.9386C92.252 32.0897 91.5769 32.0535 90.9014 32.0351C90.3812 32.1901 89.8453 31.9441 89.3246 32.1169C89.2256 32.1587 89.1187 32.1647 89.013 32.1262C88.9004 32.0163 88.7752 32.0396 88.6409 32.0716C88.0429 32.1443 87.4243 31.9939 86.8397 32.2273L86.8034 32.253L86.7686 32.2254C86.2292 32.4333 85.6606 32.0795 85.1294 32.3143C85.0304 32.3562 84.9233 32.371 84.8178 32.3237C84.7481 32.2683 84.66 32.2392 84.5703 32.2635C83.883 32.3516 83.1601 32.1094 82.4847 32.4115L82.4393 32.4459L82.3956 32.418C81.7053 32.6129 80.9943 32.2641 80.3119 32.4949C80.2216 32.5458 80.1236 32.5521 80.0268 32.5138C79.6539 32.4859 79.2791 32.5291 78.9117 32.6259L78.8844 32.6519L78.8493 32.6331C78.6696 32.6995 78.475 32.6586 78.295 32.7338C78.1689 32.7927 78.0439 32.8071 77.9118 32.759C77.6867 32.8597 77.4229 32.7457 77.2059 32.8733C77.1603 32.9166 77.1158 32.9154 77.0721 32.8875C76.8724 33.0334 76.6277 32.8754 76.4287 32.9946C76.3026 33.0535 76.1776 33.0679 76.0455 33.0198C75.8204 33.1205 75.5566 33.0065 75.3397 33.1342C75.294 33.1774 75.2495 33.1762 75.2058 33.1483C75.015 33.2945 74.7614 33.1362 74.5622 33.2644C74.4731 33.2709 74.3837 33.2862 74.2945 33.2927C74.0785 33.3848 73.8333 33.2445 73.6334 33.3994C73.5442 33.4058 73.4637 33.4215 73.3746 33.4279C73.1579 33.5467 72.9035 33.4151 72.6954 33.543C72.6231 33.5856 72.5426 33.6012 72.4636 33.5634C72.2382 33.673 71.9836 33.5503 71.7666 33.678C71.7298 33.7215 71.6851 33.7292 71.6417 33.6924C71.4422 33.8294 71.1883 33.6801 70.9891 33.8082C70.9168 33.8508 70.8363 33.8664 70.7484 33.8284C70.4778 33.9635 70.1627 33.7768 69.8998 33.9566L69.9087 33.9569C69.7182 34.0942 69.4731 33.945 69.2742 34.0643C69.1851 34.0707 69.087 34.077 68.9977 34.0924C68.7982 34.2294 68.5532 34.0803 68.3454 34.1993C68.2639 34.2505 68.1748 34.2569 68.0777 34.2276C67.8699 34.3466 67.6155 34.215 67.4077 34.334L67.1489 34.3626C66.9411 34.4816 66.6867 34.35 66.4788 34.469C66.3974 34.5202 66.3082 34.5267 66.2201 34.4976C66.0122 34.6166 65.7579 34.485 65.55 34.604C65.4609 34.6105 65.3717 34.6169 65.2826 34.6234C65.0748 34.7424 64.8293 34.6111 64.6128 34.7209C64.4866 34.7798 64.3615 34.8031 64.2385 34.7464C64.0133 34.8471 63.7582 34.7422 63.524 34.8516C63.4348 34.8581 63.3368 34.8643 63.2477 34.8708C63.2025 34.8963 63.1749 34.9311 63.1381 34.9746C62.8995 34.9147 62.6689 34.8906 62.4351 34.9822C62.346 34.9887 62.2658 34.9954 62.1855 35.0021C61.9239 35.1375 61.6173 34.96 61.3552 35.1131C61.274 35.1554 61.1846 35.1708 61.0967 35.1328C60.7812 35.2845 60.4223 35.0699 60.1061 35.2483L60.0607 35.2827L60.0081 35.2545C59.7916 35.3644 59.5459 35.2419 59.3294 35.3518C59.2403 35.3583 59.1422 35.3645 59.0531 35.371C58.8001 35.5155 58.4938 35.329 58.2406 35.4824C58.1682 35.525 58.0966 35.5408 58.0176 35.5031C57.8379 35.5694 57.6433 35.5285 57.4633 35.6037C57.3653 35.61 57.2673 35.6162 57.1779 35.6316C56.9785 35.7686 56.7335 35.6195 56.5345 35.7387C56.4531 35.7899 56.3639 35.7964 56.2669 35.7671C56.0588 35.8949 55.8049 35.7456 55.5966 35.8824C55.5598 35.9259 55.5154 35.9247 55.4716 35.8968C55.3263 36.0086 55.1331 35.9143 54.9796 35.9991C54.8902 36.0145 54.8011 36.021 54.7117 36.0364C54.5579 36.1301 54.3643 36.0536 54.2019 36.1382L53.952 36.1671C53.7896 36.2517 53.5871 36.1749 53.4242 36.2773C53.3874 36.3209 53.3427 36.3285 53.299 36.3007C53.1536 36.4124 52.9605 36.3181 52.8067 36.4119C52.5201 36.4842 52.2493 36.6282 51.9391 36.5842C51.7678 36.6686 51.5656 36.5829 51.4022 36.7031C51.3743 36.7469 51.3296 36.7546 51.2861 36.7178C51.1321 36.8204 50.9301 36.7259 50.7761 36.8285C50.7393 36.8721 50.6946 36.8798 50.642 36.8516C50.4966 36.9634 50.3035 36.8691 50.1497 36.9629C50.1041 37.0061 50.0594 37.0138 50.0068 36.9857C49.87 37.1066 49.6682 37.0032 49.5234 37.0972C49.4789 37.096 49.4251 37.1123 49.3804 37.12C49.1894 37.2751 48.9283 37.0632 48.7452 37.2541L48.6997 37.2885L48.6469 37.2692C48.4845 37.3538 48.2822 37.2682 48.1188 37.3884C48.0909 37.4322 48.0462 37.4398 48.0028 37.403C47.8488 37.5057 47.6467 37.4112 47.4925 37.5227C47.4557 37.5662 47.4199 37.5742 47.3675 37.5371C47.2135 37.6398 47.0201 37.5544 46.8664 37.6481C46.8296 37.6917 46.776 37.6991 46.7234 37.671C46.5778 37.7917 46.3849 37.6885 46.24 37.7825C46.1509 37.7889 46.0615 37.8043 45.9724 37.8108C45.8186 37.9045 45.625 37.828 45.4625 37.9127C45.3823 37.9194 45.2929 37.9348 45.2127 37.9415C45.0503 38.0261 44.8477 37.9494 44.6851 38.0429C44.6125 38.0943 44.532 38.1099 44.4441 38.0719C44.273 38.1474 44.07 38.0885 43.9076 38.1731C43.6837 38.2293 43.4598 38.2855 43.2363 38.324C41.1089 38.7024 38.9898 39.0988 36.8849 39.6292C34.3677 40.273 31.8579 40.9704 29.2776 41.3186C27.2242 41.5922 25.236 42.0812 23.3364 42.911C21.6981 43.6233 19.9948 44.1022 18.2506 44.4554C17.4904 44.6039 16.7463 44.8152 16.0032 44.9908C14.5081 45.3419 13.254 46.3139 11.8016 46.7285C9.21979 47.4596 7.06804 49.0571 4.62116 50.059C2.12934 51.0774 1.28221 53.4406 0.814883 55.9032C0.80551 55.9207 0.796136 55.9383 0.786763 55.9558C0.740623 56.0169 0.703129 56.0871 0.683172 56.1667C0.662246 56.2819 0.65934 56.3887 0.69199 56.4964C0.536377 57.3113 0.647193 58.1424 0.607138 58.9605C0.641967 58.9881 0.685929 59.0071 0.721001 59.0259C0.802174 60.2924 1.31438 61.4105 1.95249 62.4785C2.93114 64.1078 4.21065 65.4693 5.66292 66.693C7.5586 68.2939 9.78429 69.2093 12.104 69.9402C14.3355 70.642 16.5951 71.2911 18.7881 72.0988C25.1822 74.4542 31.725 76.2528 38.4247 77.5125C41.9648 78.1787 45.5035 78.8983 49.0427 79.6001C52.2811 80.2402 55.5194 80.8804 58.8478 80.8285C59.0578 80.9589 59.2891 80.9563 59.5203 80.9626C62.1425 81.0339 64.7648 81.1053 67.3962 81.168C67.7518 81.1777 68.1073 81.1874 68.4629 81.1971C69.7696 81.2326 71.0729 81.3927 72.377 81.1967C72.9197 81.1937 73.4624 81.1907 74.0051 81.1876C76.1367 80.9874 78.2699 80.7249 80.4172 80.5964L80.4083 80.5962C81.1776 80.439 81.9623 80.3713 82.7457 80.3481C84.3126 80.3017 85.8323 80.0315 87.2811 79.4209C88.8569 79.0453 90.4323 78.6875 92 78.285C93.3169 77.9469 94.65 77.6626 95.9259 77.1987C96.712 77.0777 97.4493 76.7861 98.2112 76.5753C99.1422 76.3603 100.066 76.1005 100.897 75.6156C101.44 75.292 102.049 75.1216 102.633 74.906C103.307 74.6572 103.997 74.4712 104.629 74.1234C104.878 74.1301 105.077 74.0109 105.259 73.8645C105.675 73.6176 106.1 73.3709 106.516 73.124C106.871 73.1337 107.1 72.8995 107.346 72.7014C107.892 72.2266 108.628 71.9884 109.063 71.3681C109.217 71.2654 109.362 71.1625 109.516 71.0599C109.873 71.0518 109.99 70.6721 110.294 70.5824C110.366 70.5666 110.421 70.5146 110.449 70.4531C110.747 69.9893 111.287 69.7458 111.541 69.2452C111.949 68.9446 112.149 68.4693 112.531 68.1502C113.362 67.3626 114.045 66.4641 114.597 65.4641C114.662 65.3768 114.735 65.2897 114.8 65.2025C115.139 64.8377 115.391 64.4083 115.581 63.9505C115.638 63.8363 115.703 63.7223 115.759 63.6081C116.957 61.7798 117.97 59.8574 118.843 57.8511C118.904 57.5678 119.079 57.3411 119.237 57.105C119.419 56.9407 119.47 56.7106 119.573 56.5086C120.616 54.4713 121.307 52.2909 122.183 50.1867C122.725 48.8926 123.461 47.6839 124.003 46.3898C124.049 46.3287 124.095 46.2587 124.141 46.1976C124.534 45.8166 124.726 45.2965 125.067 44.8872C126.032 43.7471 126.601 42.427 126.979 40.9771C127.416 39.315 128.038 37.7025 128.756 36.1372C129.211 35.1345 129.856 34.2884 130.832 33.7362C131.01 33.7411 131.154 33.6649 131.299 33.5798C131.692 33.537 132.075 33.4852 132.435 33.3436C132.524 33.3371 132.614 33.3217 132.694 33.315L135.217 33.1077C135.358 33.156 135.501 33.1421 135.636 33.0923C136.356 33.1119 137.074 33.1849 137.788 33.1153C138.983 32.9965 139.713 33.6129 138.912 34.9534C138.465 35.698 138.087 36.4891 137.904 37.3478C137.781 37.9232 137.721 38.5092 138.107 39.0362C138.452 39.7667 139.141 39.9369 139.833 40.0002C142.264 40.2534 144.679 40.0876 147.037 39.4216C149.367 38.7639 151.122 37.387 152.143 35.1621C152.729 33.8781 153.734 33.2288 155.123 33.1953C156.262 33.1729 157.379 33.0074 158.504 32.8332C159.04 32.7499 159.568 32.6396 160.118 32.6991C160.81 32.7802 161.058 33.1343 160.897 33.8155C160.797 34.2312 160.548 34.5628 160.316 34.8948C160.02 35.3142 159.707 35.7241 159.489 36.1901C159.234 36.7441 159.138 37.3202 159.336 37.9133C159.467 38.3264 159.719 38.547 160.172 38.5771C160.811 38.6123 161.394 38.4501 161.97 38.1898C163.519 37.4929 165.06 36.778 166.617 36.0992C167.49 35.7223 168.02 35.8613 168.551 36.6326C169.698 38.2932 171.285 38.8172 173.206 38.5133C174.501 38.3082 175.797 38.0764 177.084 37.8443C178.381 37.6124 179.668 37.3626 180.965 37.1307C182.162 36.9229 182.663 37.1502 183.303 38.1471C183.397 38.301 183.49 38.4638 183.602 38.5915C184.112 39.1574 184.682 39.449 185.513 39.3024C187.524 38.9565 189.51 38.5742 191.449 37.9147C192.383 37.6017 193.355 37.4858 194.345 37.7442C195.078 37.9333 195.736 38.2807 196.375 38.6631C196.979 39.0268 197.621 39.2758 198.342 39.2776C199.222 39.2837 200.096 39.2096 200.962 39.0907C203.373 38.7645 205.594 37.899 207.673 36.6556C208.777 36 209.889 35.3447 210.992 34.6802C211.607 34.3052 212.237 34.3491 212.91 34.492C212.852 35.3007 212.559 35.9249 211.95 36.398C211.46 36.7765 210.978 37.164 210.513 37.5698C210.066 37.9584 209.628 38.3649 209.373 38.91C209.09 39.5167 209.201 40.0005 209.706 40.4238C210.323 40.9393 210.927 41.0002 211.623 40.5651C211.931 40.3775 212.204 40.1446 212.478 39.9027C213.599 38.9093 214.711 37.9156 215.815 36.9128C217.01 35.8323 217.393 35.7893 218.741 36.6096C219.073 36.8145 219.397 37.0103 219.73 37.2152C220.272 37.5505 220.865 37.6735 221.507 37.6108C222.64 37.4992 223.77 37.4588 224.895 37.3113C225.966 37.1802 227.053 37.1474 228.093 36.8374L228.155 36.8569L228.209 36.8227C228.644 36.8346 229.065 36.7481 229.478 36.608C229.522 36.6092 229.567 36.5926 229.621 36.5673C230.137 36.5725 230.646 36.5062 231.16 36.5914C231.551 36.9048 231.844 37.2867 232.008 37.7631C232.504 39.1656 233.574 39.7378 234.987 39.7941C236.124 39.8429 237.257 39.7045 238.367 39.4765C240.871 38.9748 243.089 37.8777 245.029 36.212C246.578 34.883 248.309 35.0191 250.094 35.4417C250.113 35.736 249.941 35.8382 249.822 35.9685C249.153 36.6893 248.476 37.3921 247.764 38.0583C247.252 38.5341 247.2 39.1382 247.542 39.6639C247.892 40.2076 248.544 40.4213 249.163 40.2244C249.567 40.093 249.886 39.8345 250.213 39.5852C251.194 38.8373 252.167 38.0713 253.165 37.3328C254.872 36.0614 256.766 35.1246 258.693 34.2511C259.585 33.8391 260.06 34.039 260.516 34.924C260.626 35.1318 260.709 35.3477 260.828 35.5468C261.253 36.2707 261.843 36.5183 262.667 36.3181C263.016 36.2297 263.349 36.0963 263.665 35.909C264 35.7133 264.334 35.5354 264.677 35.3578C264.908 35.364 265.139 35.3525 265.37 35.3677C266.294 35.4018 266.596 35.7483 266.553 36.6732C266.506 37.7671 265.793 38.4689 264.442 38.7615C263.962 38.7485 263.482 38.7354 263.01 38.7226C262.161 38.557 261.311 38.3914 260.453 38.2256C259.816 38.1103 259.194 38.0756 258.565 38.29C257.811 38.5455 257.793 38.5717 258.154 39.3561C258.27 39.9915 258.642 40.3756 259.24 40.6322C261.385 41.5632 263.532 41.7908 265.866 41.329C268.764 40.7579 271.716 40.4732 274.653 40.0901C276.849 39.8115 279.039 39.4348 281.262 39.4686C282.266 39.5049 283.261 39.5586 284.265 39.586C285.03 39.6068 285.801 39.6901 286.563 39.506C290.02 39.6001 292.886 37.9063 295.81 36.4009C296.082 36.8536 296.105 37.2994 296.192 37.7202C296.617 39.7441 297.766 40.6835 299.821 40.6593C302.829 40.6165 305.594 39.7124 308.204 38.2608C308.701 37.9894 309.189 37.7 309.753 37.5729C310.2 37.4693 310.446 37.6006 310.558 38.04C310.71 38.6674 310.88 39.2864 311.033 39.9049C311.185 40.4967 311.554 40.667 312.135 40.5671C312.716 40.4671 313.1 40.1036 313.432 39.6675C314.244 38.6033 314.713 37.3784 315.085 36.1242C315.566 34.4812 316.497 33.2867 318.183 32.7716C318.942 32.6587 319.706 32.6884 320.48 32.7095C321.627 32.7407 322.063 33.0553 322.46 34.1524C322.667 34.7278 322.891 35.2949 323.369 35.7086C323.917 36.507 324.751 36.9215 325.595 37.2917C326.685 37.7577 327.814 38.1178 328.933 38.4956C329.612 38.7277 330.3 38.9423 330.94 39.2892C331.466 39.5795 331.946 39.922 332.097 40.5583C332.086 40.9854 332.066 41.4033 332.045 41.8302C331.624 43.5906 331.017 45.3014 330.489 47.0322C330.361 47.1712 330.462 47.3787 330.342 47.5179C330.368 47.572 330.358 47.6163 330.312 47.6506C330.202 47.7901 330.303 47.9887 330.166 48.1275C330.191 48.1816 330.181 48.2258 330.135 48.2691C330.025 48.4085 330.126 48.6072 329.989 48.737C329.94 48.8871 329.883 49.0369 329.834 49.1869C329.581 49.3581 329.76 49.639 329.665 49.859L329.681 49.9129L329.636 49.9561C329.462 50.1384 329.623 50.4099 329.467 50.5926C329.492 50.6467 329.491 50.6912 329.437 50.7254C329.326 50.8737 329.409 51.0719 329.299 51.2202C329.333 51.2657 329.323 51.3099 329.278 51.3443C329.166 51.5015 329.223 51.7079 329.139 51.8747C329.172 51.9647 329.143 52.0351 329.097 52.1051C328.995 52.2626 329.06 52.4603 328.967 52.618C328.956 52.7067 328.936 52.7863 328.925 52.8751C328.795 53.0763 328.921 53.3291 328.782 53.5301L328.748 53.8052C328.599 54.0504 328.76 54.3486 328.602 54.5936C328.331 55.0849 328.608 55.6712 328.399 56.1819C328.45 56.2634 328.43 56.343 328.374 56.4216C328.373 56.475 328.371 56.5284 328.37 56.5818C328.217 56.9694 328.313 57.3727 328.267 57.7632C328.266 57.7721 328.266 57.781 328.266 57.7899C328.23 57.7889 328.212 57.8151 328.202 57.8594C328.249 58.4127 327.958 58.9835 328.29 59.5179C328.288 59.598 328.303 59.6785 328.31 59.7588C328.426 60.4209 328.859 60.8333 329.402 61.1597C330.478 61.8123 331.515 61.3152 331.673 60.0641C331.72 59.6735 332.041 59.2994 331.768 58.8913C331.768 58.8913 331.768 58.8913 331.777 58.8827C331.823 58.8216 331.851 58.7511 331.871 58.6804C331.895 58.4496 331.919 58.2098 331.899 57.9778C331.909 57.6219 331.919 57.2571 331.928 56.9012C331.928 56.9012 331.947 56.8839 331.947 56.875C332.003 56.7786 332.006 56.6718 332.044 56.566C332.044 56.566 332.044 56.566 332.045 56.5571C332.071 56.5579 332.107 56.5588 332.125 56.5326C332.154 56.4711 332.128 56.417 332.076 56.371C332.078 56.3176 332.079 56.2642 332.089 56.22C332.145 55.8208 332.449 55.4284 332.14 55.0194C332.185 54.9761 332.222 54.9237 332.242 54.8708C332.242 54.8441 332.243 54.8174 332.244 54.7996C332.244 54.7996 332.244 54.7907 332.244 54.7818C332.255 54.7109 332.266 54.6399 332.259 54.5774C332.259 54.5596 332.259 54.5507 332.278 54.5334C332.287 54.1864 332.306 53.8308 332.324 53.484C332.324 53.484 332.324 53.4751 332.324 53.4662C332.387 53.4679 332.432 53.4513 332.433 53.3801C332.402 53.2457 332.423 53.1127 332.48 52.9896C332.556 52.8047 332.578 52.6273 332.504 52.4382C332.513 52.4118 332.514 52.394 332.532 52.3678C332.542 52.3235 332.543 52.2879 332.553 52.2437C332.589 52.2358 332.617 52.2098 332.627 52.1656C332.638 52.0857 332.649 51.997 332.66 51.9172C332.799 51.7073 332.691 51.4461 332.803 51.2266C332.77 51.1366 332.799 51.0573 332.845 50.9873C332.956 50.8479 332.855 50.6492 332.992 50.5194C332.985 50.4213 332.979 50.3232 332.973 50.225C332.979 50.0026 333.223 49.849 333.177 49.6073C333.276 49.5566 333.296 49.4592 333.334 49.3623C333.688 48.4815 333.9 47.5435 334.341 46.7007C334.734 46.3108 334.766 45.7952 334.833 45.2895C334.797 44.9769 335.053 44.7167 335.018 44.3952C335.45 43.2317 335.634 42.0169 335.951 40.8235C336.358 39.2675 336.951 38.7227 338.573 38.5977C341.792 38.3469 344.952 37.9254 347.991 36.7348C350.878 35.6025 353.592 34.2517 355.606 31.8135C355.781 31.5956 355.998 31.4858 356.273 31.4933C356.531 31.5181 356.788 31.534 357.046 31.5588C357.062 31.6038 357.061 31.6394 357.042 31.6834C356.886 31.875 356.862 32.0969 356.909 32.3297C356.844 32.7376 356.518 32.978 356.305 33.2838C355.398 34.568 355.609 35.6244 356.949 36.4266C357.745 36.9024 358.609 37.2108 359.53 37.3516C360.146 37.591 360.778 37.5904 361.406 37.4027C361.736 37.3493 362.075 37.314 362.398 37.2338C364.278 36.7685 366.048 36.1222 367.241 34.454C368.98 32.0261 372.757 31.8261 374.649 33.881C375.263 34.5477 376.072 34.8724 376.957 35.039C378.78 35.3824 380.596 35.3606 382.419 35.063C383.437 34.8948 384.44 34.655 385.473 34.603C386.149 34.6214 386.833 34.64 387.509 34.6673C387.809 34.7467 388.11 34.7994 388.4 34.9141C390.874 35.8896 393.314 35.7691 395.744 34.7489C396.338 34.498 396.932 34.247 397.574 34.1666C398.001 34.1782 398.419 34.1807 398.846 34.1834C399.705 34.3403 400.562 34.5506 401.441 34.6102C402.626 34.865 403.826 34.8888 405.023 34.7077C406.42 34.6923 407.797 34.427 409.186 34.3758C412.383 34.2669 415.558 33.9526 418.742 33.6475C419.625 33.5647 420.468 33.3294 421.169 32.7519C421.824 32.2088 422.509 32.1919 423.245 32.6215C423.823 32.9577 424.401 33.294 425.007 33.5865C426.289 34.2001 427.544 34.172 428.781 33.4755C429.233 33.2207 429.667 32.9565 430.119 32.7017C431.88 31.7168 433.597 31.719 435.273 32.8954C435.483 33.0436 435.692 33.1917 435.911 33.3312C436.278 33.5727 436.645 33.8142 437.088 33.8797C437.703 34.1457 438.347 34.0208 438.978 34.0291L439.431 34.0859C439.569 34.2321 439.756 34.2283 439.934 34.2332C441.658 34.2801 443.392 34.3273 445.116 34.3742C445.294 34.379 445.48 34.3841 445.626 34.2545C445.778 34.2408 445.929 34.2361 446.072 34.2221C446.604 34.29 447.137 34.3312 447.657 34.1584C448.253 34.1746 448.842 34.0838 449.422 34.0106C451.573 33.7486 453.609 33.1629 455.362 31.8394C456.479 30.9972 457.448 30.0175 458.009 28.6972C458.218 28.5515 458.146 28.2557 458.337 28.0917C458.354 27.4778 458.379 26.8642 458.396 26.2413C458.405 25.9032 458.387 25.5822 458.101 25.334L458.084 25.3068ZM232.17 25.6315C232.17 25.6315 232.178 25.6318 232.188 25.6142C232.188 25.6142 232.188 25.6231 232.196 25.6322C232.187 25.632 232.178 25.6318 232.17 25.6315ZM229.032 22.9195C229.032 22.9195 229.032 22.9195 229.041 22.9286C229.365 22.7683 229.336 22.5449 229.174 22.2912C229.192 22.2827 229.218 22.2924 229.237 22.2662C229.274 22.2049 229.311 22.1435 229.331 22.0728C229.372 21.8603 229.413 21.6566 229.525 21.4638C229.999 20.3993 230.762 19.5119 231.401 18.5587C233.441 15.5068 235.386 12.3811 237.662 9.47801C238.934 7.85651 240.431 6.44593 241.859 4.96223C242.839 3.94714 243.972 4.14715 244.409 5.41449C244.995 7.09546 245.285 8.84852 245.397 10.6234C245.441 11.2657 245.362 11.9046 245.149 12.5221C245.063 12.7691 245.02 13.0172 245.04 13.2849C245.055 13.3654 245.071 13.4371 245.078 13.5174C244.462 14.9075 243.732 16.2232 242.704 17.3705C240.741 19.5698 238.409 21.2514 235.751 22.4969C235.663 22.4767 235.556 22.4827 235.457 22.5156C235.349 22.5661 235.275 22.6442 235.219 22.7495C235.219 22.7584 235.219 22.7673 235.21 22.776C235.049 22.8072 234.888 22.8295 234.726 22.9053C234.293 23.1161 233.835 23.2817 233.353 23.3398C233.207 23.4605 233.006 23.3482 232.86 23.4689L232.814 23.5121L232.762 23.4929C232.599 23.5864 232.397 23.5008 232.243 23.6034C232.161 23.6457 232.09 23.6616 232.002 23.6236C231.948 23.6399 231.912 23.6656 231.893 23.7185C231.893 23.7185 231.901 23.7277 231.91 23.7368C231.593 23.6213 231.253 23.6744 230.924 23.6655C230.906 23.6828 230.888 23.6912 230.87 23.7085C230.87 23.7085 230.87 23.7085 230.861 23.7083C230.88 23.6465 230.864 23.6015 230.784 23.5993C230.748 23.6162 230.712 23.6152 230.677 23.6053C230.554 23.5486 230.43 23.5096 230.298 23.4615C230.237 23.442 230.166 23.4222 230.104 23.4117C229.998 23.391 229.891 23.3881 229.785 23.3763C229.785 23.3763 229.785 23.3763 229.776 23.376C229.777 23.3315 229.778 23.287 229.779 23.2426C229.619 23.2382 229.468 23.2341 229.308 23.2297C229.273 23.211 229.238 23.1922 229.203 23.1734C229.159 23.1544 229.106 23.1441 229.053 23.1426C229.072 23.0897 229.074 23.0275 229.048 22.9733C229.049 22.9645 229.049 22.9556 229.049 22.9467L229.032 22.9195ZM224.04 24.9384C224.04 24.9384 224.04 24.9384 224.04 24.9473L224.04 24.9384ZM169.85 25.1731C169.908 24.9966 170.001 24.8478 170.094 24.6989C170.346 24.2873 170.65 23.8949 170.893 23.4741C171.21 22.9307 171.72 22.4816 171.836 21.817C171.829 21.7633 171.821 21.7097 171.823 21.6652C172.893 20.2608 173.928 18.8288 175.068 17.4797C175.068 17.4797 175.068 17.4797 175.068 17.4708C175.068 17.4708 175.068 17.4708 175.077 17.471C175.185 17.4294 175.267 17.3515 175.323 17.2551C175.324 17.2195 175.343 17.1933 175.352 17.158C175.678 16.9443 175.84 16.5569 176.192 16.3617C176.409 15.9402 176.834 15.6846 177.067 15.2725C177.094 15.2732 177.112 15.2559 177.13 15.2475C177.22 15.1965 177.276 15.1179 177.306 15.0119C177.685 15.1113 177.801 14.7672 178.02 14.5861C178.922 13.7915 179.497 12.5963 180.813 12.2937C180.93 12.2702 180.995 12.1562 180.999 12.0227C180.999 12.0227 180.999 12.0227 181.007 12.023C181.094 12.1055 181.201 12.1173 181.308 12.1024C181.362 12.0861 181.424 12.0788 181.478 12.0625C181.67 12.1835 181.857 12.1797 182.048 12.0335C182.37 11.971 182.541 12.2339 182.777 12.365C182.794 12.3922 182.794 12.4189 182.811 12.4371C182.82 12.4374 182.828 12.4554 182.837 12.4557C182.904 12.5999 182.99 12.7358 183.084 12.8719C183.099 12.9525 183.106 13.0328 183.113 13.1131C183.152 13.3012 183.246 13.4551 183.403 13.5573C183.412 13.5576 183.429 13.5758 183.438 13.585C183.65 14.6147 183.12 15.4551 182.678 16.3245C182.659 16.3685 182.632 16.4123 182.612 16.4652C181.708 18.6398 180.194 20.326 178.402 21.8086C178.174 21.9983 177.903 22.1601 177.876 22.4977C177.483 22.5494 177.2 22.7999 176.9 23.0321C175.329 24.2448 173.646 25.2675 171.844 26.1088C171.493 26.2773 171.134 26.3833 170.734 26.3813C169.826 26.3833 169.577 26.0471 169.85 25.182L169.85 25.1731ZM167.883 24.5764C167.883 24.5764 167.883 24.5764 167.901 24.5769C167.901 24.5769 167.891 24.5855 167.882 24.5942C167.882 24.5942 167.883 24.5764 167.883 24.5675L167.883 24.5764ZM119.176 31.2109C119.069 31.2347 118.962 31.2584 118.854 31.2733C118.954 31.2226 119.061 31.1899 119.176 31.2109ZM35.7349 42.6608C35.7349 42.6608 35.7339 42.6964 35.7334 42.7142C35.7246 42.7139 35.7073 42.6957 35.6986 42.6865C35.7075 42.6868 35.7169 42.6692 35.726 42.6606L35.7349 42.6608ZM98.8125 74.4191L98.813 74.4013C98.8219 74.4016 98.8308 74.4018 98.8399 74.3932C98.8397 74.4021 98.8217 74.4105 98.8125 74.4191ZM118.586 57.8174C118.586 57.8174 118.613 57.7825 118.623 57.7649C118.632 57.7652 118.641 57.7654 118.649 57.7657C118.622 57.7827 118.604 57.8 118.577 57.8171L118.586 57.8174ZM121.856 42.8944C121.734 43.1315 121.577 43.3587 121.49 43.6057C121.037 44.8755 120.321 46.0224 119.86 47.292C119.756 47.494 119.53 47.6392 119.576 47.9165C118.921 49.0918 118.468 50.3616 117.893 51.5747C117.644 51.9063 117.535 52.304 117.426 52.6928C117.107 53.3074 116.929 53.9792 116.706 54.632C116.63 54.8436 116.385 54.9884 116.44 55.257C116.188 55.7042 115.909 56.1329 115.736 56.6179C115.58 56.7828 115.556 57.0137 115.418 57.188C115.193 57.6093 114.96 58.0214 114.735 58.4427C114.563 58.527 114.558 58.7317 114.439 58.862C113.899 59.7377 113.359 60.6134 112.819 61.4891C112.493 61.6939 112.518 62.0863 112.333 62.3662C111.743 63.4364 111.136 64.4884 110.363 65.4379C110.137 65.5653 109.955 65.7384 109.903 66.0041C109.693 66.221 109.482 66.4289 109.272 66.6458C108.823 66.8028 108.555 67.1605 108.314 67.5368C108.086 67.7354 107.858 67.9429 107.63 68.1415C107.511 68.2629 107.263 68.2383 107.23 68.4689C106.978 68.5511 106.761 68.6877 106.578 68.8786C106.514 68.9303 106.451 68.982 106.387 69.0337C106.05 69.3094 105.611 69.431 105.317 69.7703C105.254 69.822 105.19 69.8737 105.126 69.9253C104.961 70.1167 104.658 70.1352 104.527 70.3809C104.373 70.4836 104.21 70.5682 104.048 70.6617C103.567 71.0048 103.052 71.3024 102.503 71.519C101.352 71.9863 100.2 72.4624 99.0401 72.9206C97.2955 73.6121 95.5675 74.3486 93.7159 74.7256C93.5789 74.8555 93.3774 74.7431 93.2411 74.8463C93.2044 74.8898 93.1597 74.8975 93.116 74.8696C92.9249 75.0246 92.6547 74.8214 92.48 75.0303C92.3183 75.0883 92.1256 74.9762 91.9966 75.1418C91.9687 75.1856 91.9329 75.1935 91.8894 75.1567C91.7268 75.2502 91.5334 75.1648 91.3794 75.2675C91.3426 75.311 91.2979 75.3187 91.2455 75.2817C91.1002 75.3935 90.907 75.2992 90.7532 75.3929C90.6807 75.4444 90.6002 75.46 90.5212 75.4222C90.3044 75.541 90.0332 75.3733 89.8324 75.5637L89.8501 75.5642C89.7052 75.6582 89.5119 75.5728 89.3581 75.6666C89.2778 75.6733 89.1885 75.6887 89.1082 75.6954C88.9458 75.78 88.7433 75.7033 88.5804 75.8057C88.5436 75.8492 88.49 75.8567 88.4463 75.8287C88.3007 75.9494 88.1078 75.8463 87.9629 75.9403C87.8738 75.9467 87.7844 75.9621 87.6864 75.9683C87.5326 76.0621 87.339 75.9856 87.1766 76.0702C87.1232 76.0688 87.0694 76.0851 87.0158 76.0926C86.7864 76.024 86.6043 76.1793 86.3986 76.2182C86.353 76.2615 86.3083 76.2692 86.2559 76.2321C86.1103 76.3528 85.9174 76.2496 85.7725 76.3436C85.692 76.3593 85.6029 76.3657 85.5224 76.3814C85.36 76.466 85.1575 76.3892 84.9945 76.4916C84.9578 76.5352 84.9131 76.5428 84.8607 76.5058C84.6699 76.652 84.4074 76.4935 84.2168 76.6307C84.1801 76.6743 84.1354 76.682 84.0919 76.6451C83.9465 76.7569 83.7534 76.6626 83.5996 76.7564L83.3231 76.7845C83.1239 76.9126 82.8697 76.7722 82.6617 76.9001C82.5893 76.9426 82.5175 76.9674 82.4387 76.9207C82.1595 77.0467 81.8369 76.8064 81.5726 77.0396L81.5272 77.074L81.4835 77.0461C81.1144 77.2052 80.7027 76.9714 80.3327 77.1661L80.2964 77.1918L80.2615 77.1642C79.9377 77.2978 79.5778 77.1189 79.2535 77.2703C79.1633 77.3124 79.0829 77.328 78.9863 77.2808C78.5264 77.5087 78.0126 77.103 77.5686 77.4025C77.1628 77.6052 76.7016 77.2276 76.3027 77.5016C76.2212 77.5528 76.1321 77.5593 76.0444 77.5124C75.6949 77.6097 75.3398 77.5823 74.9953 77.4928C74.7392 77.4235 74.4992 77.4169 74.2978 77.6251C74.028 77.7335 73.7455 77.6546 73.4605 77.6647C73.2289 77.6762 72.9837 77.5359 72.7568 77.6989C72.5442 77.6664 72.34 77.652 72.1178 77.6459C71.5134 77.6295 70.9094 77.5952 70.3044 77.5966C70.1711 77.593 70.037 77.616 69.9119 77.6393C69.4453 77.7869 68.9506 77.6577 68.4764 77.7605C67.752 77.9011 67.026 77.7745 66.2964 77.7813C65.9852 77.7729 65.6739 77.7733 65.3719 77.7562C63.8264 77.6696 62.2758 77.7699 60.7429 77.5501C60.5663 77.5007 60.3893 77.4692 60.2023 77.473C59.6964 77.4325 59.1695 77.5072 58.6758 77.3424C58.5521 77.3124 58.4284 77.2823 58.304 77.2789C57.8516 77.231 57.3872 77.2985 56.9555 77.1442C56.7964 77.1043 56.6283 77.073 56.4594 77.0684C55.9359 77.0186 55.3997 77.1108 54.888 76.9544C54.8084 76.9344 54.7289 76.9145 54.6494 76.8945C54.1363 76.7915 53.5993 76.9104 53.0972 76.7276C52.9824 76.6978 52.8584 76.6766 52.7342 76.6643C52.2996 76.6169 51.853 76.6848 51.421 76.5395C51.3415 76.5196 51.262 76.4996 51.1823 76.4885C50.7926 76.4245 50.3906 76.4848 50.0118 76.3498C49.897 76.32 49.7819 76.299 49.6666 76.287C49.3648 76.261 49.0621 76.2705 48.7714 76.1647C48.6302 76.1252 48.4796 76.1033 48.3376 76.0905C48.1242 76.0847 47.92 76.0703 47.7175 75.9935C47.6469 75.9738 47.5852 75.9543 47.5143 75.9435C47.2839 75.9105 47.0436 75.9129 46.8147 75.8265C46.753 75.807 46.6823 75.7873 46.6204 75.7767C46.3549 75.7249 46.0791 75.7263 45.8237 75.6304C45.7267 75.601 45.6294 75.5806 45.523 75.5688C45.3276 75.5545 45.1326 75.5314 44.9387 75.4638C44.877 75.4443 44.8152 75.4248 44.7444 75.414C44.5584 75.3822 44.3631 75.368 44.1781 75.3006C44.1164 75.2812 44.0546 75.2617 43.9929 75.2422C43.7716 75.2005 43.5499 75.1767 43.3387 75.0908C43.2417 75.0615 43.1533 75.0413 43.0557 75.0297C42.8962 75.0076 42.737 74.9765 42.5873 74.919C42.4902 74.8897 42.4018 74.8694 42.3043 74.8579C42.1445 74.8446 41.9855 74.8047 41.8356 74.7561C41.7474 74.727 41.6501 74.7065 41.5526 74.695C41.4017 74.682 41.2422 74.6598 41.1014 74.6025C41.0397 74.5831 40.9868 74.5638 40.9251 74.5443C40.7127 74.5029 40.4907 74.488 40.2885 74.4024C40.2267 74.3829 40.165 74.3634 40.103 74.3528C39.9168 74.3299 39.7218 74.3068 39.5459 74.2308C39.4842 74.2113 39.4224 74.1918 39.3607 74.1723C38.9621 74.108 38.5734 74.0084 38.1944 73.8824C38.1326 73.8629 38.062 73.8431 38.0003 73.8236C37.5664 73.7495 37.1424 73.64 36.7179 73.5483C36.6561 73.5289 36.5944 73.5094 36.5235 73.4985C36.3645 73.4586 36.205 73.4364 36.0553 73.3789C35.9936 73.3595 35.9318 73.34 35.8701 73.3205C35.6488 73.2788 35.418 73.2637 35.2073 73.16C35.1458 73.1316 35.0752 73.1119 35.0134 73.0924C34.2091 72.9013 33.4144 72.6838 32.6096 72.5105C32.539 72.4908 32.4773 72.4713 32.4067 72.4516C32.2476 72.4116 32.0792 72.3893 31.9207 72.3315C31.8589 72.312 31.7972 72.2925 31.7354 72.2731C31.585 72.2422 31.4258 72.2112 31.285 72.1539C31.2233 72.1345 31.1704 72.1152 31.1087 72.0957C30.923 72.0551 30.7462 72.0146 30.5701 71.9475C30.4202 71.8989 30.2705 71.8414 30.1295 71.793C29.9532 71.7348 29.7672 71.7031 29.5909 71.6448C29.5292 71.6253 29.4763 71.6061 29.4143 71.5955C29.2639 71.5647 29.1133 71.5428 28.9725 71.4855C28.9197 71.4663 28.8579 71.4468 28.7962 71.4273C28.6194 71.3869 28.4423 71.3554 28.2754 71.2796C28.2136 71.2601 28.1519 71.2406 28.0988 71.2303C27.9395 71.1992 27.7807 71.1504 27.6311 71.0929C27.534 71.0635 27.437 71.0342 27.3305 71.0224C26.9503 70.9408 26.57 70.8592 26.1902 70.7598C26.0931 70.7305 25.9869 70.7098 25.8805 70.698C25.7121 70.6756 25.5439 70.6443 25.3851 70.5955C25.2881 70.5661 25.1908 70.5457 25.0932 70.5341C24.8979 70.5199 24.7112 70.5148 24.5265 70.4385C24.4648 70.4191 24.403 70.3996 24.3413 70.3801C24.12 70.3384 23.8981 70.3235 23.6869 70.2376C23.6252 70.2181 23.5634 70.1986 23.4925 70.1878C23.2888 70.1555 23.0851 70.1233 22.9004 70.047C22.8297 70.0273 22.7594 69.9987 22.6974 69.9881C21.7244 69.7835 20.7719 69.4816 19.8377 69.1623C19.2287 68.9855 18.668 68.6675 18.0287 68.6234C17.9838 68.64 17.9391 68.6477 17.8853 68.664C17.8769 68.646 17.8593 68.6366 17.8509 68.6185C17.6412 68.4793 17.4402 68.3492 17.1735 68.3419L17.1197 68.3582L17.0853 68.3128C16.3964 67.8043 15.6222 67.4894 14.7902 67.3332C14.6264 67.1418 14.4439 66.9855 14.1664 67.0491C14.0076 67.0003 13.8098 67.075 13.7085 66.8764C13.4609 66.4957 13.0445 66.4309 12.6462 66.3578C12.3991 65.9593 11.9631 65.9652 11.5835 65.8569C11.3567 65.6905 11.1485 65.4979 10.8472 65.454C10.8042 65.3995 10.7463 65.567 10.705 65.4502C10.6793 65.4139 10.6353 65.3949 10.5911 65.3847L10.5378 65.3833L10.5119 65.3559C9.58681 64.6985 8.59639 64.1551 7.60645 63.594C7.11672 62.9574 6.55443 62.3722 5.95489 61.8484C5.84345 61.694 5.79544 61.4968 5.62056 61.3852C5.20697 60.8931 4.83854 60.3756 4.75892 59.7056C4.75826 59.4029 4.77563 59.0917 4.51501 58.862C4.46361 58.7894 4.44801 58.7088 4.48599 58.6208C4.37624 58.4042 4.50796 58.1406 4.37154 57.9232L4.3372 57.8778L4.36556 57.8162C4.22939 57.5899 4.4226 57.3548 4.33976 57.1299C4.32246 57.1116 4.3143 57.0847 4.29725 57.0575C4.32585 56.9871 4.30112 56.9152 4.25886 56.8339C4.2178 56.7081 4.22144 56.5746 4.23371 56.4503C4.28203 56.3092 4.28567 56.1757 4.28065 56.0331C4.28356 55.9264 4.28622 55.8285 4.26246 55.721C4.26391 55.6676 4.27401 55.6234 4.31054 55.5887C4.41268 55.4312 4.34689 55.2336 4.44879 55.085C4.43616 54.5682 4.73103 54.1934 4.99971 53.8C5.03575 53.7832 5.08092 53.7577 5.11696 53.7409C5.38581 53.6681 5.56868 53.486 5.72584 53.2677C5.79049 53.1805 5.84649 53.084 5.90249 52.9876C5.91186 52.9701 5.92988 52.9616 5.94814 52.9443C6.83276 52.7992 7.68352 52.5909 8.26556 51.7965C8.6102 51.2271 9.19646 50.9314 9.70515 50.5446C9.75848 50.5461 9.81182 50.5475 9.86564 50.5312C10.0466 50.4203 10.2441 50.3545 10.4581 50.3336C10.9158 50.1858 11.3987 50.0921 11.7897 49.7822C11.7904 49.7555 11.7995 49.7468 11.8003 49.7201C12.615 49.5286 13.4134 49.2832 14.1786 48.9479C14.1962 48.9573 14.2137 48.9667 14.2312 48.9761C14.3024 48.978 14.3742 48.9532 14.4376 48.9104C14.4381 48.8926 14.4475 48.8751 14.4569 48.8575C15.7485 48.4653 17.0234 48.037 18.2655 47.501C18.292 47.5106 18.3184 47.5202 18.3446 47.5387C18.4159 47.5318 18.4791 47.4979 18.5339 47.4459C18.5342 47.437 18.5433 47.4284 18.5527 47.4108C19.3145 47.2001 20.0687 46.9446 20.7977 46.635C20.8241 46.6446 20.8505 46.6542 20.8767 46.6727C20.9483 46.6569 21.0115 46.623 21.0663 46.571C21.0663 46.571 21.0665 46.5621 21.0757 46.5535C22.259 46.2206 23.4514 45.8791 24.6102 45.4655L24.6808 45.4852L24.7353 45.4422C25.0736 45.4336 25.3876 45.3353 25.6853 45.1831C25.915 45.2428 26.0887 45.0694 26.2944 45.0305C26.4717 45.0531 26.6415 45.0221 26.7783 44.9012L26.8489 44.9209L26.9123 44.8781C27.2506 44.8695 27.5644 44.7801 27.8623 44.6191L27.933 44.6388L27.9964 44.596C28.2996 44.5687 28.6033 44.5235 28.8829 44.3797C28.9096 44.3805 28.9368 44.3634 28.9639 44.3463L29.0345 44.3661L29.0891 44.323C29.8394 44.2099 30.5907 44.0612 31.3009 43.7867L31.3715 43.8064L31.4261 43.7634C31.7821 43.7552 32.1134 43.6752 32.4378 43.5238C32.5183 43.5082 32.5988 43.4925 32.6793 43.4769C33.018 43.4505 33.3397 43.397 33.6379 43.227L33.7085 43.2467L33.772 43.2039C34.1102 43.1953 34.4235 43.1237 34.7215 42.9627C35.1131 42.9555 35.4713 42.8673 35.8228 42.6988C36.1971 42.6734 36.5554 42.5852 36.9059 42.4523C36.9499 42.4713 37.003 42.4816 37.0474 42.4828C37.1185 42.4848 37.1904 42.46 37.2535 42.4261C37.3074 42.4098 37.3439 42.3751 37.3715 42.3403C38.0238 42.2334 38.6591 42.0993 39.2873 41.8938C39.314 41.8945 39.3404 41.9042 39.3758 41.914C39.4469 41.916 39.5101 41.8821 39.5735 41.8393C39.5735 41.8393 39.5735 41.8393 39.5737 41.8304C39.9204 41.8398 40.2433 41.7417 40.5578 41.6256C40.5931 41.6355 40.6277 41.6721 40.6722 41.6733C40.7788 41.6762 40.8862 41.6524 40.9684 41.5745C40.9689 41.5567 40.978 41.548 40.9874 41.5305C41.2365 41.5284 41.4691 41.4813 41.7022 41.4164C41.7995 41.4368 41.897 41.4484 42.0133 41.4249C42.0849 41.409 42.1476 41.3929 42.2108 41.359C42.2557 41.3424 42.2656 41.3071 42.293 41.2811C42.3641 41.283 42.4352 41.285 42.5061 41.2958L42.5693 41.2619L42.6399 41.2816C42.7956 41.1167 43.0341 41.1766 43.223 41.1016C43.2497 41.1024 43.267 41.1206 43.2934 41.1303C43.3998 41.1421 43.5067 41.1361 43.6057 41.0942C43.6679 41.0959 43.6958 41.0522 43.7239 40.9995C43.8484 41.0029 43.9644 40.9882 44.0738 40.8933C44.1175 40.9212 44.1614 40.9402 44.2145 40.9505C44.3928 40.9376 44.5631 40.8888 44.7172 40.7861C44.7174 40.7772 44.7265 40.7686 44.7359 40.751C45.5926 40.6497 46.4333 40.4856 47.2581 40.2498C47.2754 40.2681 47.2927 40.2864 47.31 40.3047C47.4162 40.3254 47.5233 40.3105 47.631 40.2778C47.6939 40.2528 47.7393 40.2184 47.7675 40.1657C48.0613 40.1559 48.3477 40.0925 48.6261 39.9932C48.6701 40.0122 48.7141 40.0312 48.7674 40.0327C48.883 40.0358 48.9815 40.0118 49.0723 39.943C49.0905 39.9257 49.0999 39.9082 49.1093 39.8906C49.4387 39.8818 49.7517 39.8191 50.0571 39.7116C50.0835 39.7213 50.1008 39.7395 50.1273 39.7492C50.2334 39.7699 50.3403 39.7639 50.4482 39.7223C50.467 39.6872 50.4766 39.6607 50.4953 39.6256C50.8247 39.6168 51.1378 39.5541 51.4429 39.4555C51.513 39.493 51.6108 39.4957 51.7 39.4892C51.7716 39.4734 51.8434 39.4486 51.8979 39.4056C51.9253 39.3796 51.9347 39.3621 51.9532 39.3359C52.7655 39.2333 53.5783 39.113 54.3668 38.9029C54.4459 38.9407 54.5434 38.9523 54.6325 38.9458C54.7039 38.9388 54.7757 38.9141 54.8389 38.8802C54.8663 38.8542 54.9026 38.8285 54.9211 38.8023C55.2596 38.7848 55.5902 38.7314 55.9126 38.6512C55.9832 38.6709 56.0635 38.6642 56.162 38.6401C56.1891 38.6231 56.1988 38.5966 56.217 38.5793C56.6706 38.5828 57.0999 38.4965 57.53 38.3836C57.6617 38.4495 57.7938 38.4976 57.9538 38.5019C58.2378 38.5275 58.5145 38.4905 58.8004 38.4448C60.2213 38.2075 61.6333 37.9699 63.0695 37.822C72.7412 36.438 82.3895 34.9287 92.1341 34.1344C93.3738 34.0168 94.6099 34.0326 95.8406 34.2442C96.2654 34.3269 96.6918 34.3475 97.1192 34.3324C98.2661 34.3547 99.4219 34.3772 100.568 34.4262C100.959 34.4547 101.341 34.4473 101.725 34.4132C103.312 34.2872 104.907 34.1971 106.501 34.1069C108.328 34.0053 110.154 33.9214 111.979 33.8642C114.187 33.7908 116.397 33.6372 118.62 33.6888C119.633 33.7164 119.999 34.0024 120.293 34.972C120.611 36.0313 120.839 37.1149 121.095 38.1903C121.325 38.891 121.376 39.6226 121.651 40.3067C121.744 40.4784 121.793 40.6578 121.832 40.8459C121.848 40.9176 121.873 40.9895 121.906 41.0616C121.906 41.0616 121.906 41.0616 121.915 41.0707C121.868 41.1407 121.848 41.2203 121.882 41.3013C122.117 41.8153 121.934 42.3356 121.937 42.8521L121.856 42.8944ZM129.04 29.6362C128.273 30.3633 127.285 30.7014 126.391 31.1935C126.22 31.2868 126.043 31.2464 125.876 31.1528C125.386 30.8812 124.867 30.6534 124.405 30.3025C124.021 30.0161 123.818 29.6633 123.883 29.2287C123.909 28.5973 124.119 28.0688 124.391 27.5686C125.261 25.9896 126.453 24.6865 127.896 23.6128C130.085 21.9806 132.518 20.827 135.061 19.8723C135.556 19.6898 136.047 19.5964 136.557 19.8328C137.057 20.0691 137.168 20.2591 137.073 20.7996C136.955 21.5354 136.583 22.1486 136.062 22.6686C135.119 23.6224 134.177 24.5673 133.235 25.5211C131.854 26.9081 130.456 28.2768 129.032 29.6182L129.04 29.6362ZM148.091 35.9778C146.54 36.4342 144.963 36.8365 143.356 37.0599C143.204 37.0825 143.044 37.087 142.892 37.0918C142.518 37.1261 142.237 36.9938 142.05 36.6682C141.846 36.2976 141.953 35.9711 142.193 35.6659C143.5 34.0454 145.139 32.9859 147.246 32.696C147.952 32.5995 148.489 32.81 149.029 33.1987C149.378 33.4575 149.522 33.7463 149.483 34.1726C149.395 35.1407 149.006 35.7 148.082 35.9687L148.091 35.9778ZM199.151 36.3524C199.151 36.3524 199.178 36.3442 199.196 36.3358C199.195 36.3447 199.195 36.3536 199.195 36.3625C199.177 36.362 199.168 36.3618 199.15 36.3613L199.151 36.3524ZM199.223 36.3099C199.223 36.3099 199.223 36.301 199.224 36.2921C199.224 36.2921 199.223 36.301 199.232 36.3101C199.232 36.3101 199.223 36.3099 199.214 36.3096L199.223 36.3099ZM240.303 36.3149C240.202 36.4279 240.066 36.5222 239.931 36.5897C239.129 36.9597 238.279 37.1502 237.521 37.2097C236.952 37.1942 236.419 36.8325 236.313 36.4734C236.216 36.1324 236.451 35.658 236.894 35.3941C237.518 35.0193 238.227 34.816 238.94 34.7464C239.475 34.6986 239.974 35.0149 240.419 35.3297C240.637 35.487 240.55 36.0545 240.303 36.3149ZM241.257 32.3163C241.257 32.3163 241.257 32.2985 241.258 32.2807C241.276 32.2812 241.284 32.2904 241.302 32.2997C241.284 32.2993 241.266 32.2988 241.248 32.3072L241.257 32.3163ZM348.73 6.98932C348.73 6.98932 348.73 6.98932 348.721 6.98908C348.721 6.98908 348.721 6.98908 348.721 6.98018L348.73 6.98932ZM310.563 33.6416C309.707 34.6868 308.603 35.3779 307.362 35.8695C307.029 35.994 306.708 36.012 306.383 35.8607C306.031 35.7353 305.829 35.3202 305.393 35.3351C305.339 35.3336 305.304 35.3327 305.259 35.3226C305.313 35.2973 305.368 35.2721 305.44 35.2295C304.799 33.6094 304.48 31.9446 304.607 30.194C304.609 30.1228 304.576 30.0418 304.542 29.9696C304.472 29.9499 304.427 29.9487 304.365 29.9381C304.401 29.9213 304.419 29.9128 304.455 29.896C304.752 29.7883 304.768 29.5128 304.81 29.2646C304.903 28.7952 305.04 28.336 305.207 27.7706C306.476 29.8264 308.082 31.3036 310.302 32.0941C311.077 32.3734 311.151 32.9453 310.58 33.6421L310.563 33.6416ZM316.122 27.1239C316.122 27.1239 316.14 27.0977 316.149 27.089C316.149 27.1068 316.149 27.1157 316.157 27.1249C316.14 27.1244 316.131 27.1241 316.122 27.1239ZM337.874 28.0097C337.056 28.6464 335.293 28.7052 334.516 28.1588C334.124 27.8809 334.024 27.6111 334.364 27.2197C334.576 26.9672 334.805 26.7153 334.859 26.3695C335.677 26.0534 336.392 25.5921 336.918 24.8852C336.927 24.8854 336.936 24.8857 336.954 24.8861C337.158 24.8917 337.329 24.834 337.484 24.7047C337.52 24.679 337.539 24.6438 337.566 24.609C337.833 24.6073 338.1 24.6235 338.346 24.737C338.345 24.7815 338.361 24.8265 338.369 24.8623C338.394 24.9342 338.419 25.0061 338.452 25.0783C338.897 26.0431 338.628 27.4337 337.874 28.0186L337.874 28.0097ZM351.388 31.8856C351.133 32.1102 350.826 32.2532 350.529 32.3965C347.598 33.8749 344.484 34.8586 341.338 35.7435C340.863 35.873 340.38 35.949 339.892 35.9268C338.79 35.8701 338.575 35.606 338.773 34.534C338.826 34.2238 338.949 33.9423 339.081 33.6698C339.241 33.3447 339.419 33.0379 339.588 32.7131C340.227 31.4483 341.064 30.4205 342.574 30.1855C342.718 30.1182 342.862 30.0687 343.022 30.0731C343.146 30.0765 343.254 30.0616 343.361 30.0378C343.449 30.0669 343.537 30.1138 343.624 30.1963C343.813 30.4329 344.091 30.3604 344.339 30.3671C345.539 30.3998 346.74 30.4325 347.94 30.4651C348.988 30.4937 350.029 30.5042 351.078 30.5327C351.398 30.5414 351.623 30.7524 351.868 30.9193C351.876 30.9462 351.893 30.9645 351.902 30.9914C351.935 31.4108 351.661 31.6527 351.397 31.8859L351.388 31.8856ZM357.481 22.097C357.234 22.3484 357.36 22.619 357.406 22.8874C357.397 22.9138 357.387 22.9314 357.378 22.9578C357.369 22.9576 357.351 22.9393 357.342 22.939C357.332 22.9833 357.323 23.0186 357.312 23.0629C357.301 23.1427 357.29 23.2226 357.279 23.3113C357.14 23.5123 357.266 23.7739 357.136 23.9841C357.125 24.0728 357.105 24.1524 357.094 24.2411C356.991 24.3986 357.048 24.605 356.964 24.7629C356.997 24.8529 356.977 24.9325 356.922 25.0022C356.819 25.1597 356.885 25.3574 356.783 25.506C356.761 25.6834 356.747 25.87 356.724 26.0475C356.706 26.0648 356.687 26.091 356.669 26.1083C356.542 26.2028 356.45 26.3249 356.41 26.4752C356.13 27.5984 355.333 28.1287 354.268 28.3669C353.991 28.4305 353.707 28.3961 353.431 28.3886C351.689 28.3412 349.947 28.2938 348.205 28.2464C347.956 28.2396 347.707 28.2328 347.457 28.2616C346.71 28.2413 345.972 28.2212 345.226 28.2009C345.119 28.2158 345.011 28.2307 344.904 28.2456C344.327 28.2032 343.781 28.0102 343.225 27.8615C343.208 27.8254 343.209 27.7899 343.21 27.7543C342.761 27.2434 342.867 26.6053 342.83 25.9988C342.912 25.6092 343.073 25.2575 343.304 24.9343C343.385 24.5715 343.545 24.2464 343.767 23.9497C343.829 23.9514 343.848 23.9163 343.805 23.8617C343.904 23.4815 344.065 23.1208 344.296 22.7977C344.377 22.4348 344.537 22.1186 344.759 21.8219C345.135 21.3959 345.45 20.9415 345.413 20.335C345.564 20.0097 345.68 19.6656 345.911 19.378C346.091 19.285 346.095 19.1337 346.073 18.964C346.206 18.647 346.331 18.321 346.534 18.0327C346.65 18.0358 346.678 17.9921 346.6 17.9009C346.656 17.4751 346.976 17.1632 347.05 16.7468C347.067 16.7472 347.085 16.7388 347.103 16.7393C347.222 16.6357 347.296 16.5042 347.327 16.3536C347.512 16.4121 347.597 16.2363 347.663 16.1224C348.018 15.4998 348.443 14.9149 348.71 14.2365C349.112 13.2146 348.86 12.0057 348.071 11.2453C347.785 10.9615 347.483 10.971 347.149 11.1311C346.492 11.4338 346.025 11.9197 345.696 12.5607C344.748 14.378 343.486 15.9642 342.093 17.4577C342.011 17.5356 341.929 17.6135 341.856 17.6917C341.082 18.6678 340.135 19.4701 339.171 20.2363C339.043 20.3664 338.906 20.4873 338.77 20.6083C338.012 21.3089 337.186 21.9186 336.36 22.5283C334.091 24.185 331.642 25.5696 329.323 27.1359C328.144 27.9319 326.865 28.5382 325.535 29.0273C323.864 29.6407 322.111 29.9581 320.383 30.3829C320.052 30.463 319.715 30.4182 319.386 30.4181C318.799 30.4199 318.396 30.1775 318.234 29.5943C318.133 29.369 318.158 29.1115 318.084 28.878C318.089 28.7178 318.093 28.5576 318.097 28.4064C318.196 28.0351 318.304 27.6641 318.403 27.2928C318.601 26.5503 318.923 25.8378 318.989 25.065C319.017 25.0034 319.037 24.9327 319.056 24.8709C319.143 24.624 319.185 24.3758 319.184 24.1176C319.224 23.9228 319.212 23.7266 319.182 23.5299C319.051 23.0989 318.766 22.7973 318.38 22.5821C318.01 22.4651 317.636 22.4728 317.252 22.5158C317.091 22.547 316.947 22.6143 316.811 22.7263C316.419 23.0718 316.369 23.6136 316.064 24.006C315.728 24.6023 315.523 25.2556 315.354 25.9188C315.329 26.1763 315.225 26.3961 315.077 26.5969C314.957 26.7806 314.889 26.9746 314.848 27.1961C314.805 27.4709 314.718 27.7268 314.543 27.9446C314.282 28.3649 314.083 28.8225 313.875 29.2709C313.748 29.677 313.484 29.9013 313.064 29.979C312.992 29.9948 312.93 30.0109 312.858 30.0357C312.446 30.1224 312.037 30.1113 311.64 30.0025C311.578 29.983 311.508 29.9633 311.437 29.9525C311.269 29.9212 311.101 29.881 310.951 29.8146C310.89 29.7862 310.819 29.7665 310.757 29.747C310.159 29.5081 309.598 29.2079 309.231 28.6459C309.171 28.5552 309.12 28.4737 309.06 28.383C308.76 27.9475 308.879 27.5144 309.069 27.0833C309.097 27.0217 309.117 26.9511 309.136 26.8893C309.185 26.7214 309.252 26.563 309.292 26.3949C309.304 26.2795 309.289 26.1722 309.212 26.0811C309.239 26.0462 309.276 26.0027 309.295 25.9587C309.295 25.9409 309.296 25.9231 309.296 25.9053C309.353 25.8 309.356 25.6754 309.386 25.5605C309.361 25.4886 309.327 25.4253 309.248 25.4053C309.248 25.3964 309.248 25.3876 309.24 25.3784C309.179 25.3233 309.109 25.2769 309.038 25.2483C308.65 25.1576 308.249 25.1734 307.848 25.1803C307.42 25.2132 307.058 25.4437 306.671 25.6112C306.419 25.7379 306.166 25.8646 305.897 25.9552C305.681 26.0384 305.459 26.0323 305.237 25.9996C305.24 25.9017 305.243 25.8039 305.307 25.7255C305.405 25.0782 305.652 24.4883 305.944 23.9086C306.099 23.7526 306.316 23.616 306.172 23.3539C306.181 23.3541 306.191 23.3366 306.2 23.3279C306.209 23.3282 306.226 23.3375 306.235 23.3467C306.714 23.0659 306.808 22.5609 306.963 22.0932C306.947 22.0038 306.967 21.9509 307.065 21.918C307.173 21.8942 307.246 21.8249 307.31 21.7466C307.925 21.0421 308.253 20.125 308.946 19.4761C309.01 19.4155 309.005 19.2818 309.043 19.1938C309.402 19.07 309.518 18.7348 309.686 18.4456C310.165 18.1915 310.574 17.8731 310.634 17.2871C310.813 17.2475 310.967 17.1448 311.121 17.0422C311.176 16.9991 311.221 16.947 311.258 16.8946C311.37 16.7106 311.561 16.5733 311.603 16.343C311.629 16.3615 311.637 16.3706 311.664 16.3892C312.462 16.1438 312.969 15.4987 313.604 15.0263C318.473 11.3479 323.912 8.91381 329.847 7.53498C333.016 6.80207 336.222 6.33729 339.467 6.07836C339.903 6.07241 340.34 6.06647 340.776 6.06053C341.405 6.13999 342.035 6.18386 342.669 6.10317C343.229 6.12731 343.797 6.16948 344.356 6.2381C345.578 6.43164 346.8 6.63407 347.982 7.01349C348.229 7.09144 348.475 7.17829 348.721 6.99798C348.729 6.99822 348.738 6.99846 348.747 7.0076C348.764 7.01698 348.764 7.03478 348.781 7.05305C348.799 7.05354 348.817 7.05402 348.844 7.05475C349.107 7.17767 349.371 7.30059 349.634 7.42351C349.668 7.47787 349.711 7.53246 349.736 7.60436C349.84 7.71403 349.972 7.77105 350.122 7.79295C350.202 7.79513 350.282 7.79731 350.362 7.79059C351.316 8.36859 352.169 9.07739 353.012 9.80374C353.011 9.82153 353.011 9.83043 353.011 9.84822C353.058 10.0721 353.196 10.245 353.342 10.4093C353.524 10.5923 353.688 10.7927 353.907 10.9233C353.977 10.9519 354.038 10.9803 354.109 11C354.118 11.0002 354.127 11.0005 354.136 11.0007C354.962 12.0293 355.679 13.1262 356.324 14.2746C356.322 14.3458 356.311 14.4167 356.318 14.4881C356.314 14.6394 356.382 14.7748 356.485 14.8844C356.554 14.9575 356.615 15.0393 356.684 15.1124C356.717 15.1935 356.75 15.2834 356.721 15.3895C356.917 16.0092 357.114 16.62 357.311 17.2397C357.328 17.2669 357.354 17.2943 357.371 17.3215C357.371 17.3215 357.38 17.3217 357.389 17.3131C357.388 17.3487 357.387 17.3842 357.403 17.4292C357.312 17.8541 357.506 18.2512 357.566 18.6624C357.6 18.6989 357.608 18.7436 357.598 18.7879C357.588 18.8143 357.579 18.8319 357.56 18.8581C357.558 18.9471 357.564 19.0363 357.58 19.1168C357.537 20.0506 357.6 20.9872 357.442 21.9089C357.422 21.9796 357.438 22.0424 357.499 22.0885L357.481 22.097ZM363.954 33.6523C363.269 34.3192 362.48 34.8676 361.375 34.9266C360.897 34.8423 360.517 34.4402 360.089 34.1169C359.915 33.9875 360.115 33.8505 360.207 33.7372C360.5 33.4158 360.802 33.0946 361.096 32.7731C361.361 32.4865 361.71 32.4248 362.076 32.3813C362.567 32.3234 363.064 32.3637 363.532 32.5011C364.07 32.6582 364.32 33.2793 363.945 33.652L363.954 33.6523Z" fill="white"/>
</svg>
