<svg width="221" height="56" viewBox="0 0 221 56" fill="none" xmlns="http://www.w3.org/2000/svg">
<g clip-path="url(#clip0_1_110)">
<path d="M175.647 52.2759V46.4768L176.02 46.5017L176.394 46.4768V52.2666L176.02 52.2417L175.647 52.2759Z" fill="#E9222B"/>
<path d="M177.847 52.276V48.2222L178.186 48.2471L178.525 48.2222V48.9938C178.671 48.7355 178.861 48.5333 179.097 48.3902C179.331 48.2471 179.595 48.1755 179.888 48.1755C180.367 48.1755 180.715 48.3093 180.93 48.5738C181.144 48.8382 181.25 49.2551 181.25 49.8275V52.2729L180.911 52.248L180.572 52.2822V50.0266C180.572 49.5755 180.516 49.2395 180.404 49.0249C180.258 48.7542 180 48.6173 179.632 48.6173C179.216 48.6173 178.92 48.7698 178.743 49.0746C178.596 49.336 178.522 49.7466 178.522 50.3098V52.2729L178.183 52.248L177.844 52.2822L177.847 52.276Z" fill="#E9222B"/>
<path d="M182.51 47.379L183.188 47.1177V48.2128H184.084C184.072 48.2906 184.069 48.3497 184.069 48.3901C184.069 48.4306 184.075 48.4772 184.084 48.5332H183.188V50.935C183.188 51.2803 183.216 51.5261 183.272 51.6723C183.369 51.915 183.549 52.0363 183.814 52.0363C183.876 52.0363 183.944 52.027 184.022 52.0115C184.1 51.9959 184.156 51.9835 184.196 51.9772V52.1795C184.06 52.2292 183.938 52.2697 183.832 52.2946C183.724 52.3195 183.608 52.3319 183.484 52.3319C183.145 52.3319 182.902 52.2417 182.756 52.0612C182.591 51.859 182.51 51.5043 182.51 51.0003V48.5301H181.984C181.997 48.4959 182 48.443 182 48.3683C182 48.2999 181.994 48.247 181.984 48.2066H182.51V47.3728V47.379Z" fill="#E9222B"/>
<path d="M188.004 51.4047L187.995 51.8403C187.774 51.9959 187.544 52.1172 187.301 52.2043C187.059 52.2914 186.804 52.335 186.539 52.335C185.942 52.335 185.46 52.1483 185.092 51.775C184.725 51.4016 184.542 50.8945 184.542 50.2505C184.542 49.6065 184.707 49.143 185.033 48.7696C185.382 48.3683 185.867 48.1692 186.48 48.1692C186.981 48.1692 187.385 48.3372 187.69 48.6701C188.029 49.0372 188.197 49.5661 188.197 50.2505L186.48 50.2256H185.285C185.285 50.7296 185.4 51.1403 185.634 51.4545C185.892 51.803 186.265 51.9772 186.751 51.9772C187.009 51.9772 187.261 51.9119 187.504 51.7781C187.668 51.6879 187.833 51.5634 188.004 51.4016V51.4047ZM185.288 49.9145H187.541C187.541 49.479 187.469 49.1367 187.329 48.8941C187.155 48.5861 186.872 48.4336 186.483 48.4336C186.094 48.4336 185.805 48.5892 185.587 48.9003C185.388 49.1772 185.292 49.5163 185.292 49.9145H185.288Z" fill="#E9222B"/>
<path d="M189.156 52.2759V48.2221L189.495 48.247L189.834 48.2127V49.0683L189.877 48.9656C190.03 48.723 190.188 48.5363 190.35 48.4056C190.549 48.247 190.745 48.1692 190.941 48.1692C191.053 48.1692 191.14 48.1816 191.203 48.2127L191.084 48.9252C191.056 48.919 190.997 48.8941 190.907 48.8536C190.817 48.8101 190.742 48.7914 190.686 48.7914C190.59 48.7914 190.49 48.8101 190.391 48.8474C190.288 48.8847 190.207 48.9376 190.145 49.003C190.014 49.1554 189.93 49.311 189.89 49.4696C189.849 49.6283 189.831 49.8305 189.831 50.0794V52.2727L189.492 52.2479L189.152 52.2821L189.156 52.2759Z" fill="#E9222B"/>
<path d="M191.959 52.276V48.2222L192.298 48.2471L192.637 48.2222V48.9938C192.783 48.7355 192.973 48.5333 193.209 48.3902C193.443 48.2471 193.707 48.1755 194 48.1755C194.479 48.1755 194.827 48.3093 195.042 48.5738C195.256 48.8382 195.362 49.2551 195.362 49.8275V52.2729L195.023 52.248L194.684 52.2822V50.0266C194.684 49.5755 194.628 49.2395 194.516 49.0249C194.37 48.7542 194.112 48.6173 193.744 48.6173C193.328 48.6173 193.032 48.7698 192.855 49.0746C192.708 49.336 192.634 49.7466 192.634 50.3098V52.2729L192.295 52.248L191.956 52.2822L191.959 52.276Z" fill="#E9222B"/>
<path d="M199.506 49.5941V51.803C199.522 51.9212 199.6 51.9803 199.733 51.9803C199.808 51.9803 199.889 51.9679 199.979 51.9461V52.1327C199.951 52.1452 199.911 52.1607 199.858 52.1794C199.805 52.1981 199.746 52.2136 199.68 52.2261C199.615 52.2385 199.54 52.2416 199.45 52.2416C199.288 52.2416 199.155 52.2012 199.052 52.1234C198.949 52.0456 198.887 51.9119 198.862 51.7252L198.784 51.7999C198.427 52.1545 198.01 52.3319 197.528 52.3319C197.216 52.3319 196.949 52.2354 196.728 52.0425C196.507 51.8496 196.395 51.6039 196.395 51.299C196.395 50.8696 196.557 50.5616 196.877 50.375C197.076 50.263 197.437 50.1634 197.96 50.0794C198.327 50.0172 198.557 49.9612 198.654 49.9114C198.791 49.8367 198.856 49.7061 198.856 49.5132C198.856 49.199 198.769 48.9532 198.598 48.7821C198.427 48.611 198.181 48.5239 197.867 48.5239C197.596 48.5239 197.36 48.5985 197.154 48.7447C196.996 48.8567 196.896 48.9781 196.859 49.1087H196.765V48.6359C196.986 48.4834 197.207 48.3683 197.431 48.2874C197.655 48.2065 197.885 48.1692 198.128 48.1692C199.043 48.1692 199.5 48.6421 199.5 49.591L199.506 49.5941ZM198.828 51.3954V50.1603L198.532 50.2194C198.041 50.3159 197.73 50.3905 197.602 50.4465C197.263 50.599 197.095 50.8447 197.095 51.1839C197.095 51.4421 197.17 51.6412 197.316 51.775C197.462 51.9119 197.664 51.9772 197.926 51.9772C198.032 51.9772 198.153 51.9461 198.28 51.8807C198.411 51.8154 198.517 51.7407 198.601 51.6567C198.648 51.6163 198.694 51.5696 198.75 51.5167C198.803 51.4639 198.831 51.4234 198.831 51.3954H198.828Z" fill="#E9222B"/>
<path d="M200.853 47.379L201.532 47.1177V48.2128H202.428C202.415 48.2906 202.412 48.3497 202.412 48.3901C202.412 48.4306 202.418 48.4772 202.428 48.5332H201.532V50.935C201.532 51.2803 201.56 51.5261 201.616 51.6723C201.712 51.915 201.892 52.0363 202.157 52.0363C202.219 52.0363 202.288 52.027 202.365 52.0115C202.443 51.9959 202.499 51.9835 202.54 51.9772V52.1795C202.403 52.2292 202.281 52.2697 202.176 52.2946C202.067 52.3195 201.952 52.3319 201.827 52.3319C201.488 52.3319 201.245 52.2417 201.099 52.0612C200.934 51.859 200.853 51.5043 200.853 51.0003V48.5301H200.328C200.34 48.4959 200.343 48.443 200.343 48.3683C200.343 48.2999 200.337 48.247 200.328 48.2066H200.853V47.3728V47.379Z" fill="#E9222B"/>
<path d="M204.207 46.7755C204.207 46.8937 204.163 46.9963 204.079 47.0803C203.995 47.1643 203.893 47.2079 203.775 47.2079C203.656 47.2079 203.554 47.1643 203.47 47.0803C203.386 46.9963 203.342 46.8937 203.342 46.7755C203.342 46.6572 203.386 46.5546 203.47 46.4706C203.554 46.3866 203.656 46.343 203.775 46.343C203.893 46.343 203.986 46.3835 204.076 46.4644C204.164 46.5452 204.207 46.6479 204.207 46.7723V46.7755ZM204.114 48.2221V52.2759L203.775 52.2417L203.436 52.2666V48.219L203.775 48.2439L204.114 48.219V48.2221Z" fill="#E9222B"/>
<path d="M205.246 50.2101C205.246 49.6127 205.452 49.1212 205.859 48.7416C206.267 48.3621 206.78 48.1692 207.396 48.1692C207.978 48.1692 208.451 48.3559 208.815 48.7323C209.179 49.1087 209.362 49.6096 209.362 50.235C209.362 50.8105 209.185 51.2959 208.83 51.691C208.441 52.1203 207.912 52.335 207.247 52.335C206.665 52.335 206.186 52.1421 205.812 51.7563C205.436 51.3705 205.249 50.8541 205.249 50.2101H205.246ZM207.387 48.4336C206.889 48.4336 206.525 48.6359 206.285 49.0434C206.086 49.3763 205.99 49.8087 205.99 50.3376C205.99 50.8167 206.089 51.2119 206.285 51.523C206.516 51.8901 206.858 52.0736 207.309 52.0736C207.76 52.0736 208.096 51.8465 208.332 51.3892C208.519 51.0345 208.612 50.6363 208.612 50.1945C208.612 49.731 208.528 49.3452 208.357 49.0341C208.136 48.6327 207.813 48.4336 207.384 48.4336H207.387Z" fill="#E9222B"/>
<path d="M210.308 52.276V48.2222L210.647 48.2471L210.986 48.2222V48.9938C211.132 48.7355 211.322 48.5333 211.559 48.3902C211.792 48.2471 212.056 48.1755 212.349 48.1755C212.828 48.1755 213.176 48.3093 213.391 48.5738C213.606 48.8382 213.712 49.2551 213.712 49.8275V52.2729L213.372 52.248L213.033 52.2822V50.0266C213.033 49.5755 212.977 49.2395 212.865 49.0249C212.719 48.7542 212.461 48.6173 212.094 48.6173C211.677 48.6173 211.381 48.7698 211.204 49.0746C211.058 49.336 210.983 49.7466 210.983 50.3098V52.2729L210.644 52.248L210.305 52.2822L210.308 52.276Z" fill="#E9222B"/>
<path d="M217.859 49.5941V51.803C217.874 51.9212 217.952 51.9803 218.086 51.9803C218.16 51.9803 218.241 51.9679 218.332 51.9461V52.1327C218.304 52.1452 218.263 52.1607 218.21 52.1794C218.157 52.1981 218.098 52.2136 218.033 52.2261C217.968 52.2385 217.893 52.2416 217.803 52.2416C217.641 52.2416 217.507 52.2012 217.404 52.1234C217.302 52.0456 217.24 51.9119 217.215 51.7252L217.137 51.7999C216.779 52.1545 216.362 52.3319 215.88 52.3319C215.569 52.3319 215.301 52.2354 215.08 52.0425C214.86 51.8496 214.748 51.6039 214.748 51.299C214.748 50.8696 214.909 50.5616 215.23 50.375C215.429 50.263 215.79 50.1634 216.312 50.0794C216.68 50.0172 216.91 49.9612 217.006 49.9114C217.143 49.8367 217.208 49.7061 217.208 49.5132C217.208 49.199 217.121 48.9532 216.95 48.7821C216.779 48.611 216.533 48.5239 216.219 48.5239C215.948 48.5239 215.712 48.5985 215.507 48.7447C215.348 48.8567 215.248 48.9781 215.211 49.1087H215.118V48.6359C215.339 48.4834 215.56 48.3683 215.784 48.2874C216.008 48.2096 216.238 48.1692 216.48 48.1692C217.395 48.1692 217.852 48.6421 217.852 49.591L217.859 49.5941ZM217.18 51.3954V50.1603L216.885 50.2194C216.393 50.3159 216.082 50.3905 215.955 50.4465C215.616 50.599 215.448 50.8447 215.448 51.1839C215.448 51.4421 215.522 51.6412 215.668 51.775C215.815 51.9119 216.017 51.9772 216.278 51.9772C216.384 51.9772 216.505 51.9461 216.633 51.8807C216.764 51.8154 216.869 51.7407 216.953 51.6567C217 51.6163 217.047 51.5696 217.103 51.5167C217.156 51.4639 217.184 51.4234 217.184 51.3954H217.18Z" fill="#E9222B"/>
<path d="M219.433 52.276V45.9106L219.772 45.9355L220.111 45.9106V52.2666L219.772 52.2418L219.433 52.276Z" fill="#E9222B"/>
<path d="M101.55 0C102.079 0.121333 102.623 0.0808889 103.158 0.133778C105.327 0.339111 107.433 0.780889 109.408 1.72044C113.238 3.54356 115.45 6.58 116.023 10.7707C116.828 16.6756 114.131 23.408 109.52 27.1009C107.355 28.8338 104.869 29.9164 102.216 30.6382C100.094 31.2169 97.9316 31.5964 95.7507 31.8516C95.6978 31.8578 95.6418 31.8702 95.5516 31.8858C96.6591 32.8004 96.7929 34.0853 96.9329 35.3453C97.2658 38.3662 98.7716 40.6622 101.282 42.28C103.41 43.652 105.535 43.1822 107.368 41.5178C107.551 41.3498 107.464 41.3 107.287 41.2347C106.627 40.9889 106.036 40.6218 105.504 40.1582C104.58 39.3587 104.141 38.3724 104.25 37.1373C104.381 35.6502 104.854 34.3187 105.933 33.2578C106.904 32.3027 108.239 32.0756 109.281 32.6511C109.533 32.788 109.763 32.9591 109.888 33.2204C109.987 33.4351 110.133 33.5284 110.354 33.6C111.633 34.0076 112.271 34.9596 112.498 36.2227C112.548 36.4964 112.641 36.5929 112.905 36.5711C113.173 36.5493 113.487 36.6427 113.696 36.4809C113.907 36.316 113.783 35.9956 113.823 35.7436C114.144 33.7244 114.704 31.7676 115.363 29.8356C116.508 26.4818 117.864 23.2213 119.759 20.2098C120.428 19.1489 121.159 18.1316 122.083 17.276C122.749 16.6569 123.468 16.072 124.416 16.0191C125.854 15.9382 127.192 16.2867 128.333 17.2076C128.984 17.7302 129.064 18.4489 128.909 19.208C128.635 20.5396 128.025 21.7342 127.344 22.8916C125.001 26.8582 122.236 30.5076 119.059 33.8427C118.54 34.3902 117.992 34.9098 117.451 35.4387C117.367 35.5196 117.304 35.6067 117.264 35.7156C116.975 36.512 116.732 37.3178 116.688 38.1733C116.682 38.2853 116.679 38.3973 116.688 38.5124C116.704 38.7738 116.788 39.0133 117.049 39.116C117.292 39.2156 117.482 39.06 117.653 38.9076C118.496 38.1609 119.047 37.2058 119.554 36.2196C119.616 36.1013 119.569 36.0018 119.538 35.896C119.022 34.1818 120.643 32.956 121.903 33.2951C122.649 33.4942 123.312 33.7338 123.502 34.5862C123.598 35.0249 123.552 35.4667 123.396 35.8836C123.293 36.1573 123.387 36.2444 123.636 36.2787C123.95 36.3253 124.264 36.3564 124.575 36.2787C124.98 36.1822 125.266 36.0298 125.424 35.5538C125.894 34.1507 126.862 33.1551 128.224 32.5671C128.585 32.4116 128.965 32.3836 129.348 32.4924C130.228 32.7444 130.978 33.1987 131.541 33.9298C132.116 34.6764 132.138 35.2551 131.612 36.0391C130.95 37.0316 130.113 37.8653 129.22 38.6462C129.136 38.7178 129.055 38.7924 128.943 38.8889C129.369 39.0693 129.768 38.976 130.15 38.8889C131.703 38.5249 133.056 37.7502 134.332 36.8231C134.633 36.6053 134.916 36.3627 135.215 36.1418C135.402 36.0018 135.43 35.9178 135.178 35.8151C134.755 35.644 134.388 35.3858 134.104 35.0187C133.635 34.4089 133.597 33.7929 133.986 33.1364C134.114 32.9218 134.251 32.7164 134.425 32.5391C134.982 31.9636 135.728 31.8422 136.316 32.2342C136.92 32.6387 137.163 33.4973 136.858 34.188C136.796 34.3311 136.715 34.4711 136.618 34.5924C136.484 34.7573 136.553 34.8196 136.715 34.8724C136.964 34.9502 137.212 34.9129 137.449 34.8444C137.959 34.692 138.448 34.4929 138.821 34.0853C138.948 33.9453 139.12 33.9329 139.288 33.9453C139.891 33.992 140.42 34.2222 140.884 34.608C141.328 34.9782 141.478 35.4293 141.282 35.9956C141.027 36.7422 140.688 37.4547 140.352 38.1671C140.236 38.4098 140.134 38.6618 140.022 38.9076C139.904 39.172 139.925 39.4302 140.034 39.6916C140.305 40.3449 140.613 40.4724 141.232 40.1396C142.896 39.2436 144.172 37.9587 145.04 36.2787C145.308 35.7591 145.591 35.2489 145.759 34.6796C145.849 34.3778 145.728 34.3684 145.488 34.3964C144.421 34.5209 143.397 34.3653 142.445 33.8582C141.926 33.5813 141.724 33.1022 141.888 32.5858C142.14 31.7987 143.068 31.5622 143.646 32.1564C144.278 32.8036 145.084 32.9467 145.927 33.0182C146.169 33.04 146.157 32.8409 146.191 32.7009C146.533 31.2884 146.919 29.8884 147.364 28.5071C148.35 25.4396 149.433 22.4062 151.026 19.5876C151.576 18.6138 152.161 17.6649 153.02 16.9182C153.788 16.2524 154.597 16.1342 155.381 16.5667C156.047 16.9338 156.2 17.416 155.845 18.088C155.724 18.3182 155.584 18.536 155.437 18.7507C154.996 19.404 154.535 20.0449 154.103 20.7044C152.127 23.7253 150.777 27.0324 149.644 30.4422C149.458 31.0084 149.277 31.5778 149.103 32.1471C149.069 32.2591 148.957 32.3929 149.063 32.4893C149.144 32.564 149.274 32.4769 149.38 32.4551C150.282 32.2622 151.169 31.9884 152.105 32.0196C152.6 32.0351 152.986 32.3711 153.064 32.8564C153.135 33.3107 152.864 33.7711 152.429 33.9329C152.186 34.0231 151.944 33.992 151.698 33.9267C150.743 33.6716 149.775 33.7804 148.808 33.8396C148.658 33.8489 148.63 33.9422 148.596 34.0573C147.971 36.1293 147.432 38.22 147.268 40.3884C147.261 40.4787 147.243 40.5658 147.233 40.656C147.165 41.1631 147.143 41.664 147.423 42.1307C147.544 42.3329 147.607 42.5662 147.644 42.8027C147.703 43.1636 147.579 43.3813 147.215 43.4436C146.06 43.6396 145.472 43.3191 145.052 42.2769C144.816 41.6858 144.819 41.0667 144.872 40.4444C144.878 40.3822 144.884 40.32 144.897 40.1956C144.735 40.3449 144.614 40.4569 144.492 40.5689C142.881 42.0498 141.036 42.2302 139.166 41.0853C138.622 40.7524 138.161 40.3231 137.732 39.8596C137.091 39.1689 137.026 38.3538 137.234 37.4889C137.346 37.0316 137.483 36.5773 137.617 36.0827C137.272 36.1262 136.954 36.1729 136.631 36.1698C136.438 36.1698 136.422 36.3502 136.357 36.4747C135.551 38.024 134.487 39.3524 133.143 40.4787C131.864 41.5489 130.548 41.7449 129.064 40.9391C127.857 40.2858 126.79 39.4831 125.95 38.3911C125.751 38.1298 125.574 37.8529 125.462 37.5449C125.4 37.3769 125.344 37.3333 125.182 37.4484C124.513 37.9244 123.779 38.1578 122.951 37.9711C122.768 37.9307 122.69 38.0302 122.609 38.164C122.195 38.8516 121.713 39.4893 121.2 40.1022C120.425 41.0262 119.476 41.3093 118.325 40.9484C116.807 40.4724 115.553 39.6138 114.551 38.3849C114.424 38.2293 114.333 38.1796 114.137 38.2636C113.596 38.4938 113.024 38.6213 112.442 38.6991C112.268 38.724 112.162 38.7831 112.078 38.9418C111.568 39.9 110.864 40.6622 109.881 41.1631C109.589 41.3124 109.365 41.5924 109.104 41.8071C107.875 42.812 106.54 43.6053 104.95 43.8791C103.644 44.1031 102.371 43.9071 101.12 43.5151C99.3627 42.9613 97.8102 42.056 96.4662 40.7929C95.0724 39.4862 94.3756 37.8622 94.2511 35.9707C94.2262 35.5911 94.1702 35.2084 94.0893 34.8351C93.7564 33.3604 92.6427 32.4644 91.1151 32.4178C90.5738 32.4022 90.0356 32.4427 89.4942 32.48C89.3013 32.4924 89.2267 32.6044 89.1489 32.7476C87.9418 35.0249 86.7284 37.3022 85.5213 39.5796C85.008 40.5471 84.5351 41.5302 84.3298 42.6191C84.3142 42.6969 84.3018 42.7747 84.2956 42.8524C84.2364 43.4156 84.0498 43.5524 83.4898 43.4187C83.1258 43.3316 82.7867 43.1822 82.4693 42.9831C81.7631 42.5413 81.1409 42.0156 80.7364 41.2689C80.5902 41.0013 80.5716 40.7556 80.6867 40.4662C81.256 39.0196 81.9 37.6071 82.5564 36.1978C85.6302 29.6147 88.8347 23.1 92.372 16.7502C93.2338 15.204 94.1204 13.6733 95.1471 12.2298C95.7631 11.3618 96.4973 10.6151 97.496 10.1982C98.7436 9.67556 100.016 9.67245 101.285 10.136C101.338 10.1547 101.388 10.1827 101.438 10.2076C101.733 10.3662 101.746 10.4409 101.519 10.6742C100.346 11.872 99.3533 13.2098 98.4324 14.6036C96.712 17.2013 95.2684 19.9516 93.912 22.7516C92.7453 25.1533 91.7093 27.6111 90.6111 30.044C90.5893 30.0938 90.5707 30.1467 90.5302 30.2556C91.1307 30.2058 91.6938 30.1809 92.2538 30.1124C95.536 29.7173 98.7 28.8618 101.752 27.5956C104.981 26.2547 107.33 23.9244 109.16 21.0124C110.535 18.8253 111.496 16.4702 111.879 13.9036C112.205 11.6947 112.062 9.53867 110.998 7.52267C109.981 5.6 108.351 4.36489 106.394 3.528C104.039 2.52 101.587 2.22133 99.0484 2.56044C95.8907 2.98356 92.9538 4.02578 90.2222 5.656C89.6498 5.99822 89.1333 6.412 88.6604 6.888C88.0569 7.49778 87.3071 7.57244 86.6693 7.13067C86.1 6.73244 85.9849 6.19111 86.3738 5.60933C86.7222 5.08356 87.2044 4.68533 87.7271 4.35244C91.1493 2.18089 94.8453 0.746667 98.8711 0.208444C99.4249 0.133778 99.9849 0.0777778 100.539 0.0124444C100.878 0.0124444 101.214 0.0124444 101.553 0.0124444L101.55 0ZM118.11 32.4956C118.132 32.5111 118.157 32.5267 118.179 32.5422C118.291 32.4178 118.406 32.2933 118.515 32.1689C120.932 29.3751 123.044 26.3573 124.983 23.2182C125.676 22.0951 126.311 20.944 126.744 19.6902C126.846 19.3916 126.933 19.0867 126.918 18.7662C126.908 18.5671 126.859 18.3711 126.666 18.284C126.488 18.2031 126.342 18.3276 126.212 18.4364C126.109 18.5236 126.009 18.6169 125.919 18.7164C125.39 19.3044 124.948 19.9578 124.528 20.6267C122.298 24.1796 120.394 27.9098 118.518 31.6556C118.378 31.9324 118.247 32.2156 118.11 32.4956ZM108.251 35.3578C107.526 35.8244 106.972 36.4249 106.739 37.2711C106.409 38.472 107.165 39.5702 108.404 39.6947C108.624 39.7164 108.864 39.7289 109.029 39.5329C109.222 39.2996 109.402 39.0538 109.592 38.8142C109.698 38.6804 109.707 38.5933 109.52 38.5124C109.206 38.3787 108.932 38.1827 108.705 37.9244C108.036 37.1684 107.912 36.3129 108.251 35.3578ZM127.727 37.5511C127.745 37.7129 127.73 37.9276 127.888 37.9991C128.022 38.0613 128.134 37.8778 128.24 37.7844C129.064 37.0596 129.777 36.2351 130.408 35.336C130.486 35.2271 130.542 35.1027 130.601 34.9813C130.645 34.8973 130.664 34.8071 130.595 34.7262C130.52 34.6391 130.418 34.636 130.315 34.6764C130.209 34.7169 130.1 34.748 130.001 34.8009C129.083 35.2924 128.371 35.9924 127.904 36.932C127.808 37.1249 127.748 37.3302 127.727 37.5511Z" fill="#E9222B"/>
<path d="M220.883 37.0098C220.702 36.0205 219.99 35.6005 219.094 35.3765C218.798 35.3018 218.503 35.2302 218.223 35.1151C217.915 34.9876 217.887 34.776 218.111 34.5334C218.288 34.3405 218.518 34.216 218.739 34.0822C219.056 33.8925 219.396 33.7307 219.669 33.4725C219.996 33.1645 219.98 32.8689 219.623 32.5982C219.308 32.3649 218.96 32.2218 218.562 32.2156C217.653 32.2 216.9 32.5578 216.247 33.1645C215.538 33.8271 214.928 34.5862 214.284 35.308C213.071 36.6614 211.801 37.9525 210.355 39.0631C210.112 39.2498 209.86 39.4209 209.558 39.4987C209.288 39.5671 209.163 39.4458 209.235 39.1751C209.275 39.0258 209.34 38.8765 209.418 38.7427C209.851 37.9649 210.311 37.2027 210.722 36.4156C211.157 35.5849 210.989 35.0747 210.184 34.58C209.95 34.4369 209.701 34.328 209.434 34.2814C209.085 34.2191 208.78 34.2191 208.466 34.496C208.015 34.8911 207.443 35.0996 206.842 35.1898C206.712 35.2085 206.568 35.2054 206.441 35.1774C206.264 35.14 206.183 35.0467 206.344 34.8787C206.509 34.7076 206.643 34.5147 206.743 34.2969C207.02 33.6778 206.892 32.9311 206.441 32.5547C205.996 32.1845 205.284 32.2062 204.714 32.6231C204.328 32.9062 204.017 33.264 203.772 33.6716C203.367 34.3436 203.464 35.0467 204.008 35.616C204.266 35.8867 204.596 36.0485 204.923 36.232C204.882 36.2756 204.867 36.3067 204.839 36.3254C204.658 36.4591 204.478 36.596 204.294 36.7236C202.779 37.7782 201.192 38.6867 199.385 39.1502C198.952 39.2622 198.514 39.3307 198.063 39.2218C198.097 39.0694 198.218 39.0351 198.302 38.9667C199.363 38.1422 200.387 37.2742 201.217 36.2071C201.812 35.4418 201.808 34.7542 201.217 33.9889C200.748 33.3822 200.125 32.9902 199.388 32.7787C199.114 32.7009 198.822 32.676 198.554 32.7694C196.725 33.4227 195.396 34.6018 194.777 36.4809C194.69 36.7391 194.591 36.8791 194.323 36.9227C193.698 37.0191 193.091 36.9662 192.497 36.7485C192.236 36.652 192.155 36.5462 192.31 36.26C192.609 35.7156 192.842 35.14 192.796 34.4929C192.764 34.0418 192.506 33.6934 192.105 33.5876C191.638 33.4662 191.184 33.5036 190.773 33.7742C190.092 34.2191 189.594 34.8165 189.339 35.5974C189.162 36.1356 189.103 36.6894 189.395 37.2027C189.507 37.4018 189.451 37.5014 189.32 37.632C188.866 38.0894 188.406 38.5342 187.914 38.9511C187.724 39.1129 187.532 39.2685 187.301 39.3711C187.158 39.4334 187.009 39.5111 186.86 39.3867C186.713 39.2654 186.732 39.0942 186.779 38.948C186.86 38.6929 186.959 38.4378 187.084 38.1982C187.444 37.4982 187.824 36.8076 188.188 36.1076C188.319 35.8587 188.471 35.5756 188.365 35.3018C188.011 34.3747 187.42 33.6405 186.468 33.264C186.206 33.1614 185.932 33.1862 185.712 33.4009C185.164 33.9391 184.641 34.4991 184.299 35.1991C184.228 35.3422 184.147 35.4729 184.035 35.588C183.49 36.1605 182.958 36.7422 182.401 37.2991C181.882 37.8156 181.353 38.3227 180.734 38.724C180.628 38.7925 180.494 38.9294 180.376 38.8142C180.276 38.7178 180.392 38.5778 180.454 38.4814C180.662 38.1485 180.889 37.8249 181.104 37.4951C181.661 36.6334 182.324 35.8462 182.8 34.9316C183.002 34.5458 182.974 34.2067 182.719 33.8614C182.286 33.2765 181.751 32.8222 181.07 32.5609C180.488 32.3369 180.258 32.3991 179.863 32.8814C179.06 33.8645 178.385 34.9378 177.887 36.0982C177.632 36.6956 177.237 36.8667 176.674 36.8791C176.584 36.8791 176.493 36.8729 176.403 36.8791C176.104 36.9134 176.002 36.8138 175.999 36.4902C175.983 35.3889 175.504 34.2471 174.138 33.8551C174.023 33.8209 173.942 33.7867 173.899 33.656C173.7 33.0649 173.224 32.8005 172.654 32.6916C171.789 32.5267 170.993 32.7538 170.29 33.2547C168.747 34.3529 167.925 35.896 167.564 37.7254C167.359 38.7614 167.636 39.6387 168.352 40.3978C168.88 40.9547 169.509 41.3591 170.234 41.6142C170.956 41.8694 171.656 41.8662 172.371 41.5707C173.267 41.2005 174.085 40.6996 174.63 39.9125C175.115 39.2125 175.706 38.8827 176.521 38.8049C176.767 38.7831 176.792 38.8298 176.764 39.0289C176.705 39.4458 176.87 39.7725 177.168 40.0525C177.651 40.5036 178.198 40.8489 178.811 41.1009C179.312 41.3062 179.76 41.2347 180.171 40.9049C180.513 40.6311 180.852 40.348 181.182 40.0587C181.947 39.3898 182.604 38.612 183.319 37.8934C183.378 37.8311 183.437 37.7316 183.537 37.7596C183.636 37.7876 183.596 37.8934 183.596 37.9649C183.602 39.4707 184.427 40.46 185.634 41.2098C185.936 41.3965 186.256 41.44 186.608 41.3747C187.245 41.2565 187.793 40.9547 188.303 40.5751C189.081 39.9934 189.8 39.3431 190.475 38.6462C190.615 38.5031 190.717 38.472 190.907 38.556C191.486 38.8111 192.089 38.8827 192.724 38.7925C193.38 38.696 193.987 38.472 194.563 38.1516C194.678 38.0894 194.771 37.9836 194.868 38.1982C195.409 39.3867 196.296 40.264 197.381 40.9547C199.096 42.0436 200.166 42.0156 201.83 40.8614C203.436 39.7476 204.742 38.3476 205.822 36.7267C205.887 36.6271 205.921 36.4622 206.064 36.4716C206.4 36.4871 206.73 36.3938 207.069 36.3907C207.069 36.5618 206.979 36.6831 206.926 36.8169C206.74 37.2742 206.512 37.716 206.376 38.1951C206.083 39.2374 206.31 39.9156 207.172 40.5658C207.542 40.8489 207.968 41.0262 208.392 41.2129C209.512 41.7045 210.482 41.5085 211.369 40.6778C212.193 39.9031 212.931 39.0538 213.621 38.1609C214.275 37.3147 214.85 36.4062 215.541 35.5849C215.69 35.4076 215.762 35.3827 215.886 35.6129C216.11 36.0329 216.449 36.344 216.9 36.5151C217.442 36.7236 217.669 37.1436 217.703 37.6942C217.75 38.4627 217.526 39.1596 217.143 39.816C216.736 40.5191 216.11 40.824 215.317 40.824C214.782 40.824 214.374 40.5222 214.278 39.9965C214.216 39.6605 214.041 39.5578 213.74 39.5982C213.428 39.6418 213.27 39.8409 213.298 40.1645C213.326 40.5036 213.475 40.796 213.696 41.0418C214.576 42.0094 215.696 42.3485 216.947 42.0996C219.116 41.6671 220.432 40.3325 220.87 38.1516C220.876 38.1205 220.883 38.0894 220.889 38.0582C220.954 37.6725 220.898 37.1778 220.876 37.0036L220.883 37.0098ZM172.735 39.0662C172.337 39.4862 171.914 39.872 171.376 40.1022C170.84 40.3325 170.476 40.1147 170.402 39.5267C170.349 39.0911 170.455 38.6774 170.598 38.2729C170.809 37.6818 171.086 37.128 171.494 36.5867C171.603 36.9196 171.68 37.212 171.796 37.4858C171.998 37.9805 172.293 38.4191 172.704 38.7676C172.819 38.8671 172.856 38.9356 172.735 39.0631V39.0662ZM197.294 38.2294C197.238 38.2729 197.164 38.3538 197.089 38.2885C197.011 38.22 197.005 38.108 196.999 37.9867C197.02 37.7658 197.095 37.5418 197.22 37.3365C197.842 36.316 198.713 35.5756 199.783 35.056C199.814 35.0405 199.845 35.0311 199.88 35.0218C200.02 34.972 200.184 34.8974 200.29 35.0156C200.408 35.1494 200.281 35.2956 200.194 35.4076C199.357 36.4778 198.377 37.408 197.294 38.2262V38.2294Z" fill="#E9222B"/>
<path d="M170.312 0.189701C174.328 0.174145 178.192 0.889701 181.823 2.67237C183.811 3.64926 185.643 4.85637 187.118 6.53015C189.084 8.76081 190.139 11.3835 190.157 14.3577C190.188 19.2919 188.418 23.5479 184.996 27.0728C182.504 29.6395 179.38 31.1017 175.896 31.7955C172.29 32.5141 168.728 32.2684 165.212 31.2168C164.699 31.0644 164.82 31.0115 164.556 31.5217C163.38 33.7804 162.493 36.1448 161.918 38.6244C161.709 39.5235 161.464 40.4195 161.548 41.3559C161.563 41.5457 161.569 41.7417 161.619 41.9253C161.703 42.2301 161.579 42.3048 161.299 42.2986C160.586 42.2768 159.961 42.0061 159.376 41.6297C158.178 40.8613 157.848 39.9248 158.141 38.3475C158.595 35.9053 159.457 33.6061 160.462 31.3475C162.014 27.8599 163.57 24.3755 165.287 20.9657C165.844 19.8581 166.41 18.7568 167.107 17.727C168 16.411 169.537 15.8417 171.077 16.243C171.463 16.3426 171.481 16.3893 171.301 16.7377C170.016 19.2204 168.921 21.787 167.776 24.335C166.973 26.1208 166.183 27.9159 165.387 29.7048C165.212 30.0968 165.212 30.0844 165.642 30.1839C168.408 30.8341 171.102 30.4857 173.759 29.6208C178.494 28.0777 181.972 25.0288 184.308 20.6733C185.273 18.875 186.016 16.9741 186.275 14.9208C186.642 12.0337 185.83 9.52615 183.823 7.42303C182.159 5.67459 180.077 4.59815 177.828 3.81415C175.177 2.89326 172.458 2.37059 169.64 2.52926C163.809 2.85592 158.906 5.18303 154.887 9.40481C154.793 9.50126 154.697 9.5977 154.585 9.67548C154.149 9.97415 153.76 9.90259 153.443 9.47326C152.852 8.67059 152.88 7.40437 153.577 6.69192C154.731 5.51281 155.976 4.43637 157.475 3.70215C159 2.95548 160.521 2.19637 162.104 1.56792C164.285 0.706145 166.553 0.279923 168.89 0.199034C169.363 0.183479 169.836 0.199034 170.308 0.199034L170.312 0.189701Z" fill="#E9222B"/>
<path d="M74.0725 35.8835C73.9449 35.4292 73.5373 35.3017 73.192 35.6221C72.9773 35.8212 72.7938 36.0515 72.6133 36.2817C71.7391 37.3768 70.8058 38.4159 69.7293 39.315C69.5489 39.4675 69.3529 39.6012 69.1538 39.7288C69.0294 39.8097 68.8738 39.8657 68.74 39.7723C68.5938 39.6728 68.5845 39.5048 68.6249 39.343C68.6716 39.1563 68.7182 38.9728 68.7711 38.7892C69.1009 37.6661 69.496 36.5648 69.776 35.4261C69.9253 34.8257 69.7356 34.3652 69.2502 34.0075C68.9142 33.7586 68.5502 33.5595 68.1551 33.4132C67.1627 33.043 66.9107 33.1115 66.2387 33.9235C65.2805 35.0777 64.4467 36.3252 63.5258 37.5106C63.3578 37.7283 63.2085 37.9679 62.9129 38.1701C63.0249 37.6039 63.1245 37.103 63.2209 36.599C63.5071 35.0995 62.776 34.1723 61.6031 33.5968C61.1302 33.3666 60.8658 33.4661 60.564 33.8986C60.2187 34.3901 59.9916 34.9595 59.9791 35.535C59.9573 36.5897 59.3942 37.2275 58.604 37.7968C57.7889 38.3817 57.0298 39.0412 56.1058 39.4581C55.9689 39.5203 55.804 39.6199 55.6671 39.4706C55.5458 39.3399 55.5987 39.175 55.6547 39.0226C55.8102 38.6088 56.0373 38.2323 56.2427 37.8466C56.6191 37.1435 57.0111 36.4435 57.3814 35.7341C57.512 35.4852 57.6645 35.1959 57.5276 34.9283C57.0671 34.0448 56.4729 33.2732 55.524 32.8595C55.2067 32.7226 54.8862 32.7599 54.5845 32.9403C54.2018 33.1675 53.8845 33.4661 53.5765 33.7835C52.3756 35.0248 51.3022 36.375 50.1978 37.6972C50.1169 37.7937 50.0547 37.9243 49.896 37.9648C49.8431 37.8403 49.8618 37.7315 49.8867 37.6257C49.9987 37.1652 50.1169 36.7079 50.2227 36.2475C50.2693 36.039 50.3845 35.8866 50.5369 35.7403C52.0458 34.3186 53.5111 32.8501 54.9174 31.3226C57.0951 28.9581 59.192 26.5252 60.9716 23.8403C61.6622 22.7981 62.3031 21.7217 62.6578 20.5083C62.7978 20.0323 62.8414 19.5532 62.6111 19.0897C62.0698 18.0163 61.264 17.2043 60.172 16.7003C58.9711 16.1466 57.8231 16.1963 56.7436 17.0363C56.0436 17.5839 55.4649 18.2403 54.9391 18.9497C53.2933 21.1741 52.0676 23.6288 50.9849 26.1612C49.6502 29.2786 48.5116 32.4675 47.6591 35.7528C47.4289 36.6332 47.3605 36.6986 46.4458 36.6923C46.4022 36.6923 46.3556 36.6861 46.312 36.6892C46.1098 36.7048 46.0196 36.627 45.9822 36.4092C45.8578 35.7092 45.5529 35.0839 45.08 34.5457C45.0271 34.4866 44.9742 34.4243 44.9431 34.3559C44.2929 32.9652 43.1293 32.4021 41.6671 32.287C40.4382 32.1906 39.2156 32.2497 37.9898 32.3399C37.6258 32.3679 37.2618 32.3897 36.8542 32.4177C37.2182 31.8577 37.5729 31.3537 37.8871 30.8248C40.1209 27.0728 41.7791 23.0595 43.1605 18.9341C44.0036 16.4141 44.5698 13.8319 44.5325 11.1501C44.5076 9.38924 44.1965 7.69679 43.3471 6.13812C42.1991 4.02879 40.4258 2.61012 38.2356 1.71412C35.0187 0.38568 31.6431 0.0559017 28.2209 0.513235C23.7253 1.11679 19.8956 3.1639 16.8405 6.48346C12.2547 11.4643 10.9698 17.2852 12.9485 23.7595C13.9876 27.1599 16.1373 29.6986 19.3698 31.2697C21.7 32.4052 24.108 33.2857 26.6933 33.659C26.6 33.7088 26.5067 33.7461 26.4133 33.7617C23.8809 34.1786 21.3578 34.6452 18.8502 35.1897C14.6751 36.095 10.6245 37.355 6.82579 39.343C5.64979 39.959 4.45823 40.5532 3.44401 41.4368C1.90712 42.7746 0.72179 44.3457 0.199124 46.3492C0.152457 46.5297 0.115124 46.7101 0.0809016 46.8937C0.0560127 47.0586 -0.149321 48.5612 0.220902 50.3159C1.12312 53.5919 3.53424 55.6141 6.86001 55.9595C6.91601 55.9657 7.29557 55.9937 7.65957 55.9968C7.99557 55.9968 8.31601 55.975 8.35024 55.9719C11.06 55.7417 13.5893 54.9235 15.9725 53.6261C18.144 52.4439 20.0418 50.8759 21.9738 49.367C24.2729 47.5688 26.2453 45.4252 28.2053 43.2755C29.7765 41.5519 31.388 39.8595 32.6916 37.9119C33.488 36.7203 34.3405 35.5723 35.2147 34.4399C35.3765 34.2283 35.5507 34.1101 35.8245 34.0883C36.2289 34.0572 36.6271 33.9701 37.0285 33.9266C37.7751 33.8488 38.5031 33.6279 39.2747 33.6839C39.2653 33.7243 39.2654 33.7617 39.2498 33.7835C38.6338 34.639 38.3134 35.6035 38.2045 36.6395C38.1049 37.607 38.136 38.5652 38.752 39.3897C39.5111 40.407 40.5036 41.1008 41.7294 41.4399C42.2365 41.5799 42.7436 41.6048 43.2538 41.4057C44.38 40.9732 45.1422 40.1706 45.6587 39.1035C45.7271 38.9635 45.7645 38.8141 45.9605 38.7799C46.2809 38.727 46.6013 38.6586 46.9187 38.5839C47.0929 38.5403 47.1085 38.6243 47.1022 38.7581C47.0929 39.0163 47.0773 39.2777 47.0836 39.5359C47.0898 39.9995 47.292 40.3635 47.6996 40.5937C48.5271 41.0603 49.9427 40.8239 50.5742 40.1115C51.0471 39.5826 51.5107 39.0443 51.9836 38.5123C52.2947 38.1608 52.612 37.8155 52.9511 37.439C52.9791 37.6537 52.9916 37.831 53.0258 38.0021C53.3929 39.7848 55.3809 41.4741 57.6271 40.8923C58.4267 40.6839 59.0831 40.2452 59.6836 39.707C59.8453 39.5639 59.9293 39.5266 60.0476 39.7537C60.2 40.0492 60.4396 40.2795 60.732 40.4381C62.0138 41.1319 62.2565 40.9141 63 40.1301C63.9053 39.1781 64.6458 38.1017 65.3831 37.0221C65.4454 36.9288 65.4858 36.8106 65.6507 36.739C65.4578 37.4577 65.2836 38.1297 65.1187 38.8048C64.9071 39.6852 65.2089 40.3168 65.9058 40.8239C66.7676 41.4492 67.7445 41.7541 68.7867 41.8941C69.58 41.9999 70.2551 41.7915 70.7934 41.1817C72.0036 39.8066 73.052 38.3163 73.9791 36.739C74.1316 36.4777 74.1534 36.1821 74.0725 35.8866V35.8835ZM51.772 32.4675C53.8222 28.6719 55.7947 24.8359 58.0845 21.1772C58.6476 20.2781 59.2231 19.3915 59.9169 18.5857C60.0538 18.4239 60.2062 18.2683 60.3711 18.1377C60.6449 17.923 60.8596 18.0226 60.9062 18.371C60.9436 18.6448 60.8845 18.9092 60.7973 19.1675C60.5173 19.9795 60.1222 20.7386 59.7116 21.4883C58.2525 24.1546 56.4573 26.5968 54.656 29.0359C53.7973 30.1963 52.8982 31.3226 51.9618 32.4208C51.8902 32.5048 51.8156 32.5857 51.7378 32.6728C51.688 32.5795 51.7409 32.5235 51.772 32.4706V32.4675ZM27.692 38.8297C24.3942 43.1261 20.5365 46.8097 15.8667 49.5941C13.8631 50.7888 11.7973 51.8683 9.55735 52.5621C8.6209 52.8515 7.65646 52.9479 6.68579 52.7644C4.93735 52.4315 3.8609 51.2181 3.64935 49.4324C3.34446 46.8719 4.34624 44.8652 6.23468 43.2257C7.87735 41.7977 9.79068 40.8208 11.7787 39.9808C14.9302 38.6523 18.2156 37.7532 21.5102 36.8759C24.3071 36.1292 27.1289 35.5195 29.9756 34.9999C30.072 34.9812 30.1747 34.9781 30.3551 34.9595C29.4529 36.3066 28.6316 37.6101 27.692 38.8328V38.8297ZM34.8662 26.9981C33.936 28.5755 32.8969 30.0719 31.7489 31.4937C31.5778 31.7052 31.3849 31.7955 31.1205 31.8141C30.4796 31.8608 29.8387 31.9012 29.4373 31.8981C27.2782 31.9043 25.4053 31.6368 23.6196 30.8963C21.3111 29.9381 19.6218 28.3421 18.5827 26.0555C17.6805 24.0706 16.94 22.039 16.6227 19.8675C16.0378 15.8479 16.94 12.1892 19.2982 8.90079C21.1867 6.26879 23.6071 4.29324 26.7182 3.29457C29.6271 2.35812 32.5578 2.33012 35.4107 3.51857C37.9742 4.58879 39.3338 6.62035 39.7258 9.33324C40.0587 11.6417 39.6947 13.8972 39.1098 16.1186C38.1142 19.9079 36.8698 23.6008 34.8662 26.9981ZM43.3938 39.0568C43.1729 39.9995 42.3111 40.3728 41.5365 39.7972C40.6249 39.1221 40.1862 38.195 40.4009 37.0532C40.6062 35.9643 41.216 35.1897 42.3142 34.8661C42.3453 34.8568 42.3796 34.863 42.4822 34.8568C42.1151 35.4697 41.9502 36.0888 42.0156 36.7639C42.0933 37.5635 42.4698 38.1763 43.1729 38.5559C43.4187 38.6866 43.4467 38.8203 43.3907 39.063L43.3938 39.0568Z" fill="#E9222B"/>
</g>
<defs>
<clipPath id="clip0_1_110">
<rect width="220.926" height="56" fill="white"/>
</clipPath>
</defs>
</svg>
