<svg width="30" height="30" viewBox="0 0 30 30" fill="none" xmlns="http://www.w3.org/2000/svg">
<path d="M27.5 13.7401V5.84006C27.5 4.34006 26.275 3.22756 24.7875 3.35256H24.7125C22.0875 3.57756 18.1 4.91506 15.875 6.31506L15.6625 6.45256C15.3 6.67756 14.7 6.67756 14.3375 6.45256L14.025 6.26506C11.8 4.87756 7.825 3.55256 5.2 3.34006C3.7125 3.21506 2.5 4.34006 2.5 5.82756V20.9276C2.5 22.1276 3.475 23.2526 4.675 23.4026L5.0375 23.4526C7.75 23.8151 11.9375 25.1901 14.3375 26.5026L14.3875 26.5276C14.725 26.7151 15.2625 26.7151 15.5875 26.5276C17.9875 25.2026 22.1875 23.8151 24.9125 23.4526L25.325 23.4026C26.525 23.2526 27.5 22.1276 27.5 20.9276V18.7776M15 6.86006V25.6101M9.6875 10.6101H6.875M10.625 14.3601H6.875" stroke="black" stroke-width="1.5" stroke-linecap="round" stroke-linejoin="round"/>
</svg>
