<svg width="24" height="17" viewBox="0 0 24 17" fill="none" xmlns="http://www.w3.org/2000/svg">
<path d="M22.1 0H1.7C1.24913 0 0.81673 0.179107 0.497918 0.497918C0.179107 0.81673 0 1.24913 0 1.7V15.3C0 15.7509 0.179107 16.1833 0.497918 16.5021C0.81673 16.8209 1.24913 17 1.7 17H22.1C22.5509 17 22.9833 16.8209 23.3021 16.5021C23.6209 16.1833 23.8 15.7509 23.8 15.3V1.7C23.8 1.24913 23.6209 0.81673 23.3021 0.497918C22.9833 0.179107 22.5509 0 22.1 0ZM20.23 1.7L11.9 7.463L3.57 1.7H20.23ZM1.7 15.3V2.4735L11.4155 9.197C11.5578 9.29571 11.7268 9.3486 11.9 9.3486C12.0732 9.3486 12.2422 9.29571 12.3845 9.197L22.1 2.4735V15.3H1.7Z" fill="black"/>
</svg>
