<svg width="24" height="24" viewBox="0 0 24 24" fill="none" xmlns="http://www.w3.org/2000/svg">
<g clip-path="url(#clip0_257_856)">
<path d="M12.0001 0.53479C5.38325 0.53479 0 5.01785 0 10.5283C0 15.9104 4.67291 20.1978 10.8697 20.501C11.2899 20.5202 11.6473 20.1976 11.6679 19.7774C11.6884 19.3571 11.3645 18.9998 10.9442 18.9792C5.5736 18.7164 1.52368 15.0833 1.52368 10.5283C1.52368 5.858 6.2234 2.05836 12.0001 2.05836C17.7767 2.05836 22.4764 5.8579 22.4764 10.5283C22.4764 14.8745 16.9274 19.592 11.4461 22.006C11.061 22.1756 10.8863 22.6252 11.0559 23.0102C11.1814 23.2954 11.4607 23.4652 11.7535 23.4652C11.8561 23.4652 11.9603 23.4444 12.0602 23.4004C14.9995 22.106 17.8975 20.195 20.0114 18.1573C22.6209 15.6418 24.0002 13.0038 24.0002 10.5283C24 5.01785 18.6169 0.53479 12.0001 0.53479Z" fill="#1C1B1B"/>
<path d="M6.10329 8.09252C5.98241 7.94168 5.8147 7.86133 5.61926 7.86133C5.42393 7.86133 5.25724 7.9432 5.13707 8.09811C5.02696 8.24123 4.97363 8.43718 4.97363 8.69762V12.6729C4.97363 12.9514 5.03082 13.1545 5.14865 13.2936C5.2738 13.4416 5.46761 13.5167 5.7246 13.5167H7.88487C8.08965 13.5167 8.25146 13.4563 8.36584 13.3369C8.479 13.2217 8.5372 13.0702 8.5372 12.8883C8.5372 12.7124 8.47758 12.5569 8.36472 12.4387C8.25106 12.3157 8.08894 12.2523 7.88477 12.2523H6.27353V8.69752C6.27353 8.43159 6.21776 8.23371 6.10329 8.09252Z" fill="#1C1B1B"/>
<path d="M9.52319 7.86133C9.32979 7.86133 9.16371 7.9429 9.04283 8.0974C8.93282 8.23818 8.87695 8.44012 8.87695 8.69762V12.7649C8.87695 13.0274 8.93252 13.2249 9.04669 13.3684C9.16665 13.5228 9.33192 13.6052 9.52309 13.6052C9.71833 13.6052 9.88623 13.524 10.0084 13.3703C10.1216 13.2268 10.1788 13.0232 10.1788 12.7648V8.69752C10.1788 8.43738 10.1212 8.23402 10.0076 8.09303C9.88461 7.94127 9.71721 7.86133 9.52319 7.86133Z" fill="#1C1B1B"/>
<path d="M12.1517 10.5603L13.4486 12.8854C13.4496 12.8872 13.4506 12.889 13.4516 12.8908C13.4822 12.9419 13.5129 12.9925 13.5432 13.0424L13.5978 13.1324C13.6589 13.2313 13.7192 13.3101 13.7831 13.3754C13.8586 13.4534 13.939 13.5102 14.028 13.5485C14.1228 13.5872 14.219 13.6053 14.3256 13.6053C14.5814 13.6053 15.0104 13.4906 15.0104 12.7222V8.66311C15.0104 8.41617 14.9614 8.22957 14.8602 8.09274C14.7474 7.94119 14.5856 7.86145 14.3921 7.86145C14.2034 7.86145 14.0443 7.94129 13.932 8.09224C13.8307 8.23191 13.7822 8.418 13.7822 8.66321V10.9608L12.4425 8.59119L12.3737 8.46472L12.3039 8.33653C12.2471 8.23617 12.1965 8.1609 12.1475 8.10321C12.0892 8.0318 12.0185 7.97369 11.9373 7.93052C11.8527 7.88441 11.7533 7.86145 11.6357 7.86145C11.4871 7.86145 11.3492 7.90909 11.2259 8.00315C11.107 8.09203 11.0197 8.21017 10.968 8.35299C10.9674 8.35482 10.9668 8.35654 10.9662 8.35837C10.9272 8.4763 10.9082 8.62765 10.9082 8.82106V12.8042C10.9082 13.0399 10.9592 13.2298 11.0597 13.3686C11.0607 13.37 11.0617 13.3714 11.0627 13.3727C11.1789 13.5249 11.3403 13.6053 11.5297 13.6053C11.7161 13.6053 11.8759 13.5258 11.9919 13.3752C12.098 13.237 12.1516 13.045 12.1516 12.8041L12.1517 10.5603Z" fill="#1C1B1B"/>
<path d="M18.8211 9.16042C19.02 9.16042 19.1764 9.10232 19.2858 8.98774C19.3921 8.876 19.4458 8.72993 19.4458 8.55339C19.4458 8.37806 19.3918 8.23301 19.2853 8.12219C19.1778 8.00771 19.0211 7.94879 18.8211 7.94879H16.4582C16.3001 7.94879 16.1633 7.97866 16.0514 8.03767C15.9274 8.10461 15.8363 8.20893 15.7792 8.3486C15.7306 8.46664 15.707 8.6122 15.707 8.79331V12.6729C15.707 12.9517 15.7649 13.155 15.8841 13.2944C16.0075 13.4414 16.2011 13.5167 16.4583 13.5167H18.8902C19.0893 13.5167 19.2464 13.4567 19.3575 13.3382C19.4643 13.2228 19.5179 13.0767 19.5179 12.9027C19.5179 12.723 19.4643 12.5739 19.3587 12.4595C19.2447 12.3396 19.0878 12.28 18.8903 12.28H17.0087V11.2168H18.6605C18.8598 11.2168 19.0142 11.1572 19.1197 11.0397C19.2201 10.9269 19.2708 10.7849 19.2708 10.617C19.2708 10.4457 19.2182 10.3035 19.1146 10.1941C19.0117 10.0814 18.8581 10.0229 18.6606 10.0229H17.0088V9.16022H18.8211V9.16042Z" fill="#1C1B1B"/>
</g>
<defs>
<clipPath id="clip0_257_856">
<rect width="24" height="24" fill="white"/>
</clipPath>
</defs>
</svg>
